if (_typeface_js && _typeface_js.loadFace) _typeface_js.loadFace({"glyphs":{"0":{"ha":633,"x_min":45,"x_max":577,"o":"m 45 490 q 113 869 45 741 q 312 998 180 998 q 496 894 429 998 q 577 490 577 768 q 510 112 577 241 q 311 -17 443 -17 q 120 97 194 -17 q 45 490 45 211 m 148 490 q 194 166 148 248 q 313 83 241 83 q 428 167 382 83 q 474 490 474 250 q 428 815 474 733 q 307 897 381 897 q 194 814 239 897 q 148 490 148 730 z "},"1":{"ha":633,"x_min":122,"x_max":422,"o":"m 422 0 l 322 0 l 322 778 q 229 695 288 737 q 122 631 171 652 l 122 749 q 268 865 205 796 q 357 998 332 933 l 422 998 l 422 0 z "},"2":{"ha":633,"x_min":32,"x_max":573,"o":"m 573 117 l 573 0 l 34 0 q 77 159 32 71 q 242 368 122 248 q 426 584 382 507 q 469 726 469 660 q 425 849 469 802 q 315 897 380 897 q 201 846 245 897 q 156 698 156 794 l 53 711 q 134 926 64 854 q 319 998 204 998 q 508 914 444 998 q 572 723 572 830 q 522 541 572 628 q 331 309 471 454 q 215 184 241 217 q 173 117 189 151 l 573 117 z "},"3":{"ha":633,"x_min":46,"x_max":580,"o":"m 46 262 l 146 279 q 304 83 178 83 q 423 141 373 83 q 473 292 473 199 q 427 431 473 378 q 314 484 381 484 q 243 471 286 484 l 255 578 l 271 576 q 391 622 345 576 q 437 743 437 667 q 398 856 437 813 q 304 898 359 898 q 207 853 246 898 q 156 719 167 809 l 56 741 q 142 933 75 868 q 302 998 208 998 q 471 925 401 998 q 540 741 540 852 q 510 621 540 673 q 428 538 481 568 q 509 494 477 525 q 560 410 541 463 q 580 294 580 358 q 499 70 580 157 q 306 -18 418 -18 q 129 58 201 -18 q 46 262 56 134 z "},"4":{"ha":633,"x_min":13,"x_max":577,"o":"m 366 0 l 366 238 l 13 238 l 13 350 l 385 994 l 467 994 l 467 350 l 577 350 l 577 238 l 467 238 l 467 0 l 366 0 m 366 350 l 366 798 l 111 350 l 366 350 z "},"5":{"ha":633,"x_min":45,"x_max":586,"o":"m 45 260 l 151 271 q 206 130 163 176 q 306 83 249 83 q 429 149 377 83 q 480 328 480 214 q 430 493 480 434 q 305 551 380 551 q 220 526 260 551 q 157 455 180 500 l 63 470 l 142 981 l 547 981 l 547 864 l 222 864 l 178 597 q 332 659 251 659 q 510 572 435 659 q 586 337 586 485 q 510 87 586 191 q 307 -17 435 -17 q 129 57 201 -17 q 45 260 56 130 z "},"6":{"ha":633,"x_min":41,"x_max":579,"o":"m 565 751 l 465 741 q 423 850 451 818 q 327 898 383 898 q 186 789 239 898 q 140 513 141 696 q 227 611 175 578 q 338 645 279 645 q 507 557 435 645 q 579 322 579 469 q 543 141 579 222 q 450 22 507 60 q 324 -17 393 -17 q 121 94 201 -17 q 41 465 41 205 q 123 876 41 753 q 333 998 205 998 q 489 935 426 998 q 565 751 551 871 m 156 322 q 207 149 156 214 q 325 83 258 83 q 430 145 384 83 q 477 315 477 207 q 431 479 477 420 q 318 537 385 537 q 204 479 253 537 q 156 322 156 421 z "},"7":{"ha":633,"x_min":52,"x_max":580,"o":"m 52 864 l 52 981 l 580 981 l 580 886 q 372 487 462 733 q 269 0 283 241 l 166 0 q 206 291 168 125 q 309 608 243 457 q 451 864 375 758 l 52 864 z "},"8":{"ha":633,"x_min":45,"x_max":582,"o":"m 199 539 q 108 617 139 566 q 77 743 77 667 q 144 927 77 856 q 312 998 211 998 q 481 926 414 998 q 549 739 549 853 q 519 617 549 667 q 429 539 489 567 q 542 445 503 510 q 582 283 582 380 q 505 67 582 151 q 314 -17 428 -17 q 122 67 199 -17 q 45 287 45 151 q 86 451 45 387 q 199 539 127 516 m 180 746 q 219 629 180 673 q 314 586 258 586 q 408 629 369 586 q 446 739 446 671 q 407 853 446 809 q 313 898 367 898 q 219 854 258 898 q 180 746 180 811 m 147 287 q 196 139 147 195 q 314 83 245 83 q 431 138 383 83 q 479 283 479 192 q 430 430 479 374 q 311 486 380 486 q 195 431 243 486 q 147 287 147 375 z "},"9":{"ha":633,"x_min":45,"x_max":582,"o":"m 60 230 l 157 241 q 292 83 180 83 q 384 118 342 83 q 453 239 425 152 q 481 444 481 327 l 481 468 q 397 372 450 408 q 290 337 345 337 q 118 424 190 337 q 45 663 45 511 q 120 908 45 819 q 302 998 195 998 q 444 948 378 998 q 546 800 510 898 q 582 519 582 703 q 543 201 582 314 q 438 35 505 87 q 290 -17 372 -17 q 135 46 197 -17 q 60 230 73 110 m 471 669 q 423 836 471 775 q 314 897 376 897 q 199 832 250 897 q 149 659 149 767 q 197 503 149 561 q 312 445 245 445 q 425 503 378 445 q 471 669 471 562 z "}," ":{"ha":317,"x_min":0,"x_max":0,"o":""},"!":{"ha":317,"x_min":100,"x_max":224,"o":"m 131 247 l 100 774 l 100 994 l 224 994 l 224 774 l 196 247 l 131 247 m 105 0 l 105 139 l 220 139 l 220 0 l 105 0 z "},"\"":{"ha":404,"x_min":52,"x_max":351,"o":"m 79 642 l 52 831 l 52 994 l 165 994 l 165 831 l 140 642 l 79 642 m 263 642 l 237 831 l 237 994 l 351 994 l 351 831 l 323 642 l 263 642 z "},"#":{"ha":633,"x_min":10,"x_max":618,"o":"m 56 -17 l 104 272 l 10 272 l 10 373 l 121 373 l 162 619 l 10 619 l 10 720 l 178 720 l 227 1011 l 311 1011 l 262 720 l 437 720 l 486 1011 l 570 1011 l 521 720 l 618 720 l 618 619 l 505 619 l 463 373 l 618 373 l 618 272 l 446 272 l 398 -17 l 314 -17 l 362 272 l 187 272 l 139 -17 l 56 -17 m 204 373 l 379 373 l 420 619 l 245 619 l 204 373 z "},"$":{"ha":633,"x_min":39,"x_max":578,"o":"m 281 -143 l 281 -21 q 153 25 200 -8 q 75 121 106 58 q 39 276 44 185 l 140 299 q 192 139 153 189 q 281 82 231 88 l 281 471 q 150 533 215 486 q 81 620 106 564 q 56 751 56 676 q 85 890 56 827 q 159 985 113 953 q 281 1027 205 1018 l 281 1086 l 341 1086 l 341 1027 q 447 991 404 1020 q 519 911 490 963 q 558 783 549 859 l 455 764 q 341 924 438 900 l 341 572 q 429 542 410 551 q 507 486 474 521 q 559 400 540 452 q 578 283 578 348 q 510 68 578 151 q 341 -20 441 -14 l 341 -143 l 281 -143 m 281 926 q 190 870 224 915 q 156 755 156 825 q 281 588 156 635 l 281 926 m 341 82 q 436 142 397 91 q 475 277 475 193 q 447 384 475 344 q 341 454 418 424 l 341 82 z "},"%":{"ha":1013,"x_min":64,"x_max":940,"o":"m 64 755 q 113 945 64 880 q 235 1011 163 1011 q 361 945 309 1011 q 412 749 412 880 q 361 553 412 621 q 236 486 309 486 q 114 552 164 486 q 64 755 64 619 m 238 927 q 176 887 201 927 q 151 748 151 848 q 176 609 151 648 q 240 570 201 570 q 301 609 276 570 q 326 748 326 649 q 300 887 326 847 q 238 927 275 927 m 238 -37 l 684 1011 l 766 1011 l 321 -37 l 238 -37 m 591 233 q 641 423 591 357 q 762 489 690 489 q 888 424 837 489 q 940 227 940 358 q 888 31 940 98 q 764 -37 836 -37 q 642 31 692 -37 q 591 233 591 98 m 766 405 q 703 365 728 405 q 678 226 678 326 q 703 87 678 126 q 768 47 728 47 q 828 87 803 47 q 852 227 852 127 q 828 365 852 326 q 766 405 803 405 z "},"&":{"ha":760,"x_min":50,"x_max":734,"o":"m 542 117 q 309 -17 443 -17 q 118 74 187 -17 q 50 275 50 165 q 243 571 50 458 q 171 695 190 646 q 152 789 152 743 q 211 947 152 884 q 354 1011 271 1011 q 489 951 434 1011 q 544 799 544 891 q 390 557 544 657 l 536 330 q 575 468 560 388 l 679 441 q 607 227 652 312 q 734 74 662 137 l 667 -23 q 542 117 606 25 m 338 635 q 421 715 401 681 q 441 795 441 750 q 414 880 441 848 q 349 911 387 911 q 282 880 311 911 q 254 801 254 850 q 294 699 254 754 l 338 635 m 479 214 l 296 491 q 188 385 218 435 q 157 282 157 335 q 199 153 157 214 q 309 91 241 91 q 401 124 353 91 q 479 214 449 157 z "},"'":{"ha":218,"x_min":48,"x_max":162,"o":"m 74 642 l 48 828 l 48 994 l 162 994 l 162 828 l 136 642 l 74 642 z "},"(":{"ha":379,"x_min":68,"x_max":338,"o":"m 266 -292 q 130 -5 191 -176 q 68 361 68 166 q 266 1011 68 690 l 338 1011 q 233 764 262 852 q 188 571 204 676 q 171 359 171 466 q 338 -292 171 34 l 266 -292 z "},")":{"ha":379,"x_min":41,"x_max":311,"o":"m 113 -292 l 41 -292 q 208 359 208 34 q 191 571 208 466 q 146 764 174 676 q 41 1011 117 852 l 113 1011 q 311 361 311 690 q 252 1 311 172 q 113 -292 193 -170 z "},"*":{"ha":443,"x_min":34,"x_max":401,"o":"m 34 812 l 60 908 q 188 842 148 870 q 177 1011 178 967 l 258 1011 q 245 843 256 946 q 376 908 301 878 l 401 812 q 263 774 330 783 q 359 646 297 738 l 292 588 q 216 734 261 640 q 143 588 174 638 l 78 646 q 170 774 139 739 q 34 812 98 791 z "},"+":{"ha":665,"x_min":62,"x_max":601,"o":"m 284 161 l 284 433 l 62 433 l 62 547 l 284 547 l 284 818 l 379 818 l 379 547 l 601 547 l 601 433 l 379 433 l 379 161 l 284 161 z "},",":{"ha":317,"x_min":96,"x_max":217,"o":"m 103 0 l 103 139 l 217 139 l 217 0 q 193 -126 217 -81 q 124 -197 170 -172 l 96 -144 q 142 -96 127 -128 q 159 0 158 -64 l 103 0 z "},"-":{"ha":379,"x_min":36,"x_max":343,"o":"m 36 298 l 36 421 l 343 421 l 343 298 l 36 298 z "},".":{"ha":317,"x_min":105,"x_max":219,"o":"m 105 0 l 105 139 l 219 139 l 219 0 l 105 0 z "},"/":{"ha":317,"x_min":0,"x_max":317,"o":"m 0 -17 l 236 1011 l 317 1011 l 80 -17 l 0 -17 z "},":":{"ha":317,"x_min":105,"x_max":219,"o":"m 105 581 l 105 720 l 219 720 l 219 581 l 105 581 m 105 0 l 105 139 l 219 139 l 219 0 l 105 0 z "},";":{"ha":317,"x_min":96,"x_max":217,"o":"m 103 581 l 103 720 l 217 720 l 217 581 l 103 581 m 103 0 l 103 139 l 217 139 l 217 0 q 193 -126 217 -81 q 124 -197 170 -172 l 96 -144 q 142 -96 127 -128 q 159 0 158 -64 l 103 0 z "},"<":{"ha":665,"x_min":61,"x_max":601,"o":"m 61 435 l 61 549 l 601 827 l 601 705 l 173 491 l 601 275 l 601 153 l 61 435 z "},"=":{"ha":665,"x_min":62,"x_max":601,"o":"m 601 585 l 62 585 l 62 699 l 601 699 l 601 585 m 601 283 l 62 283 l 62 397 l 601 397 l 601 283 z "},">":{"ha":665,"x_min":61,"x_max":601,"o":"m 601 435 l 61 153 l 61 275 l 489 491 l 61 705 l 61 827 l 601 549 l 601 435 z "},"?":{"ha":633,"x_min":48,"x_max":574,"o":"m 261 245 l 260 281 q 293 446 260 380 q 390 572 316 492 q 456 659 440 625 q 471 732 471 692 q 424 859 471 806 q 315 911 376 911 q 208 863 252 911 q 151 709 164 814 l 48 724 q 133 940 63 868 q 314 1011 203 1011 q 499 935 425 1011 q 574 740 574 859 q 549 621 574 675 q 452 486 525 566 q 374 380 389 419 q 357 245 359 341 l 261 245 m 254 0 l 254 139 l 368 139 l 368 0 l 254 0 z "},"@":{"ha":1156,"x_min":60,"x_max":1114,"o":"m 644 111 q 560 26 605 55 q 476 -2 515 -2 q 339 72 395 -2 q 272 302 272 161 q 320 525 272 416 q 434 684 368 633 q 563 735 500 735 q 653 704 609 735 q 729 610 697 673 l 747 715 l 848 715 l 767 260 q 751 155 751 166 q 762 123 751 136 q 789 111 774 111 q 874 158 819 111 q 966 296 929 205 q 1004 488 1004 387 q 951 706 1004 608 q 807 859 899 804 q 608 913 715 913 q 376 844 479 913 q 207 638 272 775 q 142 326 142 502 q 201 45 142 161 q 367 -132 259 -71 q 624 -192 475 -192 q 859 -136 758 -192 q 1013 13 960 -80 l 1114 13 q 1004 -144 1080 -69 q 836 -256 928 -219 q 623 -292 743 -292 q 325 -222 448 -292 q 131 -14 202 -151 q 60 317 60 123 q 138 689 60 522 q 335 934 216 856 q 613 1013 454 1013 q 852 947 746 1013 q 1022 759 958 882 q 1086 485 1086 635 q 968 127 1086 281 q 751 -3 869 -3 q 672 25 696 -3 q 644 111 649 52 m 375 294 q 412 150 375 201 q 495 98 449 98 q 582 138 534 98 q 663 262 629 178 q 697 439 697 346 q 659 584 697 534 q 568 634 621 634 q 485 599 526 634 q 409 473 443 564 q 375 294 375 382 z "},"A":{"ha":760,"x_min":-1,"x_max":762,"o":"m -1 0 l 312 994 l 428 994 l 762 0 l 638 0 l 543 301 l 203 301 l 113 0 l -1 0 m 234 408 l 510 408 l 425 684 q 368 890 386 810 q 323 700 352 794 l 234 408 z "},"B":{"ha":760,"x_min":84,"x_max":700,"o":"m 84 0 l 84 994 l 390 994 q 537 965 483 994 q 626 876 591 937 q 661 741 661 814 q 631 617 661 672 q 547 529 601 562 q 659 441 618 503 q 700 288 700 379 q 663 130 700 198 q 564 31 626 62 q 395 0 503 0 l 84 0 m 192 576 l 368 576 q 467 586 437 576 q 531 634 509 600 q 554 725 554 667 q 533 814 554 779 q 478 863 513 850 q 355 877 444 877 l 192 877 l 192 576 m 192 117 l 395 117 q 494 130 462 117 q 564 188 540 147 q 588 289 588 228 q 565 384 588 345 q 503 441 542 423 q 380 459 464 459 l 192 459 l 192 117 z "},"C":{"ha":822,"x_min":54,"x_max":775,"o":"m 667 349 l 775 315 q 649 65 739 148 q 431 -17 559 -17 q 237 38 317 -17 q 105 216 157 94 q 54 504 54 338 q 105 782 54 668 q 244 953 157 895 q 439 1011 332 1011 q 642 938 557 1011 q 761 722 727 864 l 655 691 q 437 899 601 899 q 296 857 356 899 q 201 727 237 815 q 165 504 165 639 q 237 198 165 300 q 429 96 309 96 q 581 158 517 96 q 667 349 645 221 z "},"D":{"ha":822,"x_min":85,"x_max":760,"o":"m 85 0 l 85 994 l 367 994 q 526 976 471 994 q 649 889 597 952 q 730 730 701 826 q 760 503 760 634 q 710 216 760 334 q 583 49 661 98 q 380 0 505 0 l 85 0 m 193 117 l 367 117 q 526 152 472 117 q 610 262 581 186 q 648 504 648 363 q 607 742 648 655 q 502 857 566 828 q 364 877 458 877 l 193 877 l 193 117 z "},"E":{"ha":760,"x_min":90,"x_max":699,"o":"m 90 0 l 90 994 l 680 994 l 680 877 l 198 877 l 198 572 l 649 572 l 649 456 l 198 456 l 198 117 l 699 117 l 699 0 l 90 0 z "},"F":{"ha":696,"x_min":96,"x_max":646,"o":"m 96 0 l 96 994 l 646 994 l 646 877 l 203 877 l 203 569 l 586 569 l 586 452 l 203 452 l 203 0 l 96 0 z "},"G":{"ha":886,"x_min":63,"x_max":817,"o":"m 472 390 l 472 507 l 817 507 l 817 138 q 653 22 738 61 q 479 -17 568 -17 q 266 43 359 -17 q 118 217 172 102 q 63 492 63 332 q 118 776 63 655 q 262 954 173 897 q 472 1011 351 1011 q 629 978 562 1011 q 739 884 696 945 q 804 716 783 823 l 707 684 q 658 809 688 768 q 579 875 628 851 q 469 899 530 899 q 316 856 380 899 q 213 722 252 812 q 174 500 174 631 q 258 201 174 300 q 475 102 341 102 q 605 132 538 102 q 711 205 672 163 l 711 390 l 472 390 z "},"H":{"ha":822,"x_min":87,"x_max":727,"o":"m 87 0 l 87 994 l 195 994 l 195 586 l 619 586 l 619 994 l 727 994 l 727 0 l 619 0 l 619 469 l 195 469 l 195 0 l 87 0 z "},"I":{"ha":317,"x_min":109,"x_max":216,"o":"m 109 0 l 109 994 l 216 994 l 216 0 l 109 0 z "},"J":{"ha":570,"x_min":31,"x_max":479,"o":"m 31 282 l 127 298 q 163 142 132 184 q 249 100 194 100 q 317 122 288 100 q 357 176 347 143 q 371 309 371 220 l 371 994 l 479 994 l 479 317 q 419 58 479 134 q 250 -17 359 -17 q 91 51 143 -17 q 31 282 31 128 z "},"K":{"ha":760,"x_min":84,"x_max":758,"o":"m 84 0 l 84 994 l 192 994 l 192 501 l 597 994 l 743 994 l 401 591 l 758 0 l 616 0 l 326 503 l 192 345 l 192 0 l 84 0 z "},"L":{"ha":633,"x_min":81,"x_max":591,"o":"m 81 0 l 81 994 l 189 994 l 189 117 l 591 117 l 591 0 l 81 0 z "},"M":{"ha":949,"x_min":85,"x_max":863,"o":"m 85 0 l 85 994 l 247 994 l 440 290 l 479 143 q 522 302 493 198 l 718 994 l 863 994 l 863 0 l 759 0 l 759 832 l 522 0 l 425 0 l 189 846 l 189 0 l 85 0 z "},"N":{"ha":822,"x_min":85,"x_max":727,"o":"m 85 0 l 85 994 l 195 994 l 624 214 l 624 994 l 727 994 l 727 0 l 616 0 l 189 781 l 189 0 l 85 0 z "},"O":{"ha":886,"x_min":58,"x_max":838,"o":"m 58 484 q 170 875 58 739 q 448 1012 281 1012 q 645 951 556 1012 q 786 773 734 890 q 838 496 838 657 q 737 136 838 275 q 448 -17 627 -17 q 157 140 267 -17 q 58 484 58 283 m 169 482 q 250 197 169 298 q 447 96 331 96 q 646 198 566 96 q 726 499 726 300 q 685 728 726 627 q 589 852 653 806 q 449 899 525 899 q 248 797 327 899 q 169 482 169 695 z "},"P":{"ha":760,"x_min":88,"x_max":710,"o":"m 88 0 l 88 994 l 395 994 q 555 975 504 994 q 668 880 626 949 q 710 708 710 810 q 642 489 710 574 q 405 404 573 404 l 196 404 l 196 0 l 88 0 m 196 522 l 407 522 q 553 567 507 522 q 599 703 599 612 q 576 804 599 762 q 521 861 553 846 q 405 877 489 877 l 196 877 l 196 522 z "},"Q":{"ha":886,"x_min":52,"x_max":847,"o":"m 709 106 q 847 14 784 43 l 815 -77 q 640 45 726 -38 q 441 -17 550 -17 q 151 140 262 -17 q 52 496 52 281 q 105 776 52 658 q 246 953 159 895 q 442 1012 333 1012 q 638 951 550 1012 q 779 774 727 890 q 831 499 831 658 q 799 275 831 375 q 709 106 767 174 m 471 275 q 625 180 564 243 q 720 499 720 287 q 683 717 720 627 q 583 852 647 806 q 443 899 519 899 q 242 797 322 899 q 163 496 163 696 q 243 198 163 300 q 443 96 324 96 q 551 122 500 96 q 444 179 501 162 l 471 275 z "},"R":{"ha":822,"x_min":87,"x_max":806,"o":"m 87 0 l 87 994 l 449 994 q 616 966 562 994 q 705 874 670 939 q 739 724 739 809 q 681 541 739 611 q 510 452 622 471 q 579 397 555 425 q 664 271 627 340 l 806 0 l 671 0 l 562 207 q 467 370 499 328 q 405 427 435 412 q 320 441 374 441 l 195 441 l 195 0 l 87 0 m 195 555 l 427 555 q 543 574 503 555 q 605 631 582 592 q 628 723 628 671 q 584 841 628 798 q 453 884 540 884 l 195 884 l 195 555 z "},"S":{"ha":760,"x_min":52,"x_max":701,"o":"m 52 319 l 153 330 q 190 202 161 248 q 273 129 219 157 q 393 101 326 101 q 543 148 490 101 q 596 271 596 195 q 577 348 596 315 q 518 401 557 380 q 350 460 479 422 q 186 529 235 494 q 110 617 137 564 q 83 737 83 670 q 161 935 83 858 q 371 1011 239 1011 q 530 975 462 1011 q 636 872 598 939 q 676 714 673 805 l 572 705 q 514 848 564 802 q 374 895 465 895 q 235 854 283 895 q 186 748 186 813 q 222 654 186 688 q 380 587 257 621 q 550 530 501 554 q 663 430 625 492 q 701 281 701 368 q 661 126 701 196 q 552 19 621 56 q 386 -18 483 -18 q 145 73 235 -18 q 52 319 55 164 z "},"T":{"ha":696,"x_min":28,"x_max":675,"o":"m 297 0 l 297 877 l 28 877 l 28 994 l 675 994 l 675 877 l 405 877 l 405 0 l 297 0 z "},"U":{"ha":822,"x_min":87,"x_max":729,"o":"m 621 994 l 729 994 l 729 420 q 701 183 729 275 q 598 37 673 90 q 410 -17 524 -17 q 168 79 248 -17 q 87 420 87 176 l 87 994 l 195 994 l 195 420 q 216 225 195 286 q 285 133 237 165 q 401 102 333 102 q 569 167 517 102 q 621 420 621 232 l 621 994 z "},"V":{"ha":760,"x_min":5,"x_max":751,"o":"m 321 0 l 5 994 l 122 994 l 334 272 q 377 109 359 188 q 420 272 396 191 l 641 994 l 751 994 l 432 0 l 321 0 z "},"W":{"ha":1075,"x_min":16,"x_max":1064,"o":"m 232 0 l 16 994 l 126 994 l 250 342 q 285 139 270 242 l 321 323 l 477 994 l 607 994 l 724 491 q 787 139 766 307 q 827 355 803 236 l 956 994 l 1064 994 l 840 0 l 736 0 l 564 758 l 538 874 q 515 758 527 809 l 342 0 l 232 0 z "},"X":{"ha":760,"x_min":5,"x_max":753,"o":"m 5 0 l 321 518 l 43 994 l 171 994 l 319 739 q 385 617 365 661 q 449 730 411 670 l 614 994 l 730 994 l 444 526 l 753 0 l 620 0 l 414 355 q 379 421 397 385 q 340 347 351 367 l 135 0 l 5 0 z "},"Y":{"ha":760,"x_min":3,"x_max":751,"o":"m 317 0 l 317 421 l 3 994 l 135 994 l 295 694 q 378 526 342 606 q 467 702 414 604 l 625 994 l 751 994 l 425 421 l 425 0 l 317 0 z "},"Z":{"ha":696,"x_min":24,"x_max":669,"o":"m 24 0 l 24 122 l 442 759 q 527 877 486 825 l 71 877 l 71 994 l 655 994 l 655 877 l 198 187 l 149 117 l 669 117 l 669 0 l 24 0 z "},"[":{"ha":317,"x_min":79,"x_max":300,"o":"m 79 -276 l 79 994 l 300 994 l 300 893 l 179 893 l 179 -175 l 300 -175 l 300 -276 l 79 -276 z "},"\\":{"ha":317,"x_min":0,"x_max":317,"o":"m 236 -17 l 0 1011 l 81 1011 l 317 -17 l 236 -17 z "},"]":{"ha":317,"x_min":24,"x_max":245,"o":"m 245 -276 l 24 -276 l 24 -175 l 145 -175 l 145 893 l 24 893 l 24 994 l 245 994 l 245 -276 z "},"^":{"ha":534,"x_min":31,"x_max":505,"o":"m 133 468 l 31 468 l 227 1011 l 308 1011 l 505 468 l 404 468 l 267 873 l 133 468 z "},"_":{"ha":633,"x_min":-8,"x_max":640,"o":"m -8 -104 l 640 -104 l 640 -174 l -8 -174 l -8 -104 z "},"`":{"ha":379,"x_min":50,"x_max":258,"o":"m 258 810 l 178 810 l 50 1000 l 184 1000 l 258 810 z "},"a":{"ha":633,"x_min":39,"x_max":583,"o":"m 458 89 q 354 10 408 37 q 241 -16 300 -16 q 94 39 149 -16 q 39 189 39 95 q 65 300 39 252 q 136 375 91 348 q 271 415 180 402 q 450 457 393 433 l 451 488 q 425 592 451 562 q 310 635 387 635 q 205 607 240 635 q 155 498 171 578 l 56 515 q 141 684 77 631 q 325 736 205 736 q 471 702 418 736 q 537 615 524 667 q 551 465 551 564 l 551 302 q 558 86 551 131 q 583 0 564 42 l 479 0 q 458 89 463 37 m 450 361 q 287 315 395 334 q 199 291 224 304 q 160 251 174 277 q 146 193 146 226 q 178 110 146 141 q 266 79 210 79 q 363 107 319 79 q 429 181 407 135 q 450 317 450 228 l 450 361 z "},"b":{"ha":633,"x_min":73,"x_max":585,"o":"m 165 0 l 73 0 l 73 994 l 172 994 l 172 640 q 244 712 204 688 q 334 736 285 736 q 460 695 404 736 q 551 570 517 654 q 585 366 585 486 q 508 83 585 182 q 329 -16 431 -16 q 236 11 277 -16 q 165 90 195 37 l 165 0 m 164 366 q 184 198 164 254 q 242 113 205 142 q 325 84 279 84 q 434 154 387 84 q 482 361 482 223 q 436 570 482 503 q 323 636 390 636 q 213 567 261 636 q 164 366 164 497 z "},"c":{"ha":570,"x_min":44,"x_max":559,"o":"m 460 264 l 559 248 q 474 52 542 119 q 310 -16 406 -16 q 119 79 194 -16 q 44 361 44 174 q 120 643 44 549 q 314 736 195 736 q 468 680 406 736 q 549 509 531 623 l 452 490 q 402 600 437 564 q 317 636 367 636 q 195 571 243 636 q 146 363 146 505 q 193 150 146 216 q 312 84 239 84 q 409 128 369 84 q 460 264 450 172 z "},"d":{"ha":633,"x_min":37,"x_max":550,"o":"m 456 0 l 456 91 q 387 11 429 39 q 294 -16 344 -16 q 114 82 190 -16 q 37 360 37 181 q 71 568 37 483 q 162 695 105 654 q 288 736 218 736 q 379 710 337 736 q 450 637 422 684 l 450 994 l 550 994 l 550 0 l 456 0 m 140 359 q 188 152 140 220 q 301 84 237 84 q 412 149 365 84 q 458 346 458 214 q 412 567 458 497 q 294 636 365 636 q 185 569 231 636 q 140 359 140 503 z "},"e":{"ha":633,"x_min":39,"x_max":584,"o":"m 477 232 l 581 216 q 487 42 555 101 q 320 -16 420 -16 q 117 79 195 -16 q 39 354 39 174 q 118 638 39 541 q 316 736 196 736 q 507 640 431 736 q 584 361 584 544 l 583 329 l 142 329 q 199 146 149 208 q 321 84 249 84 q 477 232 433 84 m 149 429 l 478 429 q 438 569 471 523 q 315 636 390 636 q 201 580 248 636 q 149 429 153 524 z "},"f":{"ha":317,"x_min":13,"x_max":358,"o":"m 102 0 l 102 625 l 13 625 l 13 720 l 102 720 l 102 797 q 119 924 102 882 q 173 989 137 966 q 264 1011 210 1011 q 358 999 307 1011 l 343 892 q 284 899 312 899 q 220 876 239 899 q 201 787 201 852 l 201 720 l 316 720 l 316 625 l 201 625 l 201 0 l 102 0 z "},"g":{"ha":633,"x_min":35,"x_max":555,"o":"m 54 -60 l 152 -77 q 193 -163 159 -135 q 287 -191 227 -191 q 392 -160 353 -191 q 445 -66 431 -128 q 454 94 454 -28 q 380 24 421 47 q 290 0 340 0 q 115 90 184 0 q 35 366 35 193 q 70 568 35 481 q 162 696 105 655 q 291 736 220 736 q 386 711 343 736 q 463 633 429 685 l 463 720 l 555 720 l 555 98 q 528 -139 555 -68 q 439 -251 500 -210 q 290 -292 377 -292 q 114 -231 176 -292 q 54 -60 52 -169 m 138 373 q 184 166 138 231 q 299 101 231 101 q 414 165 367 101 q 462 368 462 229 q 413 569 462 503 q 294 635 364 635 q 185 569 232 635 q 138 373 138 503 z "},"h":{"ha":633,"x_min":73,"x_max":554,"o":"m 73 0 l 73 994 l 173 994 l 173 637 q 253 712 208 687 q 351 736 297 736 q 499 676 445 736 q 554 456 554 616 l 554 0 l 454 0 l 454 456 q 421 591 454 550 q 330 631 388 631 q 219 579 264 631 q 173 394 173 527 l 173 0 l 73 0 z "},"i":{"ha":253,"x_min":73,"x_max":173,"o":"m 73 854 l 73 994 l 173 994 l 173 854 l 73 854 m 73 0 l 73 720 l 173 720 l 173 0 l 73 0 z "},"j":{"ha":253,"x_min":-54,"x_max":172,"o":"m 73 852 l 73 994 l 172 994 l 172 852 l 73 852 m -54 -279 l -35 -176 q 12 -185 -5 -185 q 58 -160 43 -185 q 73 -37 73 -135 l 73 720 l 172 720 l 172 -39 q 135 -239 172 -186 q 24 -292 97 -292 q -54 -279 -16 -292 z "},"k":{"ha":570,"x_min":76,"x_max":565,"o":"m 76 0 l 76 994 l 176 994 l 176 427 l 413 720 l 543 720 l 317 453 l 565 0 l 442 0 l 246 368 l 176 286 l 176 0 l 76 0 z "},"l":{"ha":253,"x_min":71,"x_max":170,"o":"m 71 0 l 71 994 l 170 994 l 170 0 l 71 0 z "},"m":{"ha":949,"x_min":75,"x_max":875,"o":"m 75 0 l 75 720 l 164 720 l 164 619 q 241 706 194 675 q 343 736 288 736 q 449 704 406 736 q 510 610 492 672 q 591 705 545 673 q 692 736 637 736 q 826 679 777 736 q 875 494 875 621 l 875 0 l 775 0 l 775 454 q 764 563 775 531 q 728 613 753 595 q 671 631 703 631 q 566 579 607 631 q 526 418 526 528 l 526 0 l 425 0 l 425 468 q 398 594 425 557 q 322 631 370 631 q 214 575 254 631 q 174 374 174 520 l 174 0 l 75 0 z "},"n":{"ha":633,"x_min":73,"x_max":553,"o":"m 73 0 l 73 720 l 163 720 l 163 618 q 243 707 196 677 q 351 736 290 736 q 439 718 399 736 q 504 669 479 699 q 541 591 529 639 q 553 443 553 543 l 553 0 l 453 0 l 453 438 q 439 554 453 517 q 397 611 426 591 q 330 631 368 631 q 216 577 258 631 q 173 393 173 524 l 173 0 l 73 0 z "},"o":{"ha":633,"x_min":36,"x_max":589,"o":"m 36 360 q 114 642 36 547 q 313 736 193 736 q 510 642 431 736 q 589 368 589 547 q 511 79 589 174 q 313 -16 433 -16 q 115 79 194 -16 q 36 360 36 174 m 138 360 q 189 152 138 220 q 315 84 240 84 q 436 153 386 84 q 487 360 487 222 q 436 567 487 499 q 310 635 385 635 q 189 567 239 635 q 138 360 138 498 z "},"p":{"ha":633,"x_min":73,"x_max":586,"o":"m 73 -276 l 73 720 l 165 720 l 165 627 q 240 711 199 685 q 335 736 281 736 q 461 695 405 736 q 552 569 517 654 q 586 366 586 485 q 509 83 586 182 q 328 -16 432 -16 q 242 7 282 -16 q 173 75 202 31 l 173 -276 l 73 -276 m 163 356 q 210 150 163 216 q 323 84 257 84 q 435 153 387 84 q 484 364 484 221 q 437 573 484 505 q 323 641 390 641 q 213 568 262 641 q 163 356 163 495 z "},"q":{"ha":633,"x_min":38,"x_max":549,"o":"m 450 -276 l 450 77 q 384 9 426 35 q 298 -16 341 -16 q 115 84 193 -16 q 38 367 38 184 q 103 631 38 526 q 288 736 168 736 q 385 708 342 736 q 459 624 428 680 l 459 720 l 549 720 l 549 -276 l 450 -276 m 140 362 q 189 153 140 222 q 306 84 238 84 q 413 150 366 84 q 460 347 460 216 q 411 568 460 496 q 294 640 361 640 q 186 573 232 640 q 140 362 140 505 z "},"r":{"ha":379,"x_min":73,"x_max":394,"o":"m 73 0 l 73 720 l 163 720 l 163 611 q 227 712 198 687 q 292 736 256 736 q 394 697 342 736 l 360 584 q 288 610 323 610 q 229 588 256 610 q 192 526 203 566 q 173 377 173 456 l 173 0 l 73 0 z "},"s":{"ha":570,"x_min":35,"x_max":526,"o":"m 35 215 l 134 234 q 182 121 143 158 q 287 84 222 84 q 388 116 352 84 q 423 198 423 149 q 393 264 423 241 q 291 305 372 281 q 135 366 174 341 q 74 433 96 391 q 52 529 52 475 q 111 679 52 621 q 275 736 170 736 q 390 713 340 736 q 467 649 440 689 q 503 534 493 609 l 406 518 q 277 636 392 636 q 180 610 212 636 q 149 543 149 584 q 179 480 149 503 q 288 437 197 467 q 448 373 412 397 q 505 310 485 350 q 526 214 526 269 q 460 47 526 111 q 281 -17 395 -17 q 35 215 69 -17 z "},"t":{"ha":317,"x_min":22,"x_max":310,"o":"m 296 109 l 310 1 q 235 -9 269 -9 q 151 11 183 -9 q 107 68 119 32 q 96 211 96 104 l 96 625 l 22 625 l 22 720 l 96 720 l 96 899 l 195 972 l 195 720 l 296 720 l 296 625 l 195 625 l 195 204 q 204 129 195 146 q 252 104 217 104 q 296 109 269 104 z "},"u":{"ha":633,"x_min":71,"x_max":550,"o":"m 460 0 l 460 106 q 379 14 426 45 q 273 -16 332 -16 q 154 21 203 -16 q 88 117 104 59 q 71 274 71 174 l 71 720 l 171 720 l 171 321 q 182 172 171 210 q 223 112 193 134 q 292 89 254 89 q 410 148 364 89 q 450 334 450 199 l 450 720 l 550 720 l 550 0 l 460 0 z "},"v":{"ha":570,"x_min":14,"x_max":556,"o":"m 239 0 l 14 720 l 120 720 l 247 289 q 285 144 269 216 q 321 281 298 201 l 453 720 l 556 720 l 332 0 l 239 0 z "},"w":{"ha":822,"x_min":1,"x_max":812,"o":"m 182 0 l 1 720 l 105 720 l 199 304 l 233 150 l 264 298 l 358 720 l 461 720 l 549 302 l 579 165 l 613 304 l 714 720 l 812 720 l 627 0 l 523 0 l 429 431 l 406 554 l 287 0 l 182 0 z "},"x":{"ha":570,"x_min":8,"x_max":561,"o":"m 8 0 l 224 374 l 24 720 l 149 720 l 240 551 q 281 471 265 505 q 326 550 307 517 l 426 720 l 545 720 l 341 381 l 561 0 l 438 0 l 317 224 l 285 284 l 130 0 l 8 0 z "},"y":{"ha":570,"x_min":18,"x_max":559,"o":"m 71 -277 l 60 -163 q 117 -174 93 -174 q 169 -161 149 -174 q 203 -121 190 -148 q 243 -1 208 -111 l 18 720 l 126 720 l 250 303 q 292 136 273 225 q 333 300 309 220 l 459 720 l 559 720 l 335 -12 q 266 -202 291 -155 q 208 -271 240 -250 q 135 -292 176 -292 q 71 -277 106 -292 z "},"z":{"ha":570,"x_min":22,"x_max":545,"o":"m 22 0 l 22 99 l 399 625 q 286 621 334 621 l 45 621 l 45 720 l 528 720 l 528 640 l 208 182 l 146 99 q 272 105 213 105 l 545 105 l 545 0 l 22 0 z "},"{":{"ha":380,"x_min":31,"x_max":353,"o":"m 31 415 q 96 439 69 416 q 135 507 123 463 q 146 677 146 551 q 151 842 147 801 q 185 951 159 907 q 236 997 204 983 q 322 1011 268 1011 l 353 1011 l 353 905 l 336 905 q 259 880 279 905 q 240 766 240 855 q 232 528 240 578 q 197 424 221 460 q 124 359 172 388 q 212 266 183 329 q 240 54 240 203 q 245 -121 240 -96 q 270 -171 252 -157 q 336 -186 288 -186 l 353 -186 l 353 -292 l 322 -292 q 235 -278 264 -292 q 187 -235 205 -263 q 155 -146 162 -197 q 146 41 147 -96 q 134 213 146 168 q 96 280 123 258 q 31 304 70 303 l 31 415 z "},"|":{"ha":296,"x_min":106,"x_max":193,"o":"m 106 -292 l 106 1011 l 193 1011 l 193 -292 l 106 -292 z "},"}":{"ha":380,"x_min":25,"x_max":347,"o":"m 347 415 l 347 304 q 282 280 309 303 q 244 212 255 257 q 232 41 233 167 q 227 -121 231 -81 q 193 -231 220 -187 q 142 -278 174 -264 q 56 -292 111 -292 l 25 -292 l 25 -186 l 43 -186 q 118 -161 99 -186 q 138 -46 138 -136 q 146 193 138 142 q 185 299 158 260 q 254 359 212 338 q 164 458 191 397 q 138 665 138 519 q 134 840 138 814 q 109 890 127 876 q 43 905 90 905 l 25 905 l 25 1011 l 56 1011 q 144 997 115 1011 q 191 954 173 982 q 224 865 216 916 q 232 677 231 814 q 244 507 233 552 q 282 438 256 461 q 347 415 309 416 z "},"~":{"ha":665,"x_min":49,"x_max":618,"o":"m 49 378 l 49 517 q 203 598 108 598 q 272 587 235 598 q 378 539 309 575 q 474 507 439 507 q 538 526 507 507 q 618 600 583 554 l 618 456 q 464 379 549 379 q 401 388 431 379 q 311 430 372 397 q 194 470 238 470 q 128 452 160 470 q 49 378 96 433 z "},"Ä":{"ha":760,"x_min":-1,"x_max":762,"o":"m -1 0 l 312 994 l 428 994 l 762 0 l 638 0 l 543 301 l 203 301 l 113 0 l -1 0 m 234 408 l 510 408 l 425 684 q 368 890 386 810 q 323 700 352 794 l 234 408 m 210 1114 l 210 1253 l 315 1253 l 315 1114 l 210 1114 m 418 1114 l 418 1253 l 522 1253 l 522 1114 l 418 1114 z "},"Å":{"ha":760,"x_min":-1,"x_max":762,"o":"m -1 0 l 312 994 l 428 994 l 762 0 l 638 0 l 543 301 l 203 301 l 113 0 l -1 0 m 234 408 l 510 408 l 425 684 q 368 890 386 810 q 323 700 352 794 l 234 408 m 281 1159 q 311 1245 281 1210 q 381 1280 341 1280 q 451 1245 420 1280 q 481 1156 481 1210 q 451 1067 481 1102 q 381 1032 421 1032 q 311 1067 341 1032 q 281 1159 281 1103 m 323 1158 q 341 1104 323 1125 q 382 1083 359 1083 q 423 1104 405 1083 q 441 1157 441 1125 q 423 1210 441 1189 q 382 1231 406 1231 q 341 1210 359 1231 q 323 1158 323 1189 z "},"Ç":{"ha":822,"x_min":54,"x_max":775,"o":"m 667 349 l 775 315 q 649 65 739 148 q 431 -17 559 -17 q 237 38 317 -17 q 105 216 157 94 q 54 504 54 338 q 105 782 54 668 q 244 953 157 895 q 439 1011 332 1011 q 642 938 557 1011 q 761 722 727 864 l 655 691 q 437 899 601 899 q 296 857 356 899 q 201 727 237 815 q 165 504 165 639 q 237 198 165 300 q 429 96 309 96 q 581 158 517 96 q 667 349 645 221 m 344 -104 l 373 16 l 448 16 l 429 -57 q 499 -92 475 -64 q 524 -159 524 -119 q 482 -249 524 -212 q 366 -286 439 -286 q 283 -277 318 -286 l 290 -198 q 345 -201 326 -201 q 411 -186 390 -201 q 431 -150 431 -172 q 413 -117 431 -129 q 344 -104 394 -105 z "},"É":{"ha":760,"x_min":90,"x_max":699,"o":"m 90 0 l 90 994 l 680 994 l 680 877 l 198 877 l 198 572 l 649 572 l 649 456 l 198 456 l 198 117 l 699 117 l 699 0 l 90 0 m 313 1062 l 387 1252 l 518 1252 l 396 1062 l 313 1062 z "},"Ñ":{"ha":822,"x_min":85,"x_max":727,"o":"m 85 0 l 85 994 l 195 994 l 624 214 l 624 994 l 727 994 l 727 0 l 616 0 l 189 781 l 189 0 l 85 0 m 228 1063 q 260 1177 227 1136 q 340 1218 293 1218 q 435 1181 376 1218 q 487 1161 467 1161 q 514 1173 505 1161 q 528 1220 524 1185 l 600 1220 q 567 1104 598 1142 q 490 1065 536 1065 q 399 1103 456 1065 q 345 1128 361 1128 q 314 1112 326 1128 q 302 1063 302 1096 l 228 1063 z "},"Ö":{"ha":886,"x_min":58,"x_max":838,"o":"m 58 484 q 170 875 58 739 q 448 1012 281 1012 q 645 951 556 1012 q 786 773 734 890 q 838 496 838 657 q 737 136 838 275 q 448 -17 627 -17 q 157 140 267 -17 q 58 484 58 283 m 169 482 q 250 197 169 298 q 447 96 331 96 q 646 198 566 96 q 726 499 726 300 q 685 728 726 627 q 589 852 653 806 q 449 899 525 899 q 248 797 327 899 q 169 482 169 695 m 279 1114 l 279 1253 l 384 1253 l 384 1114 l 279 1114 m 487 1114 l 487 1253 l 591 1253 l 591 1114 l 487 1114 z "},"Ü":{"ha":822,"x_min":87,"x_max":729,"o":"m 621 994 l 729 994 l 729 420 q 701 183 729 275 q 598 37 673 90 q 410 -17 524 -17 q 168 79 248 -17 q 87 420 87 176 l 87 994 l 195 994 l 195 420 q 216 225 195 286 q 285 133 237 165 q 401 102 333 102 q 569 167 517 102 q 621 420 621 232 l 621 994 m 245 1114 l 245 1253 l 350 1253 l 350 1114 l 245 1114 m 453 1114 l 453 1253 l 557 1253 l 557 1114 l 453 1114 z "},"á":{"ha":633,"x_min":39,"x_max":583,"o":"m 458 89 q 354 10 408 37 q 241 -16 300 -16 q 94 39 149 -16 q 39 189 39 95 q 65 300 39 252 q 136 375 91 348 q 271 415 180 402 q 450 457 393 433 l 451 488 q 425 592 451 562 q 310 635 387 635 q 205 607 240 635 q 155 498 171 578 l 56 515 q 141 684 77 631 q 325 736 205 736 q 471 702 418 736 q 537 615 524 667 q 551 465 551 564 l 551 302 q 558 86 551 131 q 583 0 564 42 l 479 0 q 458 89 463 37 m 450 361 q 287 315 395 334 q 199 291 224 304 q 160 251 174 277 q 146 193 146 226 q 178 110 146 141 q 266 79 210 79 q 363 107 319 79 q 429 181 407 135 q 450 317 450 228 l 450 361 m 239 810 l 313 1000 l 444 1000 l 322 810 l 239 810 z "},"à":{"ha":633,"x_min":39,"x_max":583,"o":"m 458 89 q 354 10 408 37 q 241 -16 300 -16 q 94 39 149 -16 q 39 189 39 95 q 65 300 39 252 q 136 375 91 348 q 271 415 180 402 q 450 457 393 433 l 451 488 q 425 592 451 562 q 310 635 387 635 q 205 607 240 635 q 155 498 171 578 l 56 515 q 141 684 77 631 q 325 736 205 736 q 471 702 418 736 q 537 615 524 667 q 551 465 551 564 l 551 302 q 558 86 551 131 q 583 0 564 42 l 479 0 q 458 89 463 37 m 450 361 q 287 315 395 334 q 199 291 224 304 q 160 251 174 277 q 146 193 146 226 q 178 110 146 141 q 266 79 210 79 q 363 107 319 79 q 429 181 407 135 q 450 317 450 228 l 450 361 m 385 810 l 304 810 l 176 1000 l 310 1000 l 385 810 z "},"â":{"ha":633,"x_min":39,"x_max":583,"o":"m 458 89 q 354 10 408 37 q 241 -16 300 -16 q 94 39 149 -16 q 39 189 39 95 q 65 300 39 252 q 136 375 91 348 q 271 415 180 402 q 450 457 393 433 l 451 488 q 425 592 451 562 q 310 635 387 635 q 205 607 240 635 q 155 498 171 578 l 56 515 q 141 684 77 631 q 325 736 205 736 q 471 702 418 736 q 537 615 524 667 q 551 465 551 564 l 551 302 q 558 86 551 131 q 583 0 564 42 l 479 0 q 458 89 463 37 m 450 361 q 287 315 395 334 q 199 291 224 304 q 160 251 174 277 q 146 193 146 226 q 178 110 146 141 q 266 79 210 79 q 363 107 319 79 q 429 181 407 135 q 450 317 450 228 l 450 361 m 319 925 l 257 810 l 142 810 l 262 1000 l 370 1000 l 494 810 l 381 810 l 319 925 z "},"ä":{"ha":633,"x_min":39,"x_max":583,"o":"m 458 89 q 354 10 408 37 q 241 -16 300 -16 q 94 39 149 -16 q 39 189 39 95 q 65 300 39 252 q 136 375 91 348 q 271 415 180 402 q 450 457 393 433 l 451 488 q 425 592 451 562 q 310 635 387 635 q 205 607 240 635 q 155 498 171 578 l 56 515 q 141 684 77 631 q 325 736 205 736 q 471 702 418 736 q 537 615 524 667 q 551 465 551 564 l 551 302 q 558 86 551 131 q 583 0 564 42 l 479 0 q 458 89 463 37 m 450 361 q 287 315 395 334 q 199 291 224 304 q 160 251 174 277 q 146 193 146 226 q 178 110 146 141 q 266 79 210 79 q 363 107 319 79 q 429 181 407 135 q 450 317 450 228 l 450 361 m 152 861 l 152 1000 l 256 1000 l 256 861 l 152 861 m 359 861 l 359 1000 l 464 1000 l 464 861 l 359 861 z "},"ã":{"ha":633,"x_min":39,"x_max":583,"o":"m 458 89 q 354 10 408 37 q 241 -16 300 -16 q 94 39 149 -16 q 39 189 39 95 q 65 300 39 252 q 136 375 91 348 q 271 415 180 402 q 450 457 393 433 l 451 488 q 425 592 451 562 q 310 635 387 635 q 205 607 240 635 q 155 498 171 578 l 56 515 q 141 684 77 631 q 325 736 205 736 q 471 702 418 736 q 537 615 524 667 q 551 465 551 564 l 551 302 q 558 86 551 131 q 583 0 564 42 l 479 0 q 458 89 463 37 m 450 361 q 287 315 395 334 q 199 291 224 304 q 160 251 174 277 q 146 193 146 226 q 178 110 146 141 q 266 79 210 79 q 363 107 319 79 q 429 181 407 135 q 450 317 450 228 l 450 361 m 123 810 q 156 924 123 883 q 236 965 189 965 q 330 928 271 965 q 382 908 363 908 q 410 920 401 908 q 423 967 419 932 l 496 967 q 463 851 494 889 q 386 812 432 812 q 294 850 352 812 q 240 875 257 875 q 210 859 222 875 q 197 810 197 843 l 123 810 z "},"å":{"ha":633,"x_min":39,"x_max":583,"o":"m 458 89 q 354 10 408 37 q 241 -16 300 -16 q 94 39 149 -16 q 39 189 39 95 q 65 300 39 252 q 136 375 91 348 q 271 415 180 402 q 450 457 393 433 l 451 488 q 425 592 451 562 q 310 635 387 635 q 205 607 240 635 q 155 498 171 578 l 56 515 q 141 684 77 631 q 325 736 205 736 q 471 702 418 736 q 537 615 524 667 q 551 465 551 564 l 551 302 q 558 86 551 131 q 583 0 564 42 l 479 0 q 458 89 463 37 m 450 361 q 287 315 395 334 q 199 291 224 304 q 160 251 174 277 q 146 193 146 226 q 178 110 146 141 q 266 79 210 79 q 363 107 319 79 q 429 181 407 135 q 450 317 450 228 l 450 361 m 205 937 q 236 1023 205 988 q 306 1059 266 1059 q 375 1023 345 1059 q 406 935 406 988 q 376 845 406 880 q 306 810 346 810 q 236 846 266 810 q 205 937 205 881 m 248 937 q 266 882 248 903 q 307 861 283 861 q 348 882 330 861 q 366 935 366 903 q 348 988 366 967 q 307 1009 330 1009 q 266 988 283 1009 q 248 937 248 967 z "},"ç":{"ha":570,"x_min":44,"x_max":559,"o":"m 460 264 l 559 248 q 474 52 542 119 q 310 -16 406 -16 q 119 79 194 -16 q 44 361 44 174 q 120 643 44 549 q 314 736 195 736 q 468 680 406 736 q 549 509 531 623 l 452 490 q 402 600 437 564 q 317 636 367 636 q 195 571 243 636 q 146 363 146 505 q 193 150 146 216 q 312 84 239 84 q 409 128 369 84 q 460 264 450 172 m 250 -104 l 279 16 l 354 16 l 335 -57 q 406 -92 381 -64 q 431 -159 431 -119 q 388 -249 431 -212 q 273 -286 346 -286 q 190 -277 224 -286 l 196 -198 q 251 -201 232 -201 q 317 -186 296 -201 q 338 -150 338 -172 q 319 -117 338 -129 q 250 -104 300 -105 z "},"é":{"ha":633,"x_min":39,"x_max":584,"o":"m 477 232 l 581 216 q 487 42 555 101 q 320 -16 420 -16 q 117 79 195 -16 q 39 354 39 174 q 118 638 39 541 q 316 736 196 736 q 507 640 431 736 q 584 361 584 544 l 583 329 l 142 329 q 199 146 149 208 q 321 84 249 84 q 477 232 433 84 m 149 429 l 478 429 q 438 569 471 523 q 315 636 390 636 q 201 580 248 636 q 149 429 153 524 m 241 810 l 315 1000 l 446 1000 l 323 810 l 241 810 z "},"è":{"ha":633,"x_min":39,"x_max":584,"o":"m 477 232 l 581 216 q 487 42 555 101 q 320 -16 420 -16 q 117 79 195 -16 q 39 354 39 174 q 118 638 39 541 q 316 736 196 736 q 507 640 431 736 q 584 361 584 544 l 583 329 l 142 329 q 199 146 149 208 q 321 84 249 84 q 477 232 433 84 m 149 429 l 478 429 q 438 569 471 523 q 315 636 390 636 q 201 580 248 636 q 149 429 153 524 m 397 810 l 316 810 l 188 1000 l 322 1000 l 397 810 z "},"ê":{"ha":633,"x_min":39,"x_max":584,"o":"m 477 232 l 581 216 q 487 42 555 101 q 320 -16 420 -16 q 117 79 195 -16 q 39 354 39 174 q 118 638 39 541 q 316 736 196 736 q 507 640 431 736 q 584 361 584 544 l 583 329 l 142 329 q 199 146 149 208 q 321 84 249 84 q 477 232 433 84 m 149 429 l 478 429 q 438 569 471 523 q 315 636 390 636 q 201 580 248 636 q 149 429 153 524 m 332 925 l 270 810 l 155 810 l 275 1000 l 382 1000 l 507 810 l 394 810 l 332 925 z "},"ë":{"ha":633,"x_min":39,"x_max":584,"o":"m 477 232 l 581 216 q 487 42 555 101 q 320 -16 420 -16 q 117 79 195 -16 q 39 354 39 174 q 118 638 39 541 q 316 736 196 736 q 507 640 431 736 q 584 361 584 544 l 583 329 l 142 329 q 199 146 149 208 q 321 84 249 84 q 477 232 433 84 m 149 429 l 478 429 q 438 569 471 523 q 315 636 390 636 q 201 580 248 636 q 149 429 153 524 m 161 861 l 161 1000 l 266 1000 l 266 861 l 161 861 m 369 861 l 369 1000 l 473 1000 l 473 861 l 369 861 z "},"í":{"ha":317,"x_min":87,"x_max":292,"o":"m 113 0 l 113 720 l 212 720 l 212 0 l 113 0 m 87 810 l 161 1000 l 292 1000 l 170 810 l 87 810 z "},"ì":{"ha":317,"x_min":14,"x_max":222,"o":"m 113 0 l 113 720 l 212 720 l 212 0 l 113 0 m 222 810 l 142 810 l 14 1000 l 148 1000 l 222 810 z "},"î":{"ha":317,"x_min":-9,"x_max":342,"o":"m 113 0 l 113 720 l 212 720 l 212 0 l 113 0 m 168 925 l 105 810 l -9 810 l 111 1000 l 218 1000 l 342 810 l 229 810 l 168 925 z "},"ï":{"ha":317,"x_min":3,"x_max":315,"o":"m 113 0 l 113 720 l 212 720 l 212 0 l 113 0 m 3 861 l 3 1000 l 107 1000 l 107 861 l 3 861 m 210 861 l 210 1000 l 315 1000 l 315 861 l 210 861 z "},"ñ":{"ha":633,"x_min":73,"x_max":553,"o":"m 73 0 l 73 720 l 163 720 l 163 618 q 243 707 196 677 q 351 736 290 736 q 439 718 399 736 q 504 669 479 699 q 541 591 529 639 q 553 443 553 543 l 553 0 l 453 0 l 453 438 q 439 554 453 517 q 397 611 426 591 q 330 631 368 631 q 216 577 258 631 q 173 393 173 524 l 173 0 l 73 0 m 142 810 q 174 924 141 883 q 254 965 207 965 q 349 928 290 965 q 401 908 381 908 q 428 920 419 908 q 441 967 437 932 l 514 967 q 481 851 512 889 q 404 812 450 812 q 313 850 370 812 q 258 875 275 875 q 228 859 240 875 q 216 810 216 843 l 142 810 z "},"ó":{"ha":633,"x_min":36,"x_max":589,"o":"m 36 360 q 114 642 36 547 q 313 736 193 736 q 510 642 431 736 q 589 368 589 547 q 511 79 589 174 q 313 -16 433 -16 q 115 79 194 -16 q 36 360 36 174 m 138 360 q 189 152 138 220 q 315 84 240 84 q 436 153 386 84 q 487 360 487 222 q 436 567 487 499 q 310 635 385 635 q 189 567 239 635 q 138 360 138 498 m 239 810 l 313 1000 l 444 1000 l 322 810 l 239 810 z "},"ò":{"ha":633,"x_min":36,"x_max":589,"o":"m 36 360 q 114 642 36 547 q 313 736 193 736 q 510 642 431 736 q 589 368 589 547 q 511 79 589 174 q 313 -16 433 -16 q 115 79 194 -16 q 36 360 36 174 m 138 360 q 189 152 138 220 q 315 84 240 84 q 436 153 386 84 q 487 360 487 222 q 436 567 487 499 q 310 635 385 635 q 189 567 239 635 q 138 360 138 498 m 390 810 l 309 810 l 181 1000 l 315 1000 l 390 810 z "},"ô":{"ha":633,"x_min":36,"x_max":589,"o":"m 36 360 q 114 642 36 547 q 313 736 193 736 q 510 642 431 736 q 589 368 589 547 q 511 79 589 174 q 313 -16 433 -16 q 115 79 194 -16 q 36 360 36 174 m 138 360 q 189 152 138 220 q 315 84 240 84 q 436 153 386 84 q 487 360 487 222 q 436 567 487 499 q 310 635 385 635 q 189 567 239 635 q 138 360 138 498 m 313 925 l 250 810 l 136 810 l 256 1000 l 363 1000 l 488 810 l 374 810 l 313 925 z "},"ö":{"ha":633,"x_min":36,"x_max":589,"o":"m 36 360 q 114 642 36 547 q 313 736 193 736 q 510 642 431 736 q 589 368 589 547 q 511 79 589 174 q 313 -16 433 -16 q 115 79 194 -16 q 36 360 36 174 m 138 360 q 189 152 138 220 q 315 84 240 84 q 436 153 386 84 q 487 360 487 222 q 436 567 487 499 q 310 635 385 635 q 189 567 239 635 q 138 360 138 498 m 152 861 l 152 1000 l 256 1000 l 256 861 l 152 861 m 359 861 l 359 1000 l 464 1000 l 464 861 l 359 861 z "},"õ":{"ha":633,"x_min":36,"x_max":589,"o":"m 36 360 q 114 642 36 547 q 313 736 193 736 q 510 642 431 736 q 589 368 589 547 q 511 79 589 174 q 313 -16 433 -16 q 115 79 194 -16 q 36 360 36 174 m 138 360 q 189 152 138 220 q 315 84 240 84 q 436 153 386 84 q 487 360 487 222 q 436 567 487 499 q 310 635 385 635 q 189 567 239 635 q 138 360 138 498 m 120 810 q 153 924 119 883 q 233 965 185 965 q 327 928 268 965 q 379 908 359 908 q 407 920 397 908 q 420 967 416 932 l 492 967 q 459 851 490 889 q 382 812 429 812 q 291 850 349 812 q 237 875 254 875 q 206 859 218 875 q 194 810 194 843 l 120 810 z "},"ú":{"ha":633,"x_min":71,"x_max":550,"o":"m 460 0 l 460 106 q 379 14 426 45 q 273 -16 332 -16 q 154 21 203 -16 q 88 117 104 59 q 71 274 71 174 l 71 720 l 171 720 l 171 321 q 182 172 171 210 q 223 112 193 134 q 292 89 254 89 q 410 148 364 89 q 450 334 450 199 l 450 720 l 550 720 l 550 0 l 460 0 m 239 810 l 313 1000 l 444 1000 l 322 810 l 239 810 z "},"ù":{"ha":633,"x_min":71,"x_max":550,"o":"m 460 0 l 460 106 q 379 14 426 45 q 273 -16 332 -16 q 154 21 203 -16 q 88 117 104 59 q 71 274 71 174 l 71 720 l 171 720 l 171 321 q 182 172 171 210 q 223 112 193 134 q 292 89 254 89 q 410 148 364 89 q 450 334 450 199 l 450 720 l 550 720 l 550 0 l 460 0 m 353 810 l 273 810 l 144 1000 l 279 1000 l 353 810 z "},"û":{"ha":633,"x_min":71,"x_max":550,"o":"m 460 0 l 460 106 q 379 14 426 45 q 273 -16 332 -16 q 154 21 203 -16 q 88 117 104 59 q 71 274 71 174 l 71 720 l 171 720 l 171 321 q 182 172 171 210 q 223 112 193 134 q 292 89 254 89 q 410 148 364 89 q 450 334 450 199 l 450 720 l 550 720 l 550 0 l 460 0 m 317 925 l 254 810 l 140 810 l 260 1000 l 367 1000 l 492 810 l 378 810 l 317 925 z "},"ü":{"ha":633,"x_min":71,"x_max":550,"o":"m 460 0 l 460 106 q 379 14 426 45 q 273 -16 332 -16 q 154 21 203 -16 q 88 117 104 59 q 71 274 71 174 l 71 720 l 171 720 l 171 321 q 182 172 171 210 q 223 112 193 134 q 292 89 254 89 q 410 148 364 89 q 450 334 450 199 l 450 720 l 550 720 l 550 0 l 460 0 m 157 861 l 157 1000 l 262 1000 l 262 861 l 157 861 m 365 861 l 365 1000 l 469 1000 l 469 861 l 365 861 z "},"†":{"ha":633,"x_min":39,"x_max":585,"o":"m 261 -235 l 261 587 l 39 587 l 39 696 l 261 696 l 261 971 l 361 971 l 361 696 l 585 696 l 585 587 l 361 587 l 361 -235 l 261 -235 z "},"°":{"ha":555,"x_min":87,"x_max":463,"o":"m 87 823 q 142 956 87 901 q 275 1011 197 1011 q 408 956 353 1011 q 463 823 463 901 q 408 690 463 745 q 275 635 353 635 q 142 690 197 635 q 87 823 87 745 m 161 823 q 194 742 161 776 q 275 709 228 709 q 356 742 322 709 q 389 823 389 776 q 356 904 389 871 q 275 938 322 938 q 194 904 228 938 q 161 823 161 871 z "},"¢":{"ha":633,"x_min":58,"x_max":574,"o":"m 412 606 l 288 87 q 323 81 307 81 q 421 129 378 81 q 474 264 465 176 l 574 250 q 485 51 555 121 q 323 -19 415 -19 q 267 -9 297 -19 l 201 -277 l 139 -256 l 203 14 q 98 139 139 52 q 58 359 58 226 q 92 568 58 485 q 188 693 125 650 q 323 736 250 736 q 375 732 342 736 l 438 994 l 499 972 l 437 710 q 562 509 539 658 l 465 490 q 412 606 451 567 m 353 637 q 326 640 336 640 q 208 573 255 640 q 160 365 160 507 q 229 120 160 182 l 353 637 z "},"£":{"ha":633,"x_min":14,"x_max":600,"o":"m 219 549 l 394 549 l 394 448 l 236 448 q 247 390 247 418 q 223 263 247 330 q 148 130 200 197 q 228 144 192 144 q 332 127 274 144 q 461 100 427 100 q 568 138 502 100 l 600 26 q 467 -18 517 -18 q 419 -12 444 -18 q 347 13 403 -8 q 270 39 288 35 q 222 45 245 45 q 52 -19 132 45 l 14 98 q 106 205 72 137 q 141 364 141 273 q 132 448 141 406 l 23 448 l 23 549 l 109 549 q 80 728 80 669 q 152 934 80 857 q 332 1011 224 1011 q 497 945 430 1011 q 579 754 564 880 l 479 736 q 428 865 471 819 q 331 911 386 911 q 229 864 271 911 q 187 745 187 817 q 219 549 187 669 z "},"§":{"ha":633,"x_min":43,"x_max":580,"o":"m 77 -47 l 178 -30 q 229 -154 195 -119 q 320 -189 264 -189 q 407 -155 374 -189 q 441 -71 441 -121 q 434 -33 441 -52 q 414 1 428 -15 q 232 159 374 52 q 96 281 127 237 q 43 437 43 354 q 78 556 43 505 q 168 629 112 608 q 115 713 133 671 q 97 797 97 755 q 155 950 97 888 q 304 1011 214 1011 q 460 952 399 1011 q 532 776 520 894 l 429 763 q 387 879 416 847 q 308 911 357 911 q 228 879 260 911 q 195 802 195 846 q 202 763 195 783 q 225 724 210 744 q 385 589 255 685 q 530 461 497 505 q 580 315 580 396 q 543 189 580 241 q 453 121 518 154 q 520 32 498 79 q 542 -70 542 -16 q 479 -230 542 -167 q 318 -292 416 -292 q 155 -230 219 -292 q 77 -47 91 -167 m 403 165 q 464 224 443 191 q 485 292 485 258 q 456 374 485 332 q 331 488 427 416 q 217 582 254 545 q 153 518 171 549 q 134 450 134 487 q 160 369 134 408 q 275 266 186 330 q 403 165 351 211 z "},"•":{"ha":399,"x_min":62,"x_max":344,"o":"m 62 487 q 105 610 62 561 q 203 659 147 659 q 302 610 260 659 q 344 487 344 561 q 301 363 344 412 q 203 315 259 315 q 105 364 147 315 q 62 487 62 413 z "},"¶":{"ha":611,"x_min":3,"x_max":618,"o":"m 229 -276 l 229 433 q 66 512 128 439 q 3 708 3 585 q 36 864 3 798 q 126 962 68 930 q 267 994 183 994 l 618 994 l 618 877 l 538 877 l 538 -276 l 444 -276 l 444 877 l 320 877 l 320 -276 l 229 -276 z "},"ß":{"ha":696,"x_min":87,"x_max":662,"o":"m 87 0 l 87 677 q 113 872 87 807 q 196 975 139 938 q 325 1011 252 1011 q 473 955 415 1011 q 530 818 530 899 q 521 748 530 784 q 486 655 512 711 q 446 542 446 571 q 461 492 446 517 q 526 432 471 475 q 636 319 610 364 q 662 212 662 273 q 603 48 662 113 q 459 -17 544 -17 q 339 26 393 -17 q 257 146 286 68 l 343 195 q 456 83 393 83 q 528 118 497 83 q 559 201 559 152 q 547 258 559 235 q 479 326 534 281 q 368 438 393 399 q 343 522 343 477 q 351 574 343 548 q 385 656 358 601 q 433 805 433 759 q 401 880 433 849 q 322 911 370 911 q 221 862 256 911 q 186 672 186 813 l 186 0 l 87 0 z "},"®":{"ha":839,"x_min":3,"x_max":842,"o":"m 422 1011 q 722 858 601 1011 q 842 499 842 705 q 783 236 842 356 q 626 52 723 116 q 422 -12 530 -12 q 123 141 244 -12 q 3 499 3 294 q 62 763 3 643 q 219 947 122 883 q 422 1011 315 1011 m 422 926 q 169 793 273 926 q 73 499 73 670 q 182 189 73 315 q 422 73 284 73 q 676 205 572 73 q 772 499 772 328 q 663 809 772 683 q 422 926 561 926 m 238 216 l 238 767 l 394 767 q 508 752 474 767 q 564 701 542 737 q 587 618 587 664 q 550 511 587 554 q 458 463 514 468 q 498 431 483 450 q 563 324 526 396 l 617 216 l 529 216 l 488 303 q 414 430 442 403 q 355 450 393 450 l 311 450 l 311 216 l 238 216 m 311 526 l 400 526 q 485 548 460 526 q 509 610 509 569 q 497 656 509 637 q 465 684 484 676 q 394 692 445 692 l 311 692 l 311 526 z "},"©":{"ha":839,"x_min":3,"x_max":842,"o":"m 422 1011 q 722 858 601 1011 q 842 499 842 705 q 783 236 842 356 q 626 52 723 116 q 422 -12 530 -12 q 123 141 244 -12 q 3 499 3 294 q 62 763 3 643 q 219 947 122 883 q 422 1011 315 1011 m 422 926 q 169 793 273 926 q 73 499 73 670 q 182 189 73 315 q 422 73 284 73 q 676 205 572 73 q 772 499 772 328 q 663 809 772 683 q 422 926 561 926 m 557 416 l 625 392 q 553 255 608 304 q 424 206 498 206 q 266 281 329 206 q 203 498 203 357 q 266 713 203 639 q 429 787 328 787 q 549 745 498 787 q 617 627 599 703 l 551 607 q 501 685 534 659 q 426 711 468 711 q 321 656 363 711 q 279 493 279 601 q 319 338 279 390 q 418 286 359 286 q 506 320 467 286 q 557 416 545 354 z "},"™":{"ha":1139,"x_min":125,"x_max":991,"o":"m 273 441 l 273 912 l 125 912 l 125 994 l 496 994 l 496 912 l 348 912 l 348 441 l 273 441 m 547 441 l 547 994 l 658 994 l 772 553 l 883 994 l 991 994 l 991 441 l 923 441 l 923 905 l 806 441 l 738 441 l 616 912 l 616 441 l 547 441 z "},"´":{"ha":379,"x_min":123,"x_max":328,"o":"m 123 810 l 197 1000 l 328 1000 l 206 810 l 123 810 z "},"¨":{"ha":379,"x_min":34,"x_max":346,"o":"m 34 861 l 34 1000 l 138 1000 l 138 861 l 34 861 m 241 861 l 241 1000 l 346 1000 l 346 861 l 241 861 z "},"≠":{"ha":762,"x_min":53,"x_max":709,"o":"m 336 283 l 204 -19 l 112 -19 l 244 283 l 53 283 l 53 397 l 294 397 l 377 585 l 53 585 l 53 699 l 427 699 l 559 1000 l 650 1000 l 518 699 l 709 699 l 709 585 l 468 585 l 386 397 l 709 397 l 709 283 l 336 283 z "},"Æ":{"ha":1139,"x_min":1,"x_max":1077,"o":"m 1 0 l 393 994 l 1062 994 l 1062 877 l 652 877 l 652 571 l 1033 571 l 1033 454 l 652 454 l 652 117 l 1077 117 l 1077 0 l 544 0 l 544 287 l 229 287 l 117 0 l 1 0 m 275 404 l 544 404 l 544 877 l 463 877 l 275 404 z "},"Ø":{"ha":886,"x_min":49,"x_max":846,"o":"m 698 903 l 791 1031 l 846 974 l 748 840 q 817 674 798 749 q 836 498 836 600 q 783 219 836 335 q 641 43 730 102 q 444 -17 551 -17 q 318 6 375 -17 q 197 87 262 28 l 104 -40 l 49 17 l 146 151 q 74 325 92 254 q 56 493 56 395 q 109 776 56 658 q 250 952 162 894 q 448 1011 337 1011 q 575 988 517 1011 q 698 903 632 964 m 631 812 q 539 881 578 863 q 448 899 499 899 q 247 797 326 899 q 167 495 167 696 q 177 367 167 420 q 216 245 187 315 l 631 812 m 677 742 l 263 178 q 350 114 307 133 q 444 96 393 96 q 643 198 563 96 q 724 494 724 300 q 677 742 724 634 z "},"∞":{"ha":990,"x_min":104,"x_max":888,"o":"m 467 551 q 578 669 538 640 q 693 708 633 708 q 826 656 764 708 q 888 490 888 605 q 865 365 888 410 q 793 291 842 319 q 693 263 745 263 q 578 302 633 263 q 467 420 538 331 q 271 304 375 304 q 154 356 203 304 q 104 486 104 408 q 154 614 104 562 q 271 667 203 667 q 467 551 375 667 m 514 486 q 622 361 573 395 q 692 338 653 338 q 778 376 743 338 q 813 484 813 414 q 778 593 813 555 q 689 631 742 631 q 627 612 656 631 q 514 486 587 586 m 420 486 q 334 573 366 553 q 271 592 301 592 q 206 564 232 592 q 180 488 180 536 q 207 411 180 439 q 273 382 234 382 q 420 486 341 382 z "},"±":{"ha":762,"x_min":53,"x_max":709,"o":"m 323 176 l 323 450 l 53 450 l 53 563 l 323 563 l 323 833 l 439 833 l 439 563 l 709 563 l 709 450 l 439 450 l 439 176 l 323 176 m 709 0 l 53 0 l 53 114 l 709 114 l 709 0 z "},"≤":{"ha":762,"x_min":52,"x_max":711,"o":"m 52 517 l 52 631 l 711 909 l 711 787 l 189 573 l 711 357 l 711 235 l 52 517 m 709 72 l 53 72 l 53 185 l 709 185 l 709 72 z "},"≥":{"ha":762,"x_min":52,"x_max":711,"o":"m 711 517 l 52 235 l 52 357 l 574 573 l 52 787 l 52 909 l 711 631 l 711 517 m 709 72 l 53 72 l 53 185 l 709 185 l 709 72 z "},"¥":{"ha":633,"x_min":-3,"x_max":628,"o":"m 264 0 l 264 220 l 33 220 l 33 315 l 264 315 l 264 412 l 33 412 l 33 512 l 222 512 l -3 994 l 108 994 l 269 644 q 311 540 297 583 q 357 650 323 575 l 509 994 l 628 994 l 403 512 l 593 512 l 593 412 l 363 412 l 363 315 l 593 315 l 593 220 l 363 220 l 363 0 l 264 0 z "},"µ":{"ha":800,"x_min":109,"x_max":690,"o":"m 690 720 l 690 0 l 581 0 l 581 85 q 511 11 546 31 q 401 -17 464 -17 q 301 5 345 -17 q 229 73 269 22 l 229 -276 l 109 -276 l 109 720 l 229 720 l 229 415 q 247 200 229 249 q 304 122 264 151 q 395 94 344 94 q 492 123 450 94 q 553 200 535 153 q 570 413 570 248 l 570 720 l 690 720 z "},"∂":{"ha":686,"x_min":38,"x_max":660,"o":"m 289 772 l 197 812 q 311 965 245 919 q 441 1011 378 1011 q 535 984 493 1011 q 597 923 576 958 q 645 796 629 869 q 660 628 660 723 q 601 280 660 433 q 443 56 543 128 q 247 -17 343 -17 q 96 45 154 -17 q 38 218 38 106 q 142 481 38 372 q 582 627 275 621 q 566 800 579 741 q 519 892 552 860 q 443 924 487 924 q 361 891 401 924 q 289 772 321 857 m 579 540 q 337 494 414 530 q 210 374 260 457 q 160 205 160 291 q 195 113 160 149 q 275 76 229 76 q 384 113 326 76 q 513 272 463 165 q 579 540 563 380 z "},"∑":{"ha":990,"x_min":83,"x_max":940,"o":"m 94 1011 l 933 1011 l 933 900 l 263 900 l 675 374 l 235 -183 l 940 -183 l 940 -292 l 83 -292 l 83 -165 l 503 369 l 94 892 l 94 1011 z "},"∏":{"ha":1143,"x_min":109,"x_max":1033,"o":"m 109 1011 l 1033 1011 l 1033 -292 l 903 -292 l 903 893 l 240 893 l 240 -292 l 109 -292 l 109 1011 z "},"∫":{"ha":380,"x_min":0,"x_max":380,"o":"m 136 643 l 148 1003 q 182 1175 154 1107 q 232 1241 200 1219 q 295 1263 264 1263 q 354 1241 329 1263 q 380 1191 380 1218 q 362 1140 380 1159 q 317 1120 344 1120 q 266 1145 294 1120 q 239 1158 250 1158 q 219 1148 227 1158 q 212 1115 212 1139 q 218 1017 212 1086 q 243 566 243 739 q 232 167 243 520 q 171 -104 227 -33 q 80 -149 134 -149 q 22 -126 45 -149 q 0 -67 0 -103 q 17 -18 0 -37 q 61 0 35 0 q 108 -22 88 0 q 141 -43 127 -43 q 160 -34 153 -43 q 168 -2 168 -24 q 161 79 168 26 q 136 643 136 293 z "},"ª":{"ha":421,"x_min":28,"x_max":401,"o":"m 307 578 q 165 506 239 506 q 67 546 106 506 q 28 654 28 586 q 55 745 28 711 q 129 791 81 779 l 246 814 q 300 828 287 824 q 285 903 299 886 q 213 932 262 932 q 120 847 130 932 l 43 870 q 95 973 51 935 q 214 1011 139 1011 q 340 972 300 1011 q 380 847 380 932 l 380 684 l 379 644 q 401 518 379 553 l 319 518 q 307 578 309 545 m 298 749 q 192 724 269 739 q 130 701 144 715 q 111 654 111 682 q 131 606 111 625 q 182 587 151 587 q 252 612 221 587 q 294 676 282 636 q 298 749 298 692 z "},"º":{"ha":415,"x_min":25,"x_max":390,"o":"m 208 1011 q 334 950 286 1011 q 390 756 390 878 q 334 562 390 635 q 208 502 286 502 q 77 567 130 502 q 25 753 25 632 q 81 950 25 878 q 208 1011 129 1011 m 208 921 q 135 882 163 921 q 108 755 108 844 q 136 631 108 670 q 208 591 164 591 q 280 631 252 591 q 308 757 308 670 q 279 882 308 842 q 208 921 251 921 z "},"Ω":{"ha":1067,"x_min":86,"x_max":1000,"o":"m 336 109 q 224 197 263 154 q 134 350 165 262 q 102 544 102 437 q 156 788 102 677 q 312 960 210 900 q 548 1019 415 1019 q 898 847 776 1019 q 987 543 987 721 q 950 341 987 429 q 854 191 913 254 q 753 109 819 151 l 1000 113 l 1000 0 l 610 0 l 610 120 q 694 173 665 147 q 777 271 743 214 q 828 393 811 328 q 846 527 846 457 q 812 715 846 621 q 710 859 779 810 q 545 909 642 909 q 345 827 416 909 q 245 529 245 713 q 307 276 245 382 q 477 122 369 171 l 477 0 l 86 0 l 86 114 l 336 109 z "},"æ":{"ha":1013,"x_min":36,"x_max":964,"o":"m 962 220 q 866 43 934 103 q 702 -16 799 -16 q 580 16 633 -16 q 482 118 526 47 q 237 -16 371 -16 q 91 41 146 -16 q 36 189 36 99 q 64 300 36 250 q 139 376 92 350 q 297 420 186 403 q 437 454 380 434 l 438 481 q 408 602 438 569 q 307 635 378 635 q 199 607 233 635 q 149 497 165 578 l 52 511 q 137 684 75 632 q 310 736 199 736 q 440 712 392 736 q 512 640 488 688 q 701 736 585 736 q 834 696 777 736 q 928 569 891 656 q 964 370 964 481 l 964 329 l 537 329 q 557 184 538 229 q 618 112 576 140 q 708 84 660 84 q 803 123 762 84 q 858 237 843 163 l 962 220 m 537 429 l 862 429 q 810 587 854 538 q 703 635 767 635 q 588 583 633 635 q 537 429 543 530 m 439 361 q 260 312 395 338 q 176 278 199 300 q 142 194 142 245 q 173 112 142 143 q 256 80 203 80 q 369 119 321 80 q 431 218 417 157 q 439 361 439 252 z "},"ø":{"ha":696,"x_min":77,"x_max":630,"o":"m 516 677 l 571 764 l 625 717 l 565 623 q 614 513 601 563 q 630 360 630 447 q 551 78 630 172 q 349 -16 473 -16 q 196 38 264 -16 l 138 -54 l 85 -5 l 146 90 q 97 191 110 140 q 77 350 77 266 q 155 640 77 544 q 351 736 233 736 q 432 723 394 736 q 516 677 470 710 m 460 588 q 353 635 409 635 q 230 567 281 635 q 179 363 179 498 q 208 190 179 259 l 460 588 m 501 522 l 252 127 q 350 84 295 84 q 477 152 426 84 q 528 362 528 220 q 522 445 528 412 q 501 522 517 478 z "},"¿":{"ha":696,"x_min":90,"x_max":616,"o":"m 410 720 l 410 581 l 296 581 l 296 720 l 410 720 m 404 475 l 404 441 q 372 277 404 342 q 275 149 349 229 q 208 61 224 94 q 193 -12 193 28 q 240 -139 193 -87 q 350 -191 288 -191 q 456 -142 412 -191 q 513 10 500 -94 l 616 -4 q 531 -219 602 -147 q 351 -291 460 -291 q 165 -215 239 -291 q 90 -20 90 -139 q 115 100 90 45 q 213 233 139 154 q 290 340 275 300 q 307 475 306 379 l 404 475 z "},"¡":{"ha":379,"x_min":127,"x_max":252,"o":"m 247 720 l 247 581 l 132 581 l 132 720 l 247 720 m 221 473 l 252 -54 l 252 -274 l 127 -274 l 127 -54 l 156 473 l 221 473 z "},"¬":{"ha":665,"x_min":62,"x_max":601,"o":"m 601 288 l 506 288 l 506 585 l 62 585 l 62 699 l 601 699 l 601 288 z "},"√":{"ha":762,"x_min":57,"x_max":762,"o":"m 712 1267 l 762 1267 l 551 -53 l 214 640 l 80 578 l 57 621 l 261 724 l 536 165 l 712 1267 z "},"ƒ":{"ha":633,"x_min":24,"x_max":602,"o":"m 24 -275 l 43 -170 q 127 -184 99 -184 q 174 -165 157 -184 q 199 -81 190 -146 l 297 625 l 186 625 l 199 720 l 311 720 l 324 810 q 356 938 338 902 q 407 993 375 975 q 482 1012 438 1012 q 602 986 526 1012 l 582 882 q 497 899 525 899 q 450 880 465 899 q 424 790 434 861 l 413 720 l 526 720 l 513 625 l 399 625 l 293 -115 q 244 -255 278 -217 q 149 -292 210 -292 q 24 -275 96 -292 z "},"≈":{"ha":762,"x_min":35,"x_max":728,"o":"m 35 500 l 35 640 q 223 721 106 721 q 308 709 264 721 q 436 662 353 698 q 506 636 483 642 q 553 630 530 630 q 645 656 597 630 q 728 723 692 683 l 728 579 q 641 520 685 538 q 541 502 596 502 q 463 511 500 502 q 346 556 427 520 q 212 593 265 593 q 130 574 168 593 q 35 500 92 555 m 35 255 l 35 394 q 223 475 106 475 q 308 464 264 475 q 436 416 353 452 q 506 391 483 397 q 553 385 530 385 q 645 411 597 385 q 728 477 692 437 l 728 334 q 641 275 685 293 q 541 256 596 256 q 463 266 500 256 q 346 311 427 275 q 212 347 265 347 q 130 329 168 347 q 35 255 92 310 z "},"∆":{"ha":850,"x_min":18,"x_max":831,"o":"m 831 0 l 18 0 l 444 941 l 831 0 m 671 56 l 401 711 l 102 56 l 671 56 z "},"«":{"ha":633,"x_min":73,"x_max":549,"o":"m 187 358 l 332 49 l 250 49 l 73 358 l 250 667 l 332 667 l 187 358 m 402 358 l 549 49 l 465 49 l 290 358 l 465 667 l 549 667 l 402 358 z "},"»":{"ha":633,"x_min":76,"x_max":552,"o":"m 438 358 l 293 667 l 375 667 l 552 358 l 375 49 l 294 49 l 438 358 m 222 358 l 76 667 l 160 667 l 334 358 l 160 49 l 76 49 l 222 358 z "},"…":{"ha":1139,"x_min":133,"x_max":1006,"o":"m 133 0 l 133 139 l 247 139 l 247 0 l 133 0 m 513 0 l 513 139 l 627 139 l 627 0 l 513 0 m 892 0 l 892 139 l 1006 139 l 1006 0 l 892 0 z "},"À":{"ha":760,"x_min":-1,"x_max":762,"o":"m -1 0 l 312 994 l 428 994 l 762 0 l 638 0 l 543 301 l 203 301 l 113 0 l -1 0 m 234 408 l 510 408 l 425 684 q 368 890 386 810 q 323 700 352 794 l 234 408 m 444 1062 l 363 1062 l 235 1252 l 369 1252 l 444 1062 z "},"Ã":{"ha":760,"x_min":-1,"x_max":762,"o":"m -1 0 l 312 994 l 428 994 l 762 0 l 638 0 l 543 301 l 203 301 l 113 0 l -1 0 m 234 408 l 510 408 l 425 684 q 368 890 386 810 q 323 700 352 794 l 234 408 m 176 1063 q 209 1177 176 1136 q 289 1218 241 1218 q 383 1181 324 1218 q 435 1161 416 1161 q 463 1173 454 1161 q 476 1220 472 1185 l 549 1220 q 516 1104 547 1142 q 439 1065 485 1065 q 347 1103 405 1065 q 293 1128 310 1128 q 262 1112 275 1128 q 250 1063 250 1096 l 176 1063 z "},"Õ":{"ha":886,"x_min":58,"x_max":838,"o":"m 58 484 q 170 875 58 739 q 448 1012 281 1012 q 645 951 556 1012 q 786 773 734 890 q 838 496 838 657 q 737 136 838 275 q 448 -17 627 -17 q 157 140 267 -17 q 58 484 58 283 m 169 482 q 250 197 169 298 q 447 96 331 96 q 646 198 566 96 q 726 499 726 300 q 685 728 726 627 q 589 852 653 806 q 449 899 525 899 q 248 797 327 899 q 169 482 169 695 m 258 1063 q 290 1177 257 1136 q 370 1218 323 1218 q 465 1181 406 1218 q 517 1161 497 1161 q 544 1173 535 1161 q 557 1220 553 1185 l 630 1220 q 597 1104 628 1142 q 520 1065 566 1065 q 429 1103 486 1065 q 374 1128 391 1128 q 344 1112 356 1128 q 332 1063 332 1096 l 258 1063 z "},"Œ":{"ha":1139,"x_min":72,"x_max":1103,"o":"m 1103 117 l 1103 0 l 623 0 l 623 144 q 531 23 586 64 q 402 -17 475 -17 q 174 100 259 -17 q 72 499 72 239 q 117 791 72 673 q 233 960 163 909 q 402 1011 304 1011 q 531 974 475 1011 q 623 860 586 936 l 623 994 l 1086 994 l 1086 877 l 724 877 l 724 573 l 1057 573 l 1057 456 l 724 456 l 724 117 l 1103 117 m 400 905 q 247 809 311 905 q 183 497 183 713 q 248 185 183 282 q 403 89 312 89 q 553 185 490 89 q 617 497 617 282 q 553 808 617 711 q 400 905 489 905 z "},"œ":{"ha":1075,"x_min":47,"x_max":1036,"o":"m 546 119 q 449 18 504 52 q 325 -16 393 -16 q 126 79 204 -16 q 47 353 47 174 q 83 566 47 480 q 182 694 119 652 q 328 736 245 736 q 458 699 400 736 q 546 599 517 662 q 640 701 583 665 q 762 736 696 736 q 959 636 882 736 q 1034 328 1036 535 l 599 328 q 652 148 601 212 q 774 84 703 84 q 869 121 828 84 q 927 235 909 159 l 1027 217 q 935 42 1002 101 q 772 -16 868 -16 q 640 19 699 -16 q 546 119 581 54 m 150 361 q 194 163 150 231 q 326 84 245 84 q 446 156 394 84 q 497 363 497 227 q 446 567 497 498 q 321 636 394 636 q 196 559 243 636 q 150 361 150 483 m 602 428 l 929 428 q 878 584 922 532 q 768 636 833 636 q 656 582 703 636 q 602 428 608 528 z "},"–":{"ha":633,"x_min":-4,"x_max":629,"o":"m -4 311 l -4 409 l 629 409 l 629 311 l -4 311 z "},"—":{"ha":1139,"x_min":0,"x_max":1139,"o":"m 0 311 l 0 409 l 1139 409 l 1139 311 l 0 311 z "},"“":{"ha":379,"x_min":46,"x_max":335,"o":"m 326 810 l 326 669 l 218 669 l 218 781 q 241 922 218 876 q 310 994 264 968 l 335 946 q 291 902 307 932 q 273 810 275 872 l 326 810 m 153 810 l 153 669 l 46 669 l 46 781 q 69 922 46 876 q 138 994 92 968 l 163 946 q 119 902 134 932 q 101 810 103 873 l 153 810 z "},"”":{"ha":379,"x_min":39,"x_max":328,"o":"m 48 852 l 48 994 l 156 994 l 156 882 q 133 740 156 786 q 64 669 110 694 l 39 716 q 100 852 98 746 l 48 852 m 220 852 l 220 994 l 328 994 l 328 882 q 306 740 328 786 q 237 669 283 694 l 212 716 q 255 761 239 730 q 273 852 271 791 l 220 852 z "},"‘":{"ha":253,"x_min":69,"x_max":186,"o":"m 176 810 l 176 669 l 69 669 l 69 781 q 92 922 69 876 q 161 994 115 968 l 186 946 q 142 902 157 932 q 124 810 126 873 l 176 810 z "},"’":{"ha":253,"x_min":58,"x_max":174,"o":"m 66 852 l 66 994 l 174 994 l 174 882 q 151 740 174 786 q 82 669 128 694 l 58 716 q 119 852 116 746 l 66 852 z "},"÷":{"ha":762,"x_min":53,"x_max":709,"o":"m 311 625 l 311 764 l 450 764 l 450 625 l 311 625 m 709 433 l 53 433 l 53 547 l 709 547 l 709 433 m 311 216 l 311 355 l 450 355 l 450 216 l 311 216 z "},"◊":{"ha":686,"x_min":32,"x_max":656,"o":"m 372 964 l 656 481 l 372 0 l 297 0 l 32 481 l 297 964 l 372 964 m 336 899 l 105 481 l 336 64 l 579 481 l 336 899 z "},"ÿ":{"ha":570,"x_min":18,"x_max":559,"o":"m 71 -277 l 60 -163 q 117 -174 93 -174 q 169 -161 149 -174 q 203 -121 190 -148 q 243 -1 208 -111 l 18 720 l 126 720 l 250 303 q 292 136 273 225 q 333 300 309 220 l 459 720 l 559 720 l 335 -12 q 266 -202 291 -155 q 208 -271 240 -250 q 135 -292 176 -292 q 71 -277 106 -292 m 126 861 l 126 1000 l 231 1000 l 231 861 l 126 861 m 334 861 l 334 1000 l 438 1000 l 438 861 l 334 861 z "},"Ÿ":{"ha":760,"x_min":3,"x_max":751,"o":"m 317 0 l 317 421 l 3 994 l 135 994 l 295 694 q 378 526 342 606 q 467 702 414 604 l 625 994 l 751 994 l 425 421 l 425 0 l 317 0 m 216 1114 l 216 1253 l 321 1253 l 321 1114 l 216 1114 m 424 1114 l 424 1253 l 528 1253 l 528 1114 l 424 1114 z "},"⁄":{"ha":191,"x_min":-253,"x_max":446,"o":"m -253 -39 l 359 1011 l 446 1011 l -165 -39 l -253 -39 z "},"€":{"ha":633,"x_min":-16,"x_max":616,"o":"m 593 831 q 435 899 524 899 q 266 828 338 899 q 178 635 194 757 l 557 635 l 542 543 l 168 543 l 168 454 l 526 454 l 511 363 l 180 363 q 267 165 199 234 q 435 96 334 96 q 593 163 532 96 l 593 22 q 436 -17 525 -17 q 69 363 134 -17 l -16 363 l 0 454 l 58 454 q 57 496 57 471 l 57 543 l -16 543 l 0 635 l 65 635 q 194 912 92 813 q 443 1011 296 1011 q 616 956 541 1011 l 593 831 z "},"‹":{"ha":379,"x_min":51,"x_max":309,"o":"m 161 357 l 309 49 l 226 49 l 51 357 l 226 667 l 309 667 l 161 357 z "},"›":{"ha":379,"x_min":70,"x_max":328,"o":"m 217 359 l 70 667 l 153 667 l 328 359 l 153 49 l 70 49 l 217 359 z "},"ﬁ":{"ha":570,"x_min":13,"x_max":492,"o":"m 102 0 l 102 626 l 13 626 l 13 720 l 102 720 l 102 790 q 144 959 102 907 q 260 1011 186 1011 q 361 996 315 1011 l 345 892 q 292 899 316 899 q 221 874 240 899 q 202 767 202 849 l 202 720 l 317 720 l 317 626 l 202 626 l 202 0 l 102 0 m 392 854 l 392 994 l 492 994 l 492 854 l 392 854 m 392 0 l 392 720 l 492 720 l 492 0 l 392 0 z "},"ﬂ":{"ha":570,"x_min":12,"x_max":490,"o":"m 101 0 l 101 626 l 12 626 l 12 720 l 101 720 l 101 790 q 143 959 101 907 q 259 1011 185 1011 q 361 996 314 1011 l 345 892 q 291 899 315 899 q 220 874 239 899 q 201 767 201 849 l 201 720 l 316 720 l 316 626 l 201 626 l 201 0 l 101 0 m 391 0 l 391 994 l 490 994 l 490 0 l 391 0 z "},"‡":{"ha":633,"x_min":39,"x_max":587,"o":"m 262 -235 l 262 16 l 39 16 l 39 125 l 262 125 l 262 617 l 39 617 l 39 726 l 262 726 l 262 981 l 362 981 l 362 726 l 587 726 l 587 617 l 362 617 l 362 125 l 587 125 l 587 16 l 362 16 l 362 -235 l 262 -235 z "},"∙":{"ha":317,"x_min":105,"x_max":219,"o":"m 105 420 l 105 559 l 219 559 l 219 420 l 105 420 z "},"‚":{"ha":253,"x_min":58,"x_max":174,"o":"m 66 0 l 66 142 l 174 142 l 174 30 q 151 -112 174 -66 q 82 -184 128 -158 l 58 -136 q 119 0 116 -106 l 66 0 z "},"„":{"ha":379,"x_min":39,"x_max":328,"o":"m 48 0 l 48 142 l 156 142 l 156 30 q 133 -112 156 -66 q 64 -184 110 -158 l 39 -136 q 100 0 98 -106 l 48 0 m 220 0 l 220 142 l 328 142 l 328 30 q 306 -112 328 -66 q 237 -184 283 -158 l 212 -136 q 255 -91 239 -121 q 273 0 271 -60 l 220 0 z "},"‰":{"ha":1139,"x_min":20,"x_max":1118,"o":"m 178 -37 l 512 1011 l 585 1011 l 251 -37 l 178 -37 m 20 745 q 65 942 20 880 q 178 1003 109 1003 q 295 941 250 1003 q 340 740 340 880 q 296 541 340 602 q 181 480 252 480 q 66 543 111 480 q 20 745 20 606 m 103 740 q 125 602 103 638 q 184 565 146 565 q 235 597 216 565 q 258 741 258 639 q 236 881 258 844 q 179 919 214 919 q 127 886 145 919 q 103 740 103 843 m 424 228 q 468 425 424 363 q 582 486 513 486 q 698 424 653 486 q 743 222 743 362 q 699 24 743 84 q 585 -37 655 -37 q 469 26 515 -37 q 424 228 424 89 m 507 222 q 528 84 507 121 q 588 47 549 47 q 641 84 620 47 q 661 224 661 121 q 640 364 661 327 q 582 401 618 401 q 530 369 549 401 q 507 222 507 326 m 799 228 q 843 425 799 363 q 957 486 888 486 q 1073 424 1028 486 q 1118 222 1118 362 q 1074 24 1118 84 q 960 -37 1030 -37 q 844 26 890 -37 q 799 228 799 89 m 882 222 q 903 84 882 121 q 963 47 925 47 q 1016 84 995 47 q 1036 224 1036 121 q 1015 364 1036 327 q 958 401 993 401 q 905 369 924 401 q 882 222 882 326 z "},"Â":{"ha":760,"x_min":-1,"x_max":762,"o":"m -1 0 l 312 994 l 428 994 l 762 0 l 638 0 l 543 301 l 203 301 l 113 0 l -1 0 m 234 408 l 510 408 l 425 684 q 368 890 386 810 q 323 700 352 794 l 234 408 m 370 1178 l 308 1063 l 193 1063 l 313 1253 l 420 1253 l 545 1063 l 432 1063 l 370 1178 z "},"Ê":{"ha":760,"x_min":90,"x_max":699,"o":"m 90 0 l 90 994 l 680 994 l 680 877 l 198 877 l 198 572 l 649 572 l 649 456 l 198 456 l 198 117 l 699 117 l 699 0 l 90 0 m 389 1178 l 326 1063 l 212 1063 l 332 1253 l 439 1253 l 564 1063 l 450 1063 l 389 1178 z "},"Á":{"ha":760,"x_min":-1,"x_max":762,"o":"m -1 0 l 312 994 l 428 994 l 762 0 l 638 0 l 543 301 l 203 301 l 113 0 l -1 0 m 234 408 l 510 408 l 425 684 q 368 890 386 810 q 323 700 352 794 l 234 408 m 265 1062 l 339 1252 l 470 1252 l 348 1062 l 265 1062 z "},"Ë":{"ha":760,"x_min":90,"x_max":699,"o":"m 90 0 l 90 994 l 680 994 l 680 877 l 198 877 l 198 572 l 649 572 l 649 456 l 198 456 l 198 117 l 699 117 l 699 0 l 90 0 m 227 1114 l 227 1253 l 331 1253 l 331 1114 l 227 1114 m 434 1114 l 434 1253 l 538 1253 l 538 1114 l 434 1114 z "},"È":{"ha":760,"x_min":90,"x_max":699,"o":"m 90 0 l 90 994 l 680 994 l 680 877 l 198 877 l 198 572 l 649 572 l 649 456 l 198 456 l 198 117 l 699 117 l 699 0 l 90 0 m 443 1062 l 362 1062 l 234 1252 l 368 1252 l 443 1062 z "},"Í":{"ha":317,"x_min":102,"x_max":307,"o":"m 109 0 l 109 994 l 216 994 l 216 0 l 109 0 m 102 1062 l 176 1252 l 307 1252 l 184 1062 l 102 1062 z "},"Î":{"ha":317,"x_min":-16,"x_max":336,"o":"m 109 0 l 109 994 l 216 994 l 216 0 l 109 0 m 161 1178 l 98 1063 l -16 1063 l 104 1253 l 211 1253 l 336 1063 l 222 1063 l 161 1178 z "},"Ï":{"ha":317,"x_min":7,"x_max":319,"o":"m 109 0 l 109 994 l 216 994 l 216 0 l 109 0 m 7 1114 l 7 1253 l 111 1253 l 111 1114 l 7 1114 m 214 1114 l 214 1253 l 319 1253 l 319 1114 l 214 1114 z "},"Ì":{"ha":317,"x_min":33,"x_max":242,"o":"m 109 0 l 109 994 l 216 994 l 216 0 l 109 0 m 242 1062 l 161 1062 l 33 1252 l 168 1252 l 242 1062 z "},"Ó":{"ha":886,"x_min":58,"x_max":838,"o":"m 58 484 q 170 875 58 739 q 448 1012 281 1012 q 645 951 556 1012 q 786 773 734 890 q 838 496 838 657 q 737 136 838 275 q 448 -17 627 -17 q 157 140 267 -17 q 58 484 58 283 m 169 482 q 250 197 169 298 q 447 96 331 96 q 646 198 566 96 q 726 499 726 300 q 685 728 726 627 q 589 852 653 806 q 449 899 525 899 q 248 797 327 899 q 169 482 169 695 m 353 1062 l 427 1252 l 558 1252 l 436 1062 l 353 1062 z "},"Ô":{"ha":886,"x_min":58,"x_max":838,"o":"m 58 484 q 170 875 58 739 q 448 1012 281 1012 q 645 951 556 1012 q 786 773 734 890 q 838 496 838 657 q 737 136 838 275 q 448 -17 627 -17 q 157 140 267 -17 q 58 484 58 283 m 169 482 q 250 197 169 298 q 447 96 331 96 q 646 198 566 96 q 726 499 726 300 q 685 728 726 627 q 589 852 653 806 q 449 899 525 899 q 248 797 327 899 q 169 482 169 695 m 448 1178 l 385 1063 l 271 1063 l 391 1253 l 498 1253 l 623 1063 l 509 1063 l 448 1178 z "},"Ò":{"ha":886,"x_min":58,"x_max":838,"o":"m 58 484 q 170 875 58 739 q 448 1012 281 1012 q 645 951 556 1012 q 786 773 734 890 q 838 496 838 657 q 737 136 838 275 q 448 -17 627 -17 q 157 140 267 -17 q 58 484 58 283 m 169 482 q 250 197 169 298 q 447 96 331 96 q 646 198 566 96 q 726 499 726 300 q 685 728 726 627 q 589 852 653 806 q 449 899 525 899 q 248 797 327 899 q 169 482 169 695 m 521 1062 l 440 1062 l 312 1252 l 446 1252 l 521 1062 z "},"Ú":{"ha":822,"x_min":87,"x_max":729,"o":"m 621 994 l 729 994 l 729 420 q 701 183 729 275 q 598 37 673 90 q 410 -17 524 -17 q 168 79 248 -17 q 87 420 87 176 l 87 994 l 195 994 l 195 420 q 216 225 195 286 q 285 133 237 165 q 401 102 333 102 q 569 167 517 102 q 621 420 621 232 l 621 994 m 322 1062 l 396 1252 l 527 1252 l 405 1062 l 322 1062 z "},"Û":{"ha":822,"x_min":87,"x_max":729,"o":"m 621 994 l 729 994 l 729 420 q 701 183 729 275 q 598 37 673 90 q 410 -17 524 -17 q 168 79 248 -17 q 87 420 87 176 l 87 994 l 195 994 l 195 420 q 216 225 195 286 q 285 133 237 165 q 401 102 333 102 q 569 167 517 102 q 621 420 621 232 l 621 994 m 410 1178 l 348 1063 l 233 1063 l 353 1253 l 460 1253 l 585 1063 l 472 1063 l 410 1178 z "},"Ù":{"ha":822,"x_min":87,"x_max":729,"o":"m 621 994 l 729 994 l 729 420 q 701 183 729 275 q 598 37 673 90 q 410 -17 524 -17 q 168 79 248 -17 q 87 420 87 176 l 87 994 l 195 994 l 195 420 q 216 225 195 286 q 285 133 237 165 q 401 102 333 102 q 569 167 517 102 q 621 420 621 232 l 621 994 m 477 1062 l 396 1062 l 268 1252 l 402 1252 l 477 1062 z "},"ı":{"ha":317,"x_min":113,"x_max":212,"o":"m 113 0 l 113 720 l 212 720 l 212 0 l 113 0 z "},"ˆ":{"ha":379,"x_min":14,"x_max":366,"o":"m 191 925 l 128 810 l 14 810 l 134 1000 l 241 1000 l 366 810 l 252 810 l 191 925 z "},"˜":{"ha":379,"x_min":3,"x_max":376,"o":"m 4 827 q 37 941 3 899 q 117 981 69 981 q 211 945 152 981 q 263 924 243 924 q 291 936 281 924 q 304 983 300 948 l 376 983 q 343 867 374 905 q 267 829 313 829 q 175 867 233 829 q 121 891 138 891 q 90 875 102 891 q 78 827 78 859 l 4 827 z "},"ˉ":{"ha":379,"x_min":16,"x_max":363,"o":"m 16 832 l 16 932 l 363 932 l 363 832 l 16 832 z "},"˘":{"ha":379,"x_min":25,"x_max":354,"o":"m 286 993 l 354 993 q 301 861 345 905 q 189 817 257 817 q 78 861 121 817 q 25 993 34 905 l 94 993 q 186 901 109 901 q 254 923 230 901 q 286 993 277 945 z "},"˙":{"ha":379,"x_min":127,"x_max":252,"o":"m 127 810 l 127 962 l 252 962 l 252 810 l 127 810 z "},"˚":{"ha":379,"x_min":90,"x_max":290,"o":"m 90 907 q 120 994 90 958 q 191 1029 151 1029 q 260 994 230 1029 q 290 905 290 958 q 260 815 290 850 q 191 781 231 781 q 120 816 151 781 q 90 907 90 851 m 133 907 q 151 852 133 873 q 191 831 168 831 q 232 852 214 831 q 250 905 250 873 q 233 958 250 937 q 192 979 215 979 q 151 958 168 979 q 133 907 133 937 z "},"¸":{"ha":379,"x_min":60,"x_max":300,"o":"m 120 -104 l 149 16 l 224 16 l 205 -57 q 276 -92 251 -64 q 300 -159 300 -119 q 258 -249 300 -212 q 142 -286 216 -286 q 60 -277 94 -286 l 66 -198 q 121 -201 102 -201 q 187 -186 166 -201 q 208 -150 208 -172 q 189 -117 208 -129 q 120 -104 170 -105 z "},"˝":{"ha":379,"x_min":33,"x_max":425,"o":"m 33 810 l 100 1000 l 230 1000 l 113 810 l 33 810 m 225 810 l 296 1000 l 425 1000 l 309 810 l 225 810 z "},"˛":{"ha":379,"x_min":102,"x_max":345,"o":"m 125 16 l 193 16 q 172 -96 172 -44 q 195 -170 172 -142 q 252 -198 218 -198 q 345 -167 294 -198 l 345 -248 q 224 -288 280 -288 q 136 -249 170 -288 q 102 -137 102 -210 q 125 16 102 -79 z "},"ˇ":{"ha":379,"x_min":22,"x_max":374,"o":"m 199 884 l 261 1000 l 374 1000 l 250 810 l 142 810 l 22 1000 l 137 1000 l 199 884 z "},"Ł":{"ha":633,"x_min":-2,"x_max":591,"o":"m 79 383 l -2 300 l -2 413 l 79 497 l 79 994 l 186 994 l 186 609 l 297 722 l 297 608 l 186 496 l 186 117 l 591 117 l 591 0 l 79 0 l 79 383 z "},"ł":{"ha":253,"x_min":-1,"x_max":246,"o":"m 71 389 l -1 315 l -1 422 l 71 496 l 71 994 l 172 994 l 172 600 l 246 677 l 246 571 l 172 493 l 172 0 l 71 0 l 71 389 z "},"Š":{"ha":760,"x_min":52,"x_max":701,"o":"m 52 319 l 153 330 q 190 202 161 248 q 273 129 219 157 q 393 101 326 101 q 543 148 490 101 q 596 271 596 195 q 577 348 596 315 q 518 401 557 380 q 350 460 479 422 q 186 529 235 494 q 110 617 137 564 q 83 737 83 670 q 161 935 83 858 q 371 1011 239 1011 q 530 975 462 1011 q 636 872 598 939 q 676 714 673 805 l 572 705 q 514 848 564 802 q 374 895 465 895 q 235 854 283 895 q 186 748 186 813 q 222 654 186 688 q 380 587 257 621 q 550 530 501 554 q 663 430 625 492 q 701 281 701 368 q 661 126 701 196 q 552 19 621 56 q 386 -18 483 -18 q 145 73 235 -18 q 52 319 55 164 m 368 1137 l 429 1253 l 543 1253 l 418 1063 l 311 1063 l 191 1253 l 305 1253 l 368 1137 z "},"š":{"ha":570,"x_min":35,"x_max":526,"o":"m 35 215 l 134 234 q 182 121 143 158 q 287 84 222 84 q 388 116 352 84 q 423 198 423 149 q 393 264 423 241 q 291 305 372 281 q 135 366 174 341 q 74 433 96 391 q 52 529 52 475 q 111 679 52 621 q 275 736 170 736 q 390 713 340 736 q 467 649 440 689 q 503 534 493 609 l 406 518 q 277 636 392 636 q 180 610 212 636 q 149 543 149 584 q 179 480 149 503 q 288 437 197 467 q 448 373 412 397 q 505 310 485 350 q 526 214 526 269 q 460 47 526 111 q 281 -17 395 -17 q 35 215 69 -17 m 276 884 l 338 1000 l 451 1000 l 326 810 l 219 810 l 99 1000 l 214 1000 l 276 884 z "},"Ž":{"ha":696,"x_min":24,"x_max":669,"o":"m 24 0 l 24 122 l 442 759 q 527 877 486 825 l 71 877 l 71 994 l 655 994 l 655 877 l 198 187 l 149 117 l 669 117 l 669 0 l 24 0 m 366 1137 l 428 1253 l 541 1253 l 416 1063 l 309 1063 l 189 1253 l 304 1253 l 366 1137 z "},"ž":{"ha":570,"x_min":22,"x_max":545,"o":"m 22 0 l 22 99 l 399 625 q 286 621 334 621 l 45 621 l 45 720 l 528 720 l 528 640 l 208 182 l 146 99 q 272 105 213 105 l 545 105 l 545 0 l 22 0 m 279 884 l 340 1000 l 454 1000 l 329 810 l 222 810 l 102 1000 l 216 1000 l 279 884 z "},"¦":{"ha":296,"x_min":106,"x_max":193,"o":"m 193 1011 l 193 475 l 106 475 l 106 1011 l 193 1011 m 193 244 l 193 -292 l 106 -292 l 106 244 l 193 244 z "},"Ð":{"ha":822,"x_min":-4,"x_max":760,"o":"m 85 0 l 85 452 l -4 452 l -4 542 l 85 542 l 85 994 l 367 994 q 526 976 472 994 q 649 889 597 952 q 730 730 701 826 q 760 502 760 634 q 723 252 760 359 q 634 91 687 144 q 505 13 581 37 q 380 0 463 0 l 85 0 m 193 117 l 367 117 q 526 152 472 117 q 609 261 581 186 q 648 503 648 363 q 607 743 648 656 q 501 858 566 829 q 364 877 458 877 l 193 877 l 193 542 l 418 542 l 418 452 l 193 452 l 193 117 z "},"ð":{"ha":633,"x_min":39,"x_max":585,"o":"m 170 994 l 290 994 q 359 925 330 958 l 478 994 l 504 925 l 408 869 q 585 355 585 619 q 507 80 585 178 q 312 -17 429 -17 q 172 25 234 -17 q 74 145 110 67 q 39 350 39 223 q 112 626 39 531 q 290 720 184 720 q 346 712 321 720 q 408 680 371 704 q 329 825 376 759 l 176 739 l 151 808 l 285 882 q 170 994 231 943 m 482 359 q 432 558 482 489 q 308 627 381 627 q 189 558 236 627 q 141 347 141 490 q 190 148 141 214 q 311 83 239 83 q 432 153 382 83 q 482 359 482 222 z "},"Ý":{"ha":760,"x_min":3,"x_max":751,"o":"m 317 0 l 317 421 l 3 994 l 135 994 l 295 694 q 378 526 342 606 q 467 702 414 604 l 625 994 l 751 994 l 425 421 l 425 0 l 317 0 m 281 1062 l 355 1252 l 486 1252 l 363 1062 l 281 1062 z "},"ý":{"ha":570,"x_min":18,"x_max":559,"o":"m 71 -277 l 60 -163 q 117 -174 93 -174 q 169 -161 149 -174 q 203 -121 190 -148 q 243 -1 208 -111 l 18 720 l 126 720 l 250 303 q 292 136 273 225 q 333 300 309 220 l 459 720 l 559 720 l 335 -12 q 266 -202 291 -155 q 208 -271 240 -250 q 135 -292 176 -292 q 71 -277 106 -292 m 211 810 l 285 1000 l 416 1000 l 294 810 l 211 810 z "},"Þ":{"ha":760,"x_min":88,"x_max":711,"o":"m 88 0 l 88 994 l 196 994 l 196 792 l 395 792 q 556 772 505 792 q 669 677 627 747 q 711 506 711 607 q 642 287 711 372 q 405 202 574 202 l 196 202 l 196 0 l 88 0 m 196 319 l 407 319 q 553 365 507 319 q 599 500 599 410 q 576 601 599 559 q 521 659 553 643 q 405 675 489 675 l 196 675 l 196 319 z "},"þ":{"ha":633,"x_min":73,"x_max":586,"o":"m 73 -276 l 73 994 l 173 994 l 173 644 q 251 717 215 698 q 335 736 288 736 q 461 695 405 736 q 552 569 517 654 q 586 366 586 485 q 509 83 586 183 q 329 -16 432 -16 q 250 3 285 -16 q 173 75 214 22 l 173 -276 l 73 -276 m 163 356 q 210 150 163 216 q 323 84 257 84 q 435 153 387 84 q 484 364 484 221 q 437 573 484 505 q 323 641 390 641 q 213 568 262 641 q 163 356 163 495 z "},"−":{"ha":665,"x_min":62,"x_max":601,"o":"m 601 433 l 62 433 l 62 547 l 601 547 l 601 433 z "},"×":{"ha":665,"x_min":88,"x_max":573,"o":"m 88 277 l 264 491 l 89 704 l 157 787 l 332 574 l 505 786 l 572 704 l 398 492 l 573 279 l 505 196 l 330 409 l 155 195 l 88 277 z "},"¹":{"ha":379,"x_min":58,"x_max":264,"o":"m 183 497 l 183 873 q 58 796 126 818 l 58 880 q 135 929 93 893 q 203 1006 178 966 l 264 1006 l 264 497 l 183 497 z "},"²":{"ha":379,"x_min":14,"x_max":360,"o":"m 14 497 q 157 706 22 586 q 255 802 239 778 q 271 851 271 825 q 250 906 271 886 q 194 926 230 926 q 140 911 158 926 q 109 849 121 895 l 25 860 q 83 972 42 938 q 195 1006 123 1006 q 316 969 275 1006 q 357 867 357 931 q 323 760 357 810 q 211 645 298 722 q 145 579 165 604 l 360 579 l 360 497 l 14 497 z "},"³":{"ha":379,"x_min":18,"x_max":359,"o":"m 18 630 l 99 640 q 132 581 111 598 q 184 564 153 564 q 247 590 222 564 q 271 654 271 615 q 250 710 271 690 q 184 729 229 729 l 165 728 l 153 727 l 165 802 q 230 820 207 801 q 252 871 252 839 q 234 915 252 898 q 186 931 216 931 q 137 917 155 931 q 106 862 119 902 l 27 878 q 86 979 51 951 q 187 1006 121 1006 q 300 972 262 1006 q 339 880 339 938 q 319 812 339 840 q 262 771 298 783 q 359 642 359 742 q 313 530 359 574 q 191 485 267 485 q 18 630 42 485 z "},"½":{"ha":950,"x_min":58,"x_max":930,"o":"m 183 497 l 183 873 q 58 796 126 818 l 58 880 q 135 929 93 893 q 203 1006 178 966 l 264 1006 l 264 497 l 183 497 m 124 -39 l 736 1011 l 823 1011 l 212 -39 l 124 -39 m 583 -21 q 727 188 591 68 q 824 283 808 260 q 840 333 840 307 q 820 388 840 368 q 764 408 800 408 q 709 393 728 408 q 679 331 691 377 l 595 342 q 652 454 612 420 q 764 488 693 488 q 886 451 844 488 q 927 349 927 413 q 893 241 927 292 q 781 127 868 204 q 715 61 734 85 l 930 61 l 930 -21 l 583 -21 z "},"¼":{"ha":950,"x_min":58,"x_max":933,"o":"m 183 497 l 183 873 q 58 796 126 818 l 58 880 q 135 929 93 893 q 203 1006 178 966 l 264 1006 l 264 497 l 183 497 m 138 -39 l 750 1011 l 837 1011 l 225 -39 l 138 -39 m 795 -21 l 795 83 l 583 83 l 583 167 l 808 488 l 876 488 l 876 157 l 933 157 l 933 83 l 876 83 l 876 -21 l 795 -21 m 795 157 l 795 335 l 667 157 l 795 157 z "},"¾":{"ha":950,"x_min":18,"x_max":930,"o":"m 18 630 l 99 640 q 132 581 111 598 q 184 564 153 564 q 247 590 222 564 q 271 654 271 615 q 250 710 271 690 q 184 729 229 729 l 165 728 l 153 727 l 165 802 q 230 820 207 801 q 252 871 252 839 q 234 915 252 898 q 186 931 216 931 q 137 917 155 931 q 106 862 119 902 l 27 878 q 86 979 51 951 q 187 1006 121 1006 q 300 972 262 1006 q 339 880 339 938 q 319 812 339 840 q 262 771 298 783 q 359 642 359 742 q 313 530 359 574 q 191 485 267 485 q 18 630 42 485 m 138 -39 l 750 1011 l 837 1011 l 225 -39 l 138 -39 m 792 -21 l 792 83 l 580 83 l 580 167 l 805 488 l 873 488 l 873 157 l 930 157 l 930 83 l 873 83 l 873 -21 l 792 -21 m 792 157 l 792 335 l 665 157 l 792 157 z "},"₣":{"ha":700,"x_min":0,"x_max":644,"o":"m 94 182 l 0 182 l 0 271 l 94 271 l 94 994 l 644 994 l 644 877 l 201 877 l 201 569 l 584 569 l 584 452 l 201 452 l 201 271 l 399 271 l 399 182 l 201 182 l 201 0 l 94 0 l 94 182 z "},"Ğ":{"ha":886,"x_min":63,"x_max":817,"o":"m 472 390 l 472 507 l 817 507 l 817 138 q 653 22 738 61 q 479 -17 568 -17 q 266 43 359 -17 q 118 217 172 102 q 63 492 63 332 q 118 776 63 655 q 262 954 173 897 q 472 1011 351 1011 q 629 978 562 1011 q 739 884 696 945 q 804 716 783 823 l 707 684 q 658 809 688 768 q 579 875 628 851 q 469 899 530 899 q 316 856 380 899 q 213 722 252 812 q 174 500 174 631 q 258 201 174 300 q 475 102 341 102 q 605 132 538 102 q 711 205 672 163 l 711 390 l 472 390 m 543 1238 l 611 1238 q 558 1107 602 1151 q 446 1063 514 1063 q 335 1107 378 1063 q 282 1238 291 1151 l 351 1238 q 444 1147 366 1147 q 511 1168 487 1147 q 543 1238 534 1190 z "},"ğ":{"ha":633,"x_min":35,"x_max":555,"o":"m 54 -60 l 152 -77 q 193 -163 159 -135 q 287 -191 227 -191 q 392 -160 353 -191 q 445 -66 431 -128 q 454 94 454 -28 q 380 24 421 47 q 290 0 340 0 q 115 90 184 0 q 35 366 35 193 q 70 568 35 481 q 162 696 105 655 q 291 736 220 736 q 386 711 343 736 q 463 633 429 685 l 463 720 l 555 720 l 555 98 q 528 -139 555 -68 q 439 -251 500 -210 q 290 -292 377 -292 q 114 -231 176 -292 q 54 -60 52 -169 m 138 373 q 184 166 138 231 q 299 101 231 101 q 414 165 367 101 q 462 368 462 229 q 413 569 462 503 q 294 635 364 635 q 185 569 232 635 q 138 373 138 503 m 391 993 l 459 993 q 406 861 450 905 q 294 817 362 817 q 183 861 227 817 q 130 993 139 905 l 199 993 q 292 901 214 901 q 359 923 335 901 q 391 993 382 945 z "},"İ":{"ha":317,"x_min":101,"x_max":225,"o":"m 109 0 l 109 994 l 216 994 l 216 0 l 109 0 m 101 1063 l 101 1215 l 225 1215 l 225 1063 l 101 1063 z "},"Ş":{"ha":760,"x_min":52,"x_max":701,"o":"m 52 319 l 153 330 q 190 202 161 248 q 273 129 219 157 q 393 101 326 101 q 543 148 490 101 q 596 271 596 195 q 577 348 596 315 q 518 401 557 380 q 350 460 479 422 q 186 529 235 494 q 110 617 137 564 q 83 737 83 670 q 161 935 83 858 q 371 1011 239 1011 q 530 975 462 1011 q 636 872 598 939 q 676 714 673 805 l 572 705 q 514 848 564 802 q 374 895 465 895 q 235 854 283 895 q 186 748 186 813 q 222 654 186 688 q 380 587 257 621 q 550 530 501 554 q 663 430 625 492 q 701 281 701 368 q 661 126 701 196 q 552 19 621 56 q 386 -18 483 -18 q 145 73 235 -18 q 52 319 55 164 m 298 -104 l 328 16 l 402 16 l 383 -57 q 454 -92 429 -64 q 479 -159 479 -119 q 436 -249 479 -212 q 321 -286 394 -286 q 238 -277 273 -286 l 244 -198 q 299 -201 280 -201 q 365 -186 345 -201 q 386 -150 386 -172 q 367 -117 386 -129 q 298 -104 349 -105 z "},"ş":{"ha":570,"x_min":35,"x_max":526,"o":"m 35 215 l 134 234 q 182 121 143 158 q 287 84 222 84 q 388 116 352 84 q 423 198 423 149 q 393 264 423 241 q 291 305 372 281 q 135 366 174 341 q 74 433 96 391 q 52 529 52 475 q 111 679 52 621 q 275 736 170 736 q 390 713 340 736 q 467 649 440 689 q 503 534 493 609 l 406 518 q 277 636 392 636 q 180 610 212 636 q 149 543 149 584 q 179 480 149 503 q 288 437 197 467 q 448 373 412 397 q 505 310 485 350 q 526 214 526 269 q 460 47 526 111 q 281 -17 395 -17 q 35 215 69 -17 m 196 -104 l 225 16 l 300 16 l 281 -57 q 352 -92 327 -64 q 376 -159 376 -119 q 334 -249 376 -212 q 218 -286 292 -286 q 136 -277 170 -286 l 142 -198 q 197 -201 178 -201 q 263 -186 242 -201 q 283 -150 283 -172 q 265 -117 283 -129 q 196 -104 246 -105 z "},"Ć":{"ha":822,"x_min":54,"x_max":775,"o":"m 667 349 l 775 315 q 649 65 739 148 q 431 -17 559 -17 q 237 38 317 -17 q 105 216 157 94 q 54 504 54 338 q 105 782 54 668 q 244 953 157 895 q 439 1011 332 1011 q 642 938 557 1011 q 761 722 727 864 l 655 691 q 437 899 601 899 q 296 857 356 899 q 201 727 237 815 q 165 504 165 639 q 237 198 165 300 q 429 96 309 96 q 581 158 517 96 q 667 349 645 221 m 329 1062 l 403 1252 l 534 1252 l 412 1062 l 329 1062 z "},"ć":{"ha":570,"x_min":44,"x_max":559,"o":"m 460 264 l 559 248 q 474 52 542 119 q 310 -16 406 -16 q 119 79 194 -16 q 44 361 44 174 q 120 643 44 549 q 314 736 195 736 q 468 680 406 736 q 549 509 531 623 l 452 490 q 402 600 437 564 q 317 636 367 636 q 195 571 243 636 q 146 363 146 505 q 193 150 146 216 q 312 84 239 84 q 409 128 369 84 q 460 264 450 172 m 219 810 l 293 1000 l 424 1000 l 302 810 l 219 810 z "},"Č":{"ha":822,"x_min":54,"x_max":775,"o":"m 667 349 l 775 315 q 649 65 739 148 q 431 -17 559 -17 q 237 38 317 -17 q 105 216 157 94 q 54 504 54 338 q 105 782 54 668 q 244 953 157 895 q 439 1011 332 1011 q 642 938 557 1011 q 761 722 727 864 l 655 691 q 437 899 601 899 q 296 857 356 899 q 201 727 237 815 q 165 504 165 639 q 237 198 165 300 q 429 96 309 96 q 581 158 517 96 q 667 349 645 221 m 424 1137 l 486 1253 l 599 1253 l 474 1063 l 367 1063 l 247 1253 l 361 1253 l 424 1137 z "},"č":{"ha":570,"x_min":44,"x_max":559,"o":"m 460 264 l 559 248 q 474 52 542 119 q 310 -16 406 -16 q 119 79 194 -16 q 44 361 44 174 q 120 643 44 549 q 314 736 195 736 q 468 680 406 736 q 549 509 531 623 l 452 490 q 402 600 437 564 q 317 636 367 636 q 195 571 243 636 q 146 363 146 505 q 193 150 146 216 q 312 84 239 84 q 409 128 369 84 q 460 264 450 172 m 319 884 l 381 1000 l 494 1000 l 370 810 l 262 810 l 142 1000 l 257 1000 l 319 884 z "},"đ":{"ha":629,"x_min":39,"x_max":632,"o":"m 452 830 l 260 830 l 260 901 l 452 901 l 452 994 l 552 994 l 552 901 l 632 901 l 632 830 l 552 830 l 552 0 l 458 0 l 458 91 q 389 11 431 39 q 296 -16 346 -16 q 116 82 192 -16 q 39 360 39 181 q 73 568 39 483 q 164 695 107 654 q 290 736 220 736 q 381 710 339 736 q 452 637 424 684 l 452 830 m 142 359 q 190 152 142 220 q 303 84 239 84 q 414 149 367 84 q 460 346 460 214 q 414 567 460 497 q 296 636 367 636 q 187 569 233 636 q 142 359 142 503 z "},"¯":{"ha":694,"x_min":-8,"x_max":703,"o":"m -8 1168 l 703 1168 l 703 1098 l -8 1098 l -8 1168 z "},"·":{"ha":378,"x_min":133,"x_max":247,"o":"m 133 432 l 133 571 l 247 571 l 247 432 l 133 432 z "},"Ă":{"ha":760,"x_min":-1,"x_max":762,"o":"m -1 0 l 312 994 l 428 994 l 762 0 l 638 0 l 543 301 l 203 301 l 113 0 l -1 0 m 234 408 l 510 408 l 425 684 q 368 890 386 810 q 323 700 352 794 l 234 408 m 465 1239 l 534 1239 q 481 1107 525 1152 q 369 1063 437 1063 q 257 1107 301 1063 q 205 1239 214 1152 l 273 1239 q 366 1147 289 1147 q 433 1169 410 1147 q 465 1239 457 1191 z "},"ă":{"ha":633,"x_min":39,"x_max":583,"o":"m 458 89 q 354 10 408 37 q 241 -16 300 -16 q 94 39 149 -16 q 39 189 39 95 q 65 300 39 252 q 136 375 91 348 q 271 415 180 402 q 450 457 393 433 l 451 488 q 425 592 451 562 q 310 635 387 635 q 205 607 240 635 q 155 498 171 578 l 56 515 q 141 684 77 631 q 325 736 205 736 q 471 702 418 736 q 537 615 524 667 q 551 465 551 564 l 551 302 q 558 86 551 131 q 583 0 564 42 l 479 0 q 458 89 463 37 m 450 361 q 287 315 395 334 q 199 291 224 304 q 160 251 174 277 q 146 193 146 226 q 178 110 146 141 q 266 79 210 79 q 363 107 319 79 q 429 181 407 135 q 450 317 450 228 l 450 361 m 403 993 l 471 993 q 418 861 463 905 q 307 817 374 817 q 195 861 239 817 q 142 993 151 905 l 211 993 q 304 901 227 901 q 371 923 347 901 q 403 993 395 945 z "},"Ą":{"ha":760,"x_min":-1,"x_max":882,"o":"m -1 0 l 312 994 l 428 994 l 762 0 l 638 0 l 543 301 l 203 301 l 113 0 l -1 0 m 234 408 l 510 408 l 425 684 q 368 890 386 810 q 323 700 352 794 l 234 408 m 661 16 l 730 16 q 709 -96 709 -44 q 732 -170 709 -142 q 789 -198 755 -198 q 882 -167 831 -198 l 882 -248 q 760 -288 817 -288 q 672 -249 707 -288 q 638 -137 638 -210 q 661 16 638 -79 z "},"ą":{"ha":633,"x_min":39,"x_max":720,"o":"m 458 89 q 354 10 408 37 q 241 -16 300 -16 q 94 39 149 -16 q 39 189 39 95 q 65 300 39 252 q 136 375 91 348 q 271 415 180 402 q 450 457 393 433 l 451 488 q 425 592 451 562 q 310 635 387 635 q 205 607 240 635 q 155 498 171 578 l 56 515 q 141 684 77 631 q 325 736 205 736 q 471 702 418 736 q 537 615 524 667 q 551 465 551 564 l 551 302 q 558 86 551 131 q 583 0 564 42 l 479 0 q 458 89 463 37 m 450 361 q 287 315 395 334 q 199 291 224 304 q 160 251 174 277 q 146 193 146 226 q 178 110 146 141 q 266 79 210 79 q 363 107 319 79 q 429 181 407 135 q 450 317 450 228 l 450 361 m 500 16 l 568 16 q 547 -96 547 -44 q 570 -170 547 -142 q 627 -198 593 -198 q 720 -167 669 -198 l 720 -248 q 599 -288 655 -288 q 511 -249 545 -288 q 477 -137 477 -210 q 500 16 477 -79 z "},"Ď":{"ha":822,"x_min":85,"x_max":760,"o":"m 85 0 l 85 994 l 367 994 q 526 976 471 994 q 649 889 597 952 q 730 730 701 826 q 760 503 760 634 q 710 216 760 334 q 583 49 661 98 q 380 0 505 0 l 85 0 m 193 117 l 367 117 q 526 152 472 117 q 610 262 581 186 q 648 504 648 363 q 607 742 648 655 q 502 857 566 828 q 364 877 458 877 l 193 877 l 193 117 m 395 1137 l 456 1253 l 570 1253 l 445 1063 l 338 1063 l 218 1253 l 332 1253 l 395 1137 z "},"ď":{"ha":700,"x_min":37,"x_max":703,"o":"m 456 0 l 456 91 q 387 11 429 39 q 294 -16 344 -16 q 114 82 190 -16 q 37 360 37 181 q 71 568 37 483 q 162 695 105 654 q 288 736 218 736 q 379 710 337 736 q 450 637 422 684 l 450 994 l 550 994 l 550 0 l 456 0 m 140 359 q 188 152 140 220 q 301 84 237 84 q 412 149 365 84 q 458 346 458 214 q 412 567 458 497 q 294 636 365 636 q 185 569 231 636 q 140 359 140 503 m 600 870 l 600 995 l 703 995 l 703 870 q 619 716 703 761 l 594 763 q 651 870 647 792 l 600 870 z "},"Đ":{"ha":822,"x_min":-4,"x_max":760,"o":"m 85 0 l 85 452 l -4 452 l -4 542 l 85 542 l 85 994 l 367 994 q 526 976 472 994 q 649 889 597 952 q 730 730 701 826 q 760 502 760 634 q 723 252 760 359 q 634 91 687 144 q 505 13 581 37 q 380 0 463 0 l 85 0 m 193 117 l 367 117 q 526 152 472 117 q 609 261 581 186 q 648 503 648 363 q 607 743 648 656 q 501 858 566 829 q 364 877 458 877 l 193 877 l 193 542 l 418 542 l 418 452 l 193 452 l 193 117 z "},"Ę":{"ha":760,"x_min":90,"x_max":699,"o":"m 90 0 l 90 994 l 680 994 l 680 877 l 198 877 l 198 572 l 649 572 l 649 456 l 198 456 l 198 117 l 699 117 l 699 0 l 90 0 m 421 16 l 490 16 q 469 -96 469 -44 q 492 -170 469 -142 q 549 -198 515 -198 q 642 -167 591 -198 l 642 -248 q 520 -288 576 -288 q 432 -249 467 -288 q 398 -137 398 -210 q 421 16 398 -79 z "},"ę":{"ha":633,"x_min":39,"x_max":584,"o":"m 477 232 l 581 216 q 487 42 555 101 q 320 -16 420 -16 q 117 79 195 -16 q 39 354 39 174 q 118 638 39 541 q 316 736 196 736 q 507 640 431 736 q 584 361 584 544 l 583 329 l 142 329 q 199 146 149 208 q 321 84 249 84 q 477 232 433 84 m 149 429 l 478 429 q 438 569 471 523 q 315 636 390 636 q 201 580 248 636 q 149 429 153 524 m 279 16 l 348 16 q 327 -96 327 -44 q 350 -170 327 -142 q 407 -198 373 -198 q 500 -167 449 -198 l 500 -248 q 378 -288 435 -288 q 291 -249 325 -288 q 256 -137 256 -210 q 279 16 256 -79 z "},"Ě":{"ha":760,"x_min":90,"x_max":699,"o":"m 90 0 l 90 994 l 680 994 l 680 877 l 198 877 l 198 572 l 649 572 l 649 456 l 198 456 l 198 117 l 699 117 l 699 0 l 90 0 m 399 1137 l 460 1253 l 574 1253 l 449 1063 l 342 1063 l 222 1253 l 336 1253 l 399 1137 z "},"ě":{"ha":633,"x_min":39,"x_max":584,"o":"m 477 232 l 581 216 q 487 42 555 101 q 320 -16 420 -16 q 117 79 195 -16 q 39 354 39 174 q 118 638 39 541 q 316 736 196 736 q 507 640 431 736 q 584 361 584 544 l 583 329 l 142 329 q 199 146 149 208 q 321 84 249 84 q 477 232 433 84 m 149 429 l 478 429 q 438 569 471 523 q 315 636 390 636 q 201 580 248 636 q 149 429 153 524 m 312 884 l 374 1000 l 487 1000 l 362 810 l 255 810 l 135 1000 l 250 1000 l 312 884 z "},"Ĺ":{"ha":633,"x_min":81,"x_max":591,"o":"m 81 0 l 81 994 l 189 994 l 189 117 l 591 117 l 591 0 l 81 0 m 283 1062 l 357 1252 l 488 1252 l 366 1062 l 283 1062 z "},"ĺ":{"ha":253,"x_min":71,"x_max":277,"o":"m 71 0 l 71 994 l 170 994 l 170 0 l 71 0 m 72 1062 l 146 1252 l 277 1252 l 155 1062 l 72 1062 z "},"Ľ":{"ha":633,"x_min":81,"x_max":591,"o":"m 81 0 l 81 994 l 189 994 l 189 117 l 591 117 l 591 0 l 81 0 m 391 878 l 391 1003 l 494 1003 l 494 878 q 410 724 494 769 l 385 771 q 442 878 438 800 l 391 878 z "},"ľ":{"ha":332,"x_min":71,"x_max":331,"o":"m 71 0 l 71 994 l 170 994 l 170 0 l 71 0 m 229 878 l 229 1003 l 331 1003 l 331 878 q 248 724 331 769 l 222 771 q 279 878 275 800 l 229 878 z "},"Ŀ":{"ha":633,"x_min":81,"x_max":591,"o":"m 81 0 l 81 994 l 189 994 l 189 117 l 591 117 l 591 0 l 81 0 m 296 432 l 296 571 l 410 571 l 410 432 l 296 432 z "},"ŀ":{"ha":448,"x_min":71,"x_max":342,"o":"m 71 0 l 71 994 l 170 994 l 170 0 l 71 0 m 228 432 l 228 571 l 342 571 l 342 432 l 228 432 z "},"Ń":{"ha":822,"x_min":85,"x_max":727,"o":"m 85 0 l 85 994 l 195 994 l 624 214 l 624 994 l 727 994 l 727 0 l 616 0 l 189 781 l 189 0 l 85 0 m 334 1062 l 408 1252 l 538 1252 l 416 1062 l 334 1062 z "},"ń":{"ha":633,"x_min":73,"x_max":553,"o":"m 73 0 l 73 720 l 163 720 l 163 618 q 243 707 196 677 q 351 736 290 736 q 439 718 399 736 q 504 669 479 699 q 541 591 529 639 q 553 443 553 543 l 553 0 l 453 0 l 453 438 q 439 554 453 517 q 397 611 426 591 q 330 631 368 631 q 216 577 258 631 q 173 393 173 524 l 173 0 l 73 0 m 256 810 l 330 1000 l 460 1000 l 338 810 l 256 810 z "},"Ň":{"ha":822,"x_min":85,"x_max":727,"o":"m 85 0 l 85 994 l 195 994 l 624 214 l 624 994 l 727 994 l 727 0 l 616 0 l 189 781 l 189 0 l 85 0 m 406 1137 l 468 1253 l 581 1253 l 456 1063 l 349 1063 l 229 1253 l 344 1253 l 406 1137 z "},"ň":{"ha":633,"x_min":73,"x_max":553,"o":"m 73 0 l 73 720 l 163 720 l 163 618 q 243 707 196 677 q 351 736 290 736 q 439 718 399 736 q 504 669 479 699 q 541 591 529 639 q 553 443 553 543 l 553 0 l 453 0 l 453 438 q 439 554 453 517 q 397 611 426 591 q 330 631 368 631 q 216 577 258 631 q 173 393 173 524 l 173 0 l 73 0 m 321 884 l 382 1000 l 496 1000 l 371 810 l 264 810 l 144 1000 l 258 1000 l 321 884 z "},"Ő":{"ha":886,"x_min":58,"x_max":838,"o":"m 58 484 q 170 875 58 739 q 448 1012 281 1012 q 645 951 556 1012 q 786 773 734 890 q 838 496 838 657 q 737 136 838 275 q 448 -17 627 -17 q 157 140 267 -17 q 58 484 58 283 m 169 482 q 250 197 169 298 q 447 96 331 96 q 646 198 566 96 q 726 499 726 300 q 685 728 726 627 q 589 852 653 806 q 449 899 525 899 q 248 797 327 899 q 169 482 169 695 m 285 1062 l 352 1252 l 482 1252 l 365 1062 l 285 1062 m 477 1062 l 548 1252 l 677 1252 l 562 1062 l 477 1062 z "},"ő":{"ha":633,"x_min":36,"x_max":589,"o":"m 36 360 q 114 642 36 547 q 313 736 193 736 q 510 642 431 736 q 589 368 589 547 q 511 79 589 174 q 313 -16 433 -16 q 115 79 194 -16 q 36 360 36 174 m 138 360 q 189 152 138 220 q 315 84 240 84 q 436 153 386 84 q 487 360 487 222 q 436 567 487 499 q 310 635 385 635 q 189 567 239 635 q 138 360 138 498 m 149 810 l 216 1000 l 347 1000 l 229 810 l 149 810 m 342 810 l 412 1000 l 541 1000 l 426 810 l 342 810 z "},"Ŕ":{"ha":822,"x_min":87,"x_max":806,"o":"m 87 0 l 87 994 l 449 994 q 616 966 562 994 q 705 874 670 939 q 739 724 739 809 q 681 541 739 611 q 510 452 622 471 q 579 397 555 425 q 664 271 627 340 l 806 0 l 671 0 l 562 207 q 467 370 499 328 q 405 427 435 412 q 320 441 374 441 l 195 441 l 195 0 l 87 0 m 195 555 l 427 555 q 543 574 503 555 q 605 631 582 592 q 628 723 628 671 q 584 841 628 798 q 453 884 540 884 l 195 884 l 195 555 m 315 1062 l 389 1252 l 520 1252 l 398 1062 l 315 1062 z "},"ŕ":{"ha":379,"x_min":73,"x_max":394,"o":"m 73 0 l 73 720 l 163 720 l 163 611 q 227 712 198 687 q 292 736 256 736 q 394 697 342 736 l 360 584 q 288 610 323 610 q 229 588 256 610 q 192 526 203 566 q 173 377 173 456 l 173 0 l 73 0 m 170 810 l 243 1000 l 374 1000 l 252 810 l 170 810 z "},"Ř":{"ha":822,"x_min":87,"x_max":806,"o":"m 87 0 l 87 994 l 449 994 q 616 966 562 994 q 705 874 670 939 q 739 724 739 809 q 681 541 739 611 q 510 452 622 471 q 579 397 555 425 q 664 271 627 340 l 806 0 l 671 0 l 562 207 q 467 370 499 328 q 405 427 435 412 q 320 441 374 441 l 195 441 l 195 0 l 87 0 m 195 555 l 427 555 q 543 574 503 555 q 605 631 582 592 q 628 723 628 671 q 584 841 628 798 q 453 884 540 884 l 195 884 l 195 555 m 389 1137 l 450 1253 l 564 1253 l 439 1063 l 332 1063 l 212 1253 l 326 1253 l 389 1137 z "},"ř":{"ha":379,"x_min":58,"x_max":410,"o":"m 73 0 l 73 720 l 163 720 l 163 611 q 227 712 198 687 q 292 736 256 736 q 394 697 342 736 l 360 584 q 288 610 323 610 q 229 588 256 610 q 192 526 203 566 q 173 377 173 456 l 173 0 l 73 0 m 235 884 l 296 1000 l 410 1000 l 285 810 l 178 810 l 58 1000 l 172 1000 l 235 884 z "},"Ś":{"ha":760,"x_min":52,"x_max":701,"o":"m 52 319 l 153 330 q 190 202 161 248 q 273 129 219 157 q 393 101 326 101 q 543 148 490 101 q 596 271 596 195 q 577 348 596 315 q 518 401 557 380 q 350 460 479 422 q 186 529 235 494 q 110 617 137 564 q 83 737 83 670 q 161 935 83 858 q 371 1011 239 1011 q 530 975 462 1011 q 636 872 598 939 q 676 714 673 805 l 572 705 q 514 848 564 802 q 374 895 465 895 q 235 854 283 895 q 186 748 186 813 q 222 654 186 688 q 380 587 257 621 q 550 530 501 554 q 663 430 625 492 q 701 281 701 368 q 661 126 701 196 q 552 19 621 56 q 386 -18 483 -18 q 145 73 235 -18 q 52 319 55 164 m 286 1062 l 359 1252 l 490 1252 l 368 1062 l 286 1062 z "},"ś":{"ha":570,"x_min":35,"x_max":526,"o":"m 35 215 l 134 234 q 182 121 143 158 q 287 84 222 84 q 388 116 352 84 q 423 198 423 149 q 393 264 423 241 q 291 305 372 281 q 135 366 174 341 q 74 433 96 391 q 52 529 52 475 q 111 679 52 621 q 275 736 170 736 q 390 713 340 736 q 467 649 440 689 q 503 534 493 609 l 406 518 q 277 636 392 636 q 180 610 212 636 q 149 543 149 584 q 179 480 149 503 q 288 437 197 467 q 448 373 412 397 q 505 310 485 350 q 526 214 526 269 q 460 47 526 111 q 281 -17 395 -17 q 35 215 69 -17 m 199 810 l 273 1000 l 404 1000 l 281 810 l 199 810 z "},"Ţ":{"ha":696,"x_min":28,"x_max":675,"o":"m 297 0 l 297 877 l 28 877 l 28 994 l 675 994 l 675 877 l 405 877 l 405 0 l 297 0 m 290 -104 l 319 16 l 393 16 l 374 -57 q 445 -92 420 -64 q 470 -159 470 -119 q 428 -249 470 -212 q 312 -286 385 -286 q 229 -277 264 -286 l 235 -198 q 290 -201 271 -201 q 356 -186 336 -201 q 377 -150 377 -172 q 358 -117 377 -129 q 290 -104 340 -105 z "},"ţ":{"ha":317,"x_min":22,"x_max":341,"o":"m 296 109 l 310 1 q 235 -9 269 -9 q 151 11 183 -9 q 107 68 119 32 q 96 211 96 104 l 96 625 l 22 625 l 22 720 l 96 720 l 96 899 l 195 972 l 195 720 l 296 720 l 296 625 l 195 625 l 195 204 q 204 129 195 146 q 252 104 217 104 q 296 109 269 104 m 161 -104 l 190 16 l 264 16 l 245 -57 q 316 -92 292 -64 q 341 -159 341 -119 q 299 -249 341 -212 q 183 -286 256 -286 q 100 -277 135 -286 l 106 -198 q 161 -201 142 -201 q 228 -186 207 -201 q 248 -150 248 -172 q 230 -117 248 -129 q 161 -104 211 -105 z "},"Ť":{"ha":696,"x_min":28,"x_max":675,"o":"m 297 0 l 297 877 l 28 877 l 28 994 l 675 994 l 675 877 l 405 877 l 405 0 l 297 0 m 355 1137 l 416 1253 l 530 1253 l 405 1063 l 298 1063 l 178 1253 l 292 1253 l 355 1137 z "},"ť":{"ha":427,"x_min":22,"x_max":426,"o":"m 296 109 l 310 1 q 235 -9 269 -9 q 151 11 183 -9 q 107 68 119 32 q 96 211 96 104 l 96 625 l 22 625 l 22 720 l 96 720 l 96 899 l 195 972 l 195 720 l 296 720 l 296 625 l 195 625 l 195 204 q 204 129 195 146 q 252 104 217 104 q 296 109 269 104 m 323 878 l 323 1003 l 426 1003 l 426 878 q 342 724 426 769 l 317 771 q 374 878 370 800 l 323 878 z "},"Ů":{"ha":822,"x_min":87,"x_max":729,"o":"m 621 994 l 729 994 l 729 420 q 701 183 729 275 q 598 37 673 90 q 410 -17 524 -17 q 168 79 248 -17 q 87 420 87 176 l 87 994 l 195 994 l 195 420 q 216 225 195 286 q 285 133 237 165 q 401 102 333 102 q 569 167 517 102 q 621 420 621 232 l 621 994 m 307 1190 q 337 1276 307 1240 q 408 1311 368 1311 q 477 1276 447 1311 q 507 1187 507 1240 q 477 1098 507 1133 q 408 1063 448 1063 q 337 1098 368 1063 q 307 1190 307 1133 m 350 1189 q 368 1135 350 1156 q 408 1114 385 1114 q 449 1135 431 1114 q 467 1187 467 1156 q 450 1240 467 1219 q 409 1261 432 1261 q 368 1240 385 1261 q 350 1189 350 1219 z "},"ů":{"ha":633,"x_min":71,"x_max":550,"o":"m 460 0 l 460 106 q 379 14 426 45 q 273 -16 332 -16 q 154 21 203 -16 q 88 117 104 59 q 71 274 71 174 l 71 720 l 171 720 l 171 321 q 182 172 171 210 q 223 112 193 134 q 292 89 254 89 q 410 148 364 89 q 450 334 450 199 l 450 720 l 550 720 l 550 0 l 460 0 m 211 910 q 241 996 211 961 q 311 1031 271 1031 q 381 996 351 1031 q 411 907 411 961 q 381 818 411 853 q 311 783 351 783 q 241 819 271 783 q 211 910 211 854 m 254 909 q 271 855 254 876 q 312 834 289 834 q 353 855 335 834 q 371 908 371 876 q 353 961 371 940 q 313 982 336 982 q 271 961 289 982 q 254 909 254 940 z "},"Ű":{"ha":822,"x_min":87,"x_max":729,"o":"m 621 994 l 729 994 l 729 420 q 701 183 729 275 q 598 37 673 90 q 410 -17 524 -17 q 168 79 248 -17 q 87 420 87 176 l 87 994 l 195 994 l 195 420 q 216 225 195 286 q 285 133 237 165 q 401 102 333 102 q 569 167 517 102 q 621 420 621 232 l 621 994 m 258 1062 l 325 1252 l 455 1252 l 338 1062 l 258 1062 m 450 1062 l 521 1252 l 650 1252 l 534 1062 l 450 1062 z "},"ű":{"ha":633,"x_min":71,"x_max":550,"o":"m 460 0 l 460 106 q 379 14 426 45 q 273 -16 332 -16 q 154 21 203 -16 q 88 117 104 59 q 71 274 71 174 l 71 720 l 171 720 l 171 321 q 182 172 171 210 q 223 112 193 134 q 292 89 254 89 q 410 148 364 89 q 450 334 450 199 l 450 720 l 550 720 l 550 0 l 460 0 m 151 810 l 218 1000 l 349 1000 l 231 810 l 151 810 m 344 810 l 414 1000 l 543 1000 l 428 810 l 344 810 z "},"Ź":{"ha":696,"x_min":24,"x_max":669,"o":"m 24 0 l 24 122 l 442 759 q 527 877 486 825 l 71 877 l 71 994 l 655 994 l 655 877 l 198 187 l 149 117 l 669 117 l 669 0 l 24 0 m 297 1062 l 371 1252 l 502 1252 l 380 1062 l 297 1062 z "},"ź":{"ha":570,"x_min":22,"x_max":545,"o":"m 22 0 l 22 99 l 399 625 q 286 621 334 621 l 45 621 l 45 720 l 528 720 l 528 640 l 208 182 l 146 99 q 272 105 213 105 l 545 105 l 545 0 l 22 0 m 191 810 l 265 1000 l 396 1000 l 274 810 l 191 810 z "},"Ż":{"ha":696,"x_min":24,"x_max":669,"o":"m 24 0 l 24 122 l 442 759 q 527 877 486 825 l 71 877 l 71 994 l 655 994 l 655 877 l 198 187 l 149 117 l 669 117 l 669 0 l 24 0 m 303 1061 l 303 1213 l 427 1213 l 427 1061 l 303 1061 z "},"ż":{"ha":570,"x_min":22,"x_max":545,"o":"m 22 0 l 22 99 l 399 625 q 286 621 334 621 l 45 621 l 45 720 l 528 720 l 528 640 l 208 182 l 146 99 q 272 105 213 105 l 545 105 l 545 0 l 22 0 m 214 810 l 214 962 l 338 962 l 338 810 l 214 810 z "},"Γ":{"ha":608,"x_min":90,"x_max":584,"o":"m 90 995 l 584 995 l 584 877 l 197 877 l 197 0 l 90 0 l 90 995 z "},"Θ":{"ha":833,"x_min":56,"x_max":779,"o":"m 422 1019 q 599 966 522 1019 q 727 798 676 913 q 779 496 779 682 q 742 235 779 357 q 622 43 705 113 q 419 -27 539 -27 q 150 116 243 -27 q 56 498 56 258 q 146 873 56 726 q 422 1019 237 1019 m 422 912 q 235 806 299 912 q 170 500 170 700 q 234 186 170 293 q 415 80 298 80 q 665 505 665 80 q 600 805 665 697 q 422 912 536 912 m 265 562 l 570 562 l 570 449 l 265 449 l 265 562 z "},"Φ":{"ha":920,"x_min":48,"x_max":873,"o":"m 408 1019 l 515 1019 l 515 888 q 873 491 873 872 q 515 93 873 108 l 515 -119 l 408 -119 l 408 93 q 48 491 48 109 q 408 888 48 873 l 408 1019 m 408 783 q 165 490 165 781 q 408 196 165 213 l 408 783 m 515 783 l 515 196 q 698 276 640 199 q 757 491 757 353 q 515 783 757 778 z "},"α":{"ha":687,"x_min":38,"x_max":647,"o":"m 509 130 q 302 -19 433 -19 q 156 32 218 -19 q 66 168 94 83 q 38 346 38 254 q 110 627 38 522 q 306 732 182 732 q 507 599 442 732 l 531 721 l 640 721 q 600 372 600 546 q 647 0 600 168 l 535 0 q 509 130 517 76 m 325 639 q 197 562 239 639 q 155 360 155 485 q 199 151 155 227 q 325 75 243 75 q 496 361 496 75 q 450 569 496 498 q 325 639 404 639 z "},"δ":{"ha":633,"x_min":40,"x_max":595,"o":"m 97 907 l 97 994 l 543 994 l 543 896 l 231 896 q 373 754 282 833 q 504 631 464 675 q 569 520 543 587 q 595 358 595 454 q 520 84 595 184 q 321 -16 445 -16 q 115 84 191 -16 q 40 350 40 183 q 107 607 40 509 q 288 711 174 705 q 97 907 222 769 m 317 616 q 192 543 241 616 q 143 349 143 469 q 194 158 143 231 q 319 85 244 85 q 444 156 396 85 q 492 350 492 227 q 443 545 492 474 q 317 616 395 616 z "},"ε":{"ha":494,"x_min":35,"x_max":461,"o":"m 285 419 l 306 419 l 306 321 l 288 321 q 138 201 138 321 q 169 118 138 151 q 244 85 199 85 q 389 174 319 85 l 461 98 q 361 11 412 38 q 235 -16 311 -16 q 89 45 144 -16 q 35 196 35 105 q 132 372 35 322 q 50 532 50 427 q 103 677 50 618 q 245 736 155 736 q 440 639 359 736 l 368 568 q 240 631 299 631 q 171 602 197 631 q 146 532 146 573 q 285 419 146 419 z "},"σ":{"ha":758,"x_min":38,"x_max":736,"o":"m 547 618 q 626 359 626 526 q 549 84 626 186 q 334 -19 471 -19 q 115 85 192 -19 q 38 358 38 189 q 117 633 38 534 q 317 732 197 732 q 405 727 341 732 q 478 722 429 724 l 736 722 l 736 618 l 547 618 m 336 648 q 153 348 153 648 q 199 147 153 221 q 330 73 245 73 q 466 149 420 73 q 511 364 511 224 q 466 571 511 494 q 336 648 422 648 z "},"τ":{"ha":435,"x_min":18,"x_max":416,"o":"m 416 621 l 273 621 l 273 0 l 174 0 l 174 621 l 18 621 l 18 720 l 416 720 l 416 621 z "},"φ":{"ha":739,"x_min":40,"x_max":699,"o":"m 323 -277 l 323 -17 q 118 109 197 -3 q 40 378 40 220 q 110 634 40 532 q 278 734 179 736 l 258 629 q 143 383 143 582 q 190 193 143 271 q 323 90 237 115 l 323 538 q 356 699 323 663 q 457 736 388 736 q 638 627 578 736 q 699 396 699 519 q 627 132 699 243 q 424 -17 556 21 l 424 -277 l 323 -277 m 424 518 l 424 94 q 549 197 502 113 q 596 403 596 281 q 562 574 596 511 q 481 636 528 636 q 438 611 452 636 q 424 518 424 586 z "},"‗":{"ha":694,"x_min":-12,"x_max":707,"o":"m 707 -193 l -12 -193 l -12 -136 l 707 -136 l 707 -193 m 707 -300 l -12 -300 l -12 -243 l 707 -243 l 707 -300 z "},"‼":{"ha":633,"x_min":103,"x_max":523,"o":"m 134 247 l 103 774 l 103 994 l 227 994 l 227 774 l 199 247 l 134 247 m 108 0 l 108 139 l 222 139 l 222 0 l 108 0 m 429 247 l 399 774 l 399 994 l 523 994 l 523 774 l 494 247 l 429 247 m 404 0 l 404 139 l 518 139 l 518 0 l 404 0 z "},"ⁿ":{"ha":415,"x_min":45,"x_max":371,"o":"m 45 546 l 45 997 l 117 997 l 117 950 q 233 1006 163 1006 q 317 981 283 1006 q 360 919 350 956 q 371 821 371 883 l 371 546 l 292 546 l 292 818 q 276 899 292 874 q 218 924 259 924 q 124 791 124 924 l 124 546 l 45 546 z "},"₧":{"ha":1324,"x_min":88,"x_max":1280,"o":"m 88 994 l 345 994 q 529 924 462 994 q 603 722 597 853 l 654 722 l 654 932 l 755 931 l 755 722 l 933 722 q 1030 741 978 741 q 1143 715 1094 741 q 1225 643 1193 690 q 1258 517 1257 595 l 1154 518 q 1036 633 1147 633 q 955 610 987 633 q 923 548 923 586 q 956 485 923 509 q 1072 437 988 461 q 1234 352 1188 403 q 1280 212 1280 300 q 1207 44 1280 106 q 1038 -18 1134 -18 q 845 89 912 -18 l 844 0 q 793 -11 814 -11 q 715 6 747 -11 q 669 52 684 24 q 654 141 654 80 l 654 623 l 597 623 q 543 497 581 548 q 451 426 505 446 q 285 406 396 406 l 196 406 l 196 0 l 88 0 l 88 994 m 196 878 l 196 520 l 269 520 q 404 538 359 520 q 470 598 448 556 q 493 699 493 641 q 470 802 493 758 q 410 862 447 846 q 310 878 374 878 l 196 878 m 755 623 l 755 179 q 755 158 755 159 q 805 102 755 102 q 834 109 819 102 q 810 229 812 165 l 911 229 q 955 121 915 157 q 1048 86 996 86 q 1140 120 1100 86 q 1180 199 1180 153 q 1158 256 1180 231 q 1044 311 1135 281 q 911 366 950 341 q 848 431 872 390 q 824 528 824 473 q 842 623 824 584 l 755 623 z "},"←":{"ha":1389,"x_min":54,"x_max":1335,"o":"m 334 594 l 385 594 q 325 482 345 514 q 253 385 305 450 l 1335 385 l 1335 316 l 253 316 q 387 106 323 243 l 334 106 q 184 255 247 204 q 54 338 121 305 l 54 368 q 178 445 113 393 q 334 594 244 496 z "},"↑":{"ha":694,"x_min":104,"x_max":591,"o":"m 104 628 q 253 784 202 718 q 330 908 304 850 l 361 908 q 443 778 393 841 q 591 627 494 715 l 591 575 q 382 709 455 639 l 382 -291 l 313 -291 l 313 709 q 216 637 248 657 q 104 576 184 616 l 104 628 z "},"→":{"ha":1389,"x_min":54,"x_max":1335,"o":"m 1055 594 q 1211 445 1145 496 q 1335 368 1276 393 l 1335 338 q 1204 255 1267 305 q 1054 106 1141 204 l 1002 106 q 1135 316 1065 243 l 54 316 l 54 385 l 1135 385 q 1063 482 1084 450 q 1003 594 1043 514 l 1055 594 z "},"↓":{"ha":694,"x_min":104,"x_max":591,"o":"m 104 -11 l 104 41 q 216 -20 184 1 q 313 -92 248 -40 l 313 908 l 382 908 l 382 -92 q 591 42 455 -22 l 591 -10 q 443 -161 494 -98 q 361 -291 393 -224 l 330 -291 q 253 -167 304 -233 q 104 -11 202 -101 z "},"↔":{"ha":1389,"x_min":54,"x_max":1335,"o":"m 1335 366 l 1335 336 q 1209 257 1271 307 q 1059 107 1147 208 l 1005 107 q 1137 318 1052 224 l 252 318 q 383 107 336 224 l 329 107 q 179 257 241 208 q 54 336 117 307 l 54 366 q 179 445 117 396 q 329 595 241 494 l 383 595 q 252 385 336 479 l 1137 385 q 1005 595 1052 479 l 1059 595 q 1209 445 1147 494 q 1335 366 1271 396 z "},"↕":{"ha":694,"x_min":103,"x_max":591,"o":"m 332 992 l 362 992 q 441 866 392 928 q 591 716 490 804 l 591 662 q 380 794 475 709 l 380 -92 q 591 40 475 -6 l 591 -14 q 441 -164 490 -102 q 362 -290 392 -226 l 332 -290 q 253 -164 302 -226 q 103 -14 203 -102 l 103 40 q 314 -92 219 -6 l 314 794 q 103 662 219 709 l 103 716 q 253 866 203 804 q 332 992 302 928 z "},"↨":{"ha":694,"x_min":103,"x_max":591,"o":"m 332 992 l 362 992 q 441 866 392 928 q 591 716 490 804 l 591 662 q 380 794 475 709 l 380 -92 q 591 40 475 -6 l 591 -14 q 441 -164 490 -102 q 362 -290 392 -226 l 332 -290 q 253 -164 302 -226 q 103 -14 203 -102 l 103 40 q 314 -92 219 -6 l 314 794 q 103 662 219 709 l 103 716 q 253 866 203 804 q 332 992 302 928 m 104 -354 l 591 -354 l 591 -420 l 104 -420 l 104 -354 z "},"∟":{"ha":1360,"x_min":245,"x_max":1114,"o":"m 245 867 l 313 867 l 313 68 l 1114 68 l 1114 0 l 245 0 l 245 867 z "},"∩":{"ha":1003,"x_min":130,"x_max":869,"o":"m 205 0 l 130 0 l 130 380 q 134 593 130 548 q 164 725 142 673 q 233 826 186 777 q 351 907 281 876 q 500 939 421 939 q 645 909 576 939 q 765 828 714 879 q 838 719 816 777 q 866 575 859 661 q 869 380 869 541 l 869 0 l 795 0 l 795 384 q 791 574 795 532 q 766 694 783 650 q 712 778 749 739 q 617 842 675 817 q 499 867 560 867 q 402 849 449 867 q 321 807 355 832 q 267 754 288 781 q 237 704 246 728 q 212 605 220 663 q 205 384 205 546 l 205 0 z "},"≡":{"ha":664,"x_min":63,"x_max":602,"o":"m 602 736 l 63 736 l 63 849 l 602 849 l 602 736 m 602 433 l 63 433 l 63 547 l 602 547 l 602 433 m 602 132 l 63 132 l 63 245 l 602 245 l 602 132 z "},"⌂":{"ha":833,"x_min":104,"x_max":730,"o":"m 104 0 l 104 430 l 416 782 l 730 430 l 730 0 l 104 0 m 159 55 l 675 55 l 675 407 l 416 696 l 159 407 l 159 55 z "},"⌐":{"ha":665,"x_min":62,"x_max":601,"o":"m 62 288 l 62 699 l 601 699 l 601 585 l 157 585 l 157 288 l 62 288 z "},"⌠":{"ha":839,"x_min":370,"x_max":662,"o":"m 469 -349 l 370 -349 l 370 879 q 431 1103 370 1027 q 568 1178 492 1178 q 638 1156 614 1178 q 662 1104 662 1134 q 645 1059 662 1077 q 602 1042 627 1042 q 564 1052 582 1042 q 535 1083 551 1059 q 504 1108 519 1108 q 483 1100 492 1108 q 473 1082 476 1095 q 469 987 469 1059 l 469 -349 z "},"⌡":{"ha":839,"x_min":177,"x_max":469,"o":"m 370 1178 l 469 1178 l 469 -50 q 408 -274 469 -199 q 271 -349 347 -349 q 201 -327 225 -349 q 177 -275 177 -305 q 194 -231 177 -248 q 236 -213 212 -213 q 276 -224 257 -213 q 304 -255 288 -231 q 335 -279 319 -279 q 356 -272 347 -279 q 366 -252 363 -267 q 370 -159 370 -231 l 370 1178 z "},"─":{"ha":984,"x_min":-16,"x_max":999,"o":"m 999 362 l -16 362 l -16 481 l 999 481 l 999 362 z "},"│":{"ha":855,"x_min":304,"x_max":422,"o":"m 304 -421 l 304 1264 l 422 1264 l 422 -421 l 304 -421 z "},"┌":{"ha":984,"x_min":433,"x_max":1000,"o":"m 1000 481 l 1000 362 l 551 362 l 551 -421 l 433 -421 l 433 481 l 1000 481 z "},"┐":{"ha":984,"x_min":-16,"x_max":551,"o":"m 432 362 l -16 362 l -16 481 l 551 481 l 551 -421 l 432 -421 l 432 362 z "},"└":{"ha":984,"x_min":433,"x_max":1000,"o":"m 433 362 l 433 1264 l 551 1264 l 551 481 l 1000 481 l 1000 362 l 433 362 z "},"┘":{"ha":984,"x_min":-16,"x_max":551,"o":"m 551 362 l -16 362 l -16 481 l 432 481 l 432 1264 l 551 1264 l 551 362 z "},"├":{"ha":984,"x_min":433,"x_max":1000,"o":"m 433 -421 l 433 1264 l 551 1264 l 551 481 l 1000 481 l 1000 362 l 551 362 l 551 -421 l 433 -421 z "},"┤":{"ha":984,"x_min":-16,"x_max":551,"o":"m 432 -421 l 432 362 l -16 362 l -16 481 l 432 481 l 432 1264 l 551 1264 l 551 -421 l 432 -421 z "},"┬":{"ha":984,"x_min":-16,"x_max":999,"o":"m 432 362 l -16 362 l -16 481 l 999 481 l 999 362 l 551 362 l 551 -421 l 432 -421 l 432 362 z "},"┴":{"ha":984,"x_min":-16,"x_max":999,"o":"m 999 362 l -16 362 l -16 481 l 432 481 l 432 1264 l 551 1264 l 551 481 l 999 481 l 999 362 z "},"┼":{"ha":984,"x_min":-16,"x_max":999,"o":"m 432 362 l -16 362 l -16 481 l 432 481 l 432 1264 l 551 1264 l 551 481 l 999 481 l 999 362 l 551 362 l 551 -421 l 432 -421 l 432 362 z "},"═":{"ha":984,"x_min":0,"x_max":1015,"o":"m 1015 491 l 0 491 l 0 610 l 1015 610 l 1015 491 m 1015 233 l 0 233 l 0 352 l 1015 352 l 1015 233 z "},"║":{"ha":984,"x_min":0,"x_max":376,"o":"m 258 -421 l 258 1264 l 376 1264 l 376 -421 l 258 -421 m 0 -421 l 0 1264 l 119 1264 l 119 -421 l 0 -421 z "},"╒":{"ha":984,"x_min":0,"x_max":567,"o":"m 0 -421 l 0 610 l 567 610 l 567 491 l 119 491 l 119 352 l 567 352 l 567 233 l 119 233 l 119 -421 l 0 -421 z "},"╓":{"ha":984,"x_min":0,"x_max":696,"o":"m 0 -421 l 0 481 l 696 481 l 696 362 l 376 362 l 376 -421 l 258 -421 l 258 352 l 119 352 l 119 -421 l 0 -421 z "},"╔":{"ha":984,"x_min":0,"x_max":695,"o":"m 119 -421 l 0 -421 l 0 610 l 695 610 l 695 491 l 119 491 l 119 -421 m 376 233 l 376 -421 l 258 -421 l 258 352 l 695 352 l 695 233 l 376 233 z "},"╕":{"ha":984,"x_min":0,"x_max":566,"o":"m 448 233 l 0 233 l 0 352 l 448 352 l 448 491 l 0 491 l 0 610 l 566 610 l 566 -421 l 448 -421 l 448 233 z "},"╖":{"ha":984,"x_min":0,"x_max":695,"o":"m 319 -421 l 319 362 l 0 362 l 0 481 l 695 481 l 695 -421 l 576 -421 l 576 362 l 437 362 l 437 -421 l 319 -421 z "},"╗":{"ha":984,"x_min":0,"x_max":695,"o":"m 576 -421 l 576 491 l 0 491 l 0 610 l 695 610 l 695 -421 l 576 -421 m 319 233 l 0 233 l 0 352 l 437 352 l 437 -421 l 319 -421 l 319 233 z "},"╘":{"ha":984,"x_min":0,"x_max":567,"o":"m 0 233 l 0 1264 l 119 1264 l 119 610 l 567 610 l 567 491 l 119 491 l 119 352 l 567 352 l 567 233 l 0 233 z "},"╙":{"ha":984,"x_min":0,"x_max":696,"o":"m 696 362 l 0 362 l 0 1264 l 119 1264 l 119 481 l 258 481 l 258 1264 l 376 1264 l 376 481 l 696 481 l 696 362 z "},"╚":{"ha":984,"x_min":0,"x_max":695,"o":"m 119 1264 l 119 352 l 695 352 l 695 233 l 0 233 l 0 1264 l 119 1264 m 376 610 l 695 610 l 695 491 l 258 491 l 258 1264 l 376 1264 l 376 610 z "},"╛":{"ha":984,"x_min":0,"x_max":566,"o":"m 566 233 l 0 233 l 0 352 l 448 352 l 448 491 l 0 491 l 0 610 l 448 610 l 448 1264 l 566 1264 l 566 233 z "},"╜":{"ha":984,"x_min":0,"x_max":695,"o":"m 695 362 l 0 362 l 0 481 l 319 481 l 319 1264 l 437 1264 l 437 481 l 576 481 l 576 1264 l 695 1264 l 695 362 z "},"╝":{"ha":984,"x_min":0,"x_max":695,"o":"m 576 1264 l 695 1264 l 695 233 l 0 233 l 0 352 l 576 352 l 576 1264 m 319 610 l 319 1264 l 437 1264 l 437 491 l 0 491 l 0 610 l 319 610 z "},"╞":{"ha":984,"x_min":0,"x_max":567,"o":"m 0 -421 l 0 1264 l 119 1264 l 119 610 l 567 610 l 567 491 l 119 491 l 119 352 l 567 352 l 567 233 l 119 233 l 119 -421 l 0 -421 z "},"╟":{"ha":984,"x_min":0,"x_max":696,"o":"m 258 -421 l 258 1264 l 376 1264 l 376 481 l 696 481 l 696 362 l 376 362 l 376 -421 l 258 -421 m 0 -421 l 0 1264 l 119 1264 l 119 -421 l 0 -421 z "},"╠":{"ha":984,"x_min":0,"x_max":696,"o":"m 0 -421 l 0 1264 l 119 1264 l 119 -421 l 0 -421 m 258 491 l 258 1264 l 376 1264 l 376 610 l 696 610 l 696 491 l 258 491 m 258 -421 l 258 352 l 696 352 l 696 233 l 376 233 l 376 -421 l 258 -421 z "},"╡":{"ha":984,"x_min":0,"x_max":566,"o":"m 448 233 l 0 233 l 0 352 l 448 352 l 448 491 l 0 491 l 0 610 l 448 610 l 448 1264 l 566 1264 l 566 -421 l 448 -421 l 448 233 z "},"╢":{"ha":984,"x_min":0,"x_max":695,"o":"m 319 -421 l 319 362 l 0 362 l 0 481 l 319 481 l 319 1264 l 437 1264 l 437 -421 l 319 -421 m 576 -421 l 576 1264 l 695 1264 l 695 -421 l 576 -421 z "},"╣":{"ha":984,"x_min":0,"x_max":695,"o":"m 576 -421 l 576 1264 l 695 1264 l 695 -421 l 576 -421 m 437 1264 l 437 491 l 0 491 l 0 610 l 319 610 l 319 1264 l 437 1264 m 319 233 l 0 233 l 0 352 l 437 352 l 437 -421 l 319 -421 l 319 233 z "},"╤":{"ha":984,"x_min":0,"x_max":1015,"o":"m 1015 491 l 0 491 l 0 610 l 1015 610 l 1015 491 m 448 233 l 0 233 l 0 352 l 1015 352 l 1015 233 l 566 233 l 566 -421 l 448 -421 l 448 233 z "},"╥":{"ha":984,"x_min":0,"x_max":1015,"o":"m 319 -421 l 319 362 l 0 362 l 0 481 l 1015 481 l 1015 362 l 695 362 l 695 -421 l 576 -421 l 576 352 l 437 352 l 437 -421 l 319 -421 z "},"╦":{"ha":984,"x_min":0,"x_max":1015,"o":"m 1015 491 l 0 491 l 0 610 l 1015 610 l 1015 491 m 319 233 l 0 233 l 0 352 l 437 352 l 437 -421 l 319 -421 l 319 233 m 576 -421 l 576 352 l 1015 352 l 1015 233 l 695 233 l 695 -421 l 576 -421 z "},"╧":{"ha":984,"x_min":0,"x_max":1015,"o":"m 1015 491 l 0 491 l 0 610 l 448 610 l 448 1264 l 566 1264 l 566 610 l 1015 610 l 1015 491 m 1015 233 l 0 233 l 0 352 l 1015 352 l 1015 233 z "},"╨":{"ha":984,"x_min":0,"x_max":1015,"o":"m 1015 362 l 0 362 l 0 481 l 319 481 l 319 1264 l 437 1264 l 437 481 l 576 481 l 576 1264 l 695 1264 l 695 481 l 1015 481 l 1015 362 z "},"╩":{"ha":984,"x_min":0,"x_max":1015,"o":"m 437 491 l 0 491 l 0 610 l 319 610 l 319 1264 l 437 1264 l 437 491 m 1015 491 l 576 491 l 576 1264 l 695 1264 l 695 610 l 1015 610 l 1015 491 m 1015 233 l 0 233 l 0 352 l 1015 352 l 1015 233 z "},"╪":{"ha":984,"x_min":0,"x_max":1015,"o":"m 448 233 l 0 233 l 0 352 l 448 352 l 448 491 l 0 491 l 0 610 l 448 610 l 448 1264 l 566 1264 l 566 610 l 1015 610 l 1015 491 l 566 491 l 566 352 l 1015 352 l 1015 233 l 566 233 l 566 -421 l 448 -421 l 448 233 z "},"╫":{"ha":984,"x_min":0,"x_max":1015,"o":"m 319 -421 l 319 362 l 0 362 l 0 481 l 319 481 l 319 1264 l 437 1264 l 437 481 l 576 481 l 576 1264 l 695 1264 l 695 481 l 1015 481 l 1015 362 l 695 362 l 695 -421 l 576 -421 l 576 362 l 437 362 l 437 -421 l 319 -421 z "},"╬":{"ha":984,"x_min":0,"x_max":1015,"o":"m 696 610 l 1015 610 l 1015 491 l 577 491 l 577 1264 l 696 1264 l 696 610 m 319 610 l 319 1264 l 437 1264 l 437 491 l 0 491 l 0 610 l 319 610 m 319 233 l 0 233 l 0 352 l 437 352 l 437 -421 l 319 -421 l 319 233 m 696 233 l 696 -421 l 577 -421 l 577 352 l 1015 352 l 1015 233 l 696 233 z "},"▀":{"ha":984,"x_min":0,"x_max":1015,"o":"m 1015 421 l 0 421 l 0 1264 l 1015 1264 l 1015 421 z "},"▄":{"ha":984,"x_min":0,"x_max":1015,"o":"m 1015 -421 l 0 -421 l 0 421 l 1015 421 l 1015 -421 z "},"█":{"ha":984,"x_min":0,"x_max":1015,"o":"m 0 -421 l 0 1264 l 1015 1264 l 1015 -421 l 0 -421 z "},"▌":{"ha":984,"x_min":0,"x_max":507,"o":"m 0 -421 l 0 1264 l 507 1264 l 507 -421 l 0 -421 z "},"▐":{"ha":984,"x_min":0,"x_max":507,"o":"m 0 -421 l 0 1264 l 507 1264 l 507 -421 l 0 -421 z "},"░":{"ha":984,"x_min":69,"x_max":999,"o":"m 69 1264 l 154 1264 l 154 1179 l 69 1179 l 69 1264 m 407 1264 l 492 1264 l 492 1179 l 407 1179 l 407 1264 m 745 1264 l 830 1264 l 830 1179 l 745 1179 l 745 1264 m 238 1095 l 323 1095 l 323 1010 l 238 1010 l 238 1095 m 576 1095 l 661 1095 l 661 1010 l 576 1010 l 576 1095 m 914 1095 l 999 1095 l 999 1010 l 914 1010 l 914 1095 m 745 926 l 830 926 l 830 842 l 745 842 l 745 926 m 407 926 l 492 926 l 492 842 l 407 842 l 407 926 m 69 926 l 154 926 l 154 842 l 69 842 l 69 926 m 914 757 l 999 757 l 999 673 l 914 673 l 914 757 m 576 757 l 661 757 l 661 673 l 576 673 l 576 757 m 238 757 l 323 757 l 323 673 l 238 673 l 238 757 m 69 588 l 154 588 l 154 503 l 69 503 l 69 588 m 407 588 l 492 588 l 492 503 l 407 503 l 407 588 m 745 588 l 830 588 l 830 503 l 745 503 l 745 588 m 914 419 l 999 419 l 999 334 l 914 334 l 914 419 m 576 419 l 661 419 l 661 334 l 576 334 l 576 419 m 238 419 l 323 419 l 323 334 l 238 334 l 238 419 m 69 250 l 154 250 l 154 165 l 69 165 l 69 250 m 407 250 l 492 250 l 492 165 l 407 165 l 407 250 m 745 250 l 830 250 l 830 165 l 745 165 l 745 250 m 238 81 l 323 81 l 323 -3 l 238 -3 l 238 81 m 576 81 l 661 81 l 661 -3 l 576 -3 l 576 81 m 914 81 l 999 81 l 999 -3 l 914 -3 l 914 81 m 745 -88 l 830 -88 l 830 -173 l 745 -173 l 745 -88 m 407 -88 l 492 -88 l 492 -173 l 407 -173 l 407 -88 m 69 -88 l 154 -88 l 154 -173 l 69 -173 l 69 -88 m 238 -257 l 323 -257 l 323 -342 l 238 -342 l 238 -257 m 576 -257 l 661 -257 l 661 -342 l 576 -342 l 576 -257 m 914 -257 l 999 -257 l 999 -342 l 914 -342 l 914 -257 z "},"▒":{"ha":984,"x_min":-15,"x_max":999,"o":"m 70 1264 l 154 1264 l 154 1179 l 70 1179 l 70 1264 m 239 1264 l 323 1264 l 323 1179 l 239 1179 l 239 1264 m 408 1264 l 492 1264 l 492 1179 l 408 1179 l 408 1264 m 576 1264 l 661 1264 l 661 1179 l 576 1179 l 576 1264 m 746 1264 l 830 1264 l 830 1179 l 746 1179 l 746 1264 m 915 1264 l 999 1264 l 999 1179 l 915 1179 l 915 1264 m -15 1095 l 70 1095 l 70 1010 l -15 1010 l -15 1095 m 154 1095 l 239 1095 l 239 1010 l 154 1010 l 154 1095 m 323 1095 l 408 1095 l 408 1010 l 323 1010 l 323 1095 m 492 1095 l 576 1095 l 576 1010 l 492 1010 l 492 1095 m 661 1095 l 746 1095 l 746 1010 l 661 1010 l 661 1095 m 830 1095 l 915 1095 l 915 1010 l 830 1010 l 830 1095 m 70 926 l 154 926 l 154 842 l 70 842 l 70 926 m 239 926 l 323 926 l 323 842 l 239 842 l 239 926 m 408 926 l 492 926 l 492 842 l 408 842 l 408 926 m 576 926 l 661 926 l 661 842 l 576 842 l 576 926 m 746 926 l 830 926 l 830 842 l 746 842 l 746 926 m 915 926 l 999 926 l 999 842 l 915 842 l 915 926 m 154 757 l 239 757 l 239 673 l 154 673 l 154 757 m 323 757 l 408 757 l 408 673 l 323 673 l 323 757 m 492 757 l 576 757 l 576 673 l 492 673 l 492 757 m 661 757 l 746 757 l 746 673 l 661 673 l 661 757 m 830 757 l 915 757 l 915 673 l 830 673 l 830 757 m -15 757 l 70 757 l 70 673 l -15 673 l -15 757 m 70 588 l 154 588 l 154 503 l 70 503 l 70 588 m 239 588 l 323 588 l 323 503 l 239 503 l 239 588 m 408 588 l 492 588 l 492 503 l 408 503 l 408 588 m 576 588 l 661 588 l 661 503 l 576 503 l 576 588 m 746 588 l 830 588 l 830 503 l 746 503 l 746 588 m 915 588 l 999 588 l 999 503 l 915 503 l 915 588 m -15 419 l 70 419 l 70 334 l -15 334 l -15 419 m 323 419 l 408 419 l 408 334 l 323 334 l 323 419 m 492 419 l 576 419 l 576 334 l 492 334 l 492 419 m 661 419 l 746 419 l 746 334 l 661 334 l 661 419 m 830 419 l 915 419 l 915 334 l 830 334 l 830 419 m 154 419 l 239 419 l 239 334 l 154 334 l 154 419 m 915 250 l 999 250 l 999 165 l 915 165 l 915 250 m 746 250 l 830 250 l 830 165 l 746 165 l 746 250 m 576 250 l 661 250 l 661 165 l 576 165 l 576 250 m 408 250 l 492 250 l 492 165 l 408 165 l 408 250 m 239 250 l 323 250 l 323 165 l 239 165 l 239 250 m 70 250 l 154 250 l 154 165 l 70 165 l 70 250 m -15 81 l 70 81 l 70 -3 l -15 -3 l -15 81 m 154 81 l 239 81 l 239 -3 l 154 -3 l 154 81 m 323 81 l 408 81 l 408 -3 l 323 -3 l 323 81 m 492 81 l 576 81 l 576 -3 l 492 -3 l 492 81 m 661 81 l 746 81 l 746 -3 l 661 -3 l 661 81 m 830 81 l 915 81 l 915 -3 l 830 -3 l 830 81 m 915 -88 l 999 -88 l 999 -173 l 915 -173 l 915 -88 m 746 -88 l 830 -88 l 830 -173 l 746 -173 l 746 -88 m 576 -88 l 661 -88 l 661 -173 l 576 -173 l 576 -88 m 408 -88 l 492 -88 l 492 -173 l 408 -173 l 408 -88 m 239 -88 l 323 -88 l 323 -173 l 239 -173 l 239 -88 m 70 -88 l 154 -88 l 154 -173 l 70 -173 l 70 -88 m -15 -257 l 70 -257 l 70 -342 l -15 -342 l -15 -257 m 154 -257 l 239 -257 l 239 -342 l 154 -342 l 154 -257 m 323 -257 l 408 -257 l 408 -342 l 323 -342 l 323 -257 m 492 -257 l 576 -257 l 576 -342 l 492 -342 l 492 -257 m 661 -257 l 746 -257 l 746 -342 l 661 -342 l 661 -257 m 830 -257 l 915 -257 l 915 -342 l 830 -342 l 830 -257 z "},"▓":{"ha":1013,"x_min":-1,"x_max":1013,"o":"m 1013 1010 l 1013 757 l 929 757 l 929 673 l 1013 673 l 1013 419 l 929 419 l 929 334 l 1013 334 l 1013 81 l 929 81 l 929 -3 l 1013 -3 l 1013 -257 l 929 -257 l 929 -342 l 1013 -342 l 1013 -426 l -1 -426 l -1 -173 l 84 -173 l 84 -88 l -1 -88 l -1 165 l 84 165 l 84 250 l -1 250 l -1 503 l 84 503 l 84 588 l -1 588 l -1 842 l 84 842 l 84 926 l -1 926 l -1 1179 l 84 1179 l 84 1264 l 168 1264 l 168 1179 l 253 1179 l 253 1264 l 337 1264 l 337 1179 l 422 1179 l 422 1264 l 507 1264 l 507 1179 l 591 1179 l 591 1264 l 675 1264 l 675 1179 l 760 1179 l 760 1264 l 844 1264 l 844 1179 l 929 1179 l 929 1264 l 1013 1264 l 1013 1095 l 929 1095 l 929 1010 l 1013 1010 m 84 1095 l 84 1010 l 168 1010 l 168 1095 l 84 1095 m 253 1095 l 253 1010 l 337 1010 l 337 1095 l 253 1095 m 422 1095 l 422 1010 l 507 1010 l 507 1095 l 422 1095 m 591 1095 l 591 1010 l 675 1010 l 675 1095 l 591 1095 m 760 1095 l 760 1010 l 844 1010 l 844 1095 l 760 1095 m 929 926 l 844 926 l 844 842 l 929 842 l 929 926 m 760 926 l 675 926 l 675 842 l 760 842 l 760 926 m 591 926 l 507 926 l 507 842 l 591 842 l 591 926 m 422 926 l 337 926 l 337 842 l 422 842 l 422 926 m 253 926 l 168 926 l 168 842 l 253 842 l 253 926 m 84 757 l 84 673 l 168 673 l 168 757 l 84 757 m 253 757 l 253 673 l 337 673 l 337 757 l 253 757 m 422 757 l 422 673 l 507 673 l 507 757 l 422 757 m 591 757 l 591 673 l 675 673 l 675 757 l 591 757 m 760 757 l 760 673 l 844 673 l 844 757 l 760 757 m 253 588 l 168 588 l 168 503 l 253 503 l 253 588 m 337 588 l 337 503 l 422 503 l 422 588 l 337 588 m 507 588 l 507 503 l 591 503 l 591 588 l 507 588 m 675 588 l 675 503 l 760 503 l 760 588 l 675 588 m 844 588 l 844 503 l 929 503 l 929 588 l 844 588 m 84 419 l 84 334 l 168 334 l 168 419 l 84 419 m 422 419 l 422 334 l 507 334 l 507 419 l 422 419 m 337 334 l 337 419 l 253 419 l 253 334 l 337 334 m 591 419 l 591 334 l 675 334 l 675 419 l 591 419 m 760 419 l 760 334 l 844 334 l 844 419 l 760 419 m 929 165 l 929 250 l 844 250 l 844 165 l 929 165 m 760 165 l 760 250 l 675 250 l 675 165 l 760 165 m 591 165 l 591 250 l 507 250 l 507 165 l 591 165 m 422 165 l 422 250 l 337 250 l 337 165 l 422 165 m 253 165 l 253 250 l 168 250 l 168 165 l 253 165 m 84 81 l 84 -3 l 168 -3 l 168 81 l 84 81 m 253 81 l 253 -3 l 337 -3 l 337 81 l 253 81 m 422 81 l 422 -3 l 507 -3 l 507 81 l 422 81 m 591 81 l 591 -3 l 675 -3 l 675 81 l 591 81 m 760 81 l 760 -3 l 844 -3 l 844 81 l 760 81 m 929 -173 l 929 -88 l 844 -88 l 844 -173 l 929 -173 m 760 -173 l 760 -88 l 675 -88 l 675 -173 l 760 -173 m 591 -173 l 591 -88 l 507 -88 l 507 -173 l 591 -173 m 422 -173 l 422 -88 l 337 -88 l 337 -173 l 422 -173 m 253 -173 l 253 -88 l 168 -88 l 168 -173 l 253 -173 m 84 -257 l 84 -342 l 168 -342 l 168 -257 l 84 -257 m 253 -257 l 253 -342 l 337 -342 l 337 -257 l 253 -257 m 422 -257 l 422 -342 l 507 -342 l 507 -257 l 422 -257 m 591 -257 l 591 -342 l 675 -342 l 675 -257 l 591 -257 m 760 -257 l 760 -342 l 844 -342 l 844 -257 l 760 -257 z "},"■":{"ha":839,"x_min":0,"x_max":640,"o":"m 0 640 l 640 640 l 640 0 l 0 0 l 0 640 z "},"▬":{"ha":1389,"x_min":0,"x_max":1388,"o":"m 0 477 l 1388 477 l 1388 215 l 0 215 l 0 477 z "},"▲":{"ha":1375,"x_min":0,"x_max":963,"o":"m 0 0 l 481 962 l 963 0 l 0 0 z "},"►":{"ha":1375,"x_min":0,"x_max":984,"o":"m 0 961 l 984 470 l 0 -21 l 0 961 z "},"▼":{"ha":1375,"x_min":0,"x_max":963,"o":"m 963 941 l 481 -21 l 0 941 l 963 941 z "},"◄":{"ha":1375,"x_min":195,"x_max":1179,"o":"m 1179 961 l 1179 -21 l 195 470 l 1179 961 z "},"○":{"ha":839,"x_min":0,"x_max":597,"o":"m 299 690 q 446 652 374 690 q 557 541 517 613 q 597 392 597 469 q 510 180 597 268 q 299 93 422 93 q 87 180 175 93 q 0 392 0 268 q 40 542 0 470 q 152 652 80 613 q 299 690 224 690 m 299 639 q 177 607 236 639 q 85 515 118 575 q 52 392 52 456 q 124 217 52 290 q 299 144 197 144 q 474 217 401 144 q 546 392 546 290 q 513 515 546 456 q 420 607 479 575 q 299 639 361 639 z "},"◘":{"ha":839,"x_min":0,"x_max":665,"o":"m 0 0 l 0 665 l 665 665 l 665 0 l 0 0 m 332 469 q 235 429 275 469 q 195 332 195 389 q 236 236 195 276 q 332 195 276 195 q 429 236 389 195 q 469 332 469 276 q 429 429 469 389 q 332 469 389 469 z "},"◙":{"ha":839,"x_min":0,"x_max":783,"o":"m 0 0 l 0 783 l 783 783 l 783 0 l 0 0 m 391 690 q 244 652 316 690 q 133 541 173 613 q 93 391 93 469 q 180 180 93 268 q 391 93 268 93 q 603 180 515 93 q 690 391 690 268 q 650 541 690 469 q 539 652 610 613 q 391 690 467 690 m 392 639 q 513 607 454 639 q 606 516 572 575 q 639 391 639 456 q 567 217 639 289 q 392 144 494 144 q 217 217 289 144 q 144 391 144 289 q 178 516 144 456 q 270 607 211 575 q 392 639 330 639 z "},"☺":{"ha":1418,"x_min":277,"x_max":1142,"o":"m 709 784 q 922 728 818 784 q 1084 568 1025 672 q 1142 351 1142 464 q 1085 137 1142 239 q 924 -23 1027 34 q 709 -81 821 -81 q 494 -23 597 -81 q 334 137 391 34 q 277 351 277 239 q 335 568 277 464 q 496 728 393 672 q 709 784 600 784 m 709 721 q 528 673 616 721 q 390 536 439 625 q 340 351 340 448 q 389 168 340 256 q 526 31 437 80 q 709 -18 614 -18 q 893 31 805 -18 q 1030 168 981 80 q 1079 351 1079 256 q 1029 536 1079 448 q 891 673 979 625 q 709 721 802 721 m 543 496 q 582 480 566 496 q 598 441 598 464 q 582 402 598 418 q 543 386 566 386 q 505 402 521 386 q 488 441 488 418 q 505 480 488 464 q 543 496 521 496 m 875 496 q 914 480 898 496 q 930 441 930 464 q 914 402 930 418 q 875 386 898 386 q 836 402 852 386 q 820 441 820 418 q 836 480 820 464 q 875 496 852 496 m 510 212 l 552 237 q 709 139 606 139 q 866 237 813 139 l 909 212 q 825 114 875 148 q 709 80 775 80 q 593 114 643 80 q 510 212 544 148 z "},"☻":{"ha":1461,"x_min":298,"x_max":1164,"o":"m 731 784 q 943 728 840 784 q 1105 568 1047 672 q 1164 351 1164 464 q 1106 137 1164 239 q 946 -23 1049 34 q 731 -81 843 -81 q 516 -23 618 -81 q 356 137 413 34 q 298 351 298 239 q 356 568 298 464 q 518 728 414 672 q 731 784 622 784 m 565 496 q 526 480 543 496 q 510 441 510 464 q 526 402 510 418 q 565 386 543 386 q 604 402 588 386 q 620 441 620 418 q 604 480 620 464 q 565 496 588 496 m 897 496 q 858 480 873 496 q 842 441 842 464 q 858 402 842 418 q 897 386 874 386 q 936 402 920 386 q 951 441 951 418 q 936 480 951 464 q 897 496 920 496 m 532 212 q 615 114 566 148 q 731 80 665 80 q 847 114 797 80 q 930 212 897 148 l 888 237 q 731 139 835 139 q 574 237 627 139 l 532 212 z "},"☼":{"ha":1273,"x_min":0,"x_max":1252,"o":"m 601 1099 l 652 1099 l 652 871 q 775 845 722 866 q 889 775 829 823 l 1086 968 l 1121 932 l 927 738 q 997 623 977 673 q 1024 495 1023 558 l 1252 495 l 1252 448 l 1025 448 q 928 213 1012 320 l 1121 16 l 1082 -18 l 890 173 q 774 105 824 124 q 652 77 725 85 l 652 -151 l 601 -151 l 601 77 q 473 109 525 87 q 367 171 421 130 l 168 -18 l 133 17 l 326 211 q 258 323 281 268 q 228 451 235 379 l 0 451 l 0 498 l 228 498 q 256 624 234 570 q 326 734 279 677 l 133 929 l 165 968 l 363 777 q 485 845 432 824 q 601 871 538 865 l 601 1099 m 625 821 q 454 777 537 821 q 324 648 370 732 q 277 474 277 564 q 323 301 277 384 q 452 172 369 218 q 625 126 534 126 q 798 172 715 126 q 926 301 880 218 q 972 474 972 384 q 926 648 972 564 q 795 777 879 732 q 625 821 712 821 z "},"♀":{"ha":1042,"x_min":165,"x_max":876,"o":"m 540 313 l 540 40 l 851 40 l 851 0 l 540 0 l 540 -298 l 500 -298 l 500 0 l 188 0 l 188 40 l 500 40 l 500 313 q 347 357 430 313 q 215 487 264 401 q 165 667 165 572 q 213 844 165 759 q 344 975 260 928 q 521 1022 428 1022 q 697 975 613 1022 q 829 843 782 928 q 876 667 876 759 q 778 422 876 525 q 540 313 681 319 m 520 984 q 364 943 440 984 q 245 825 288 902 q 202 666 202 749 q 295 440 202 534 q 520 347 389 347 q 746 440 652 347 q 839 666 839 534 q 796 825 839 749 q 677 943 753 902 q 520 984 601 984 z "},"♂":{"ha":1042,"x_min":75,"x_max":960,"o":"m 825 1099 l 849 1088 l 960 636 l 921 626 l 825 1020 l 582 499 q 734 362 682 448 q 785 178 785 276 q 739 1 785 85 q 607 -131 692 -83 q 430 -178 523 -178 q 253 -131 338 -178 q 122 1 169 -83 q 75 178 75 85 q 179 429 75 325 q 432 532 283 532 q 545 514 485 532 l 789 1037 l 425 857 l 408 893 l 825 1099 m 430 496 q 274 455 350 496 q 155 337 197 414 q 112 178 112 260 q 205 -48 112 45 q 430 -141 298 -141 q 655 -48 562 -141 q 749 178 749 45 q 706 337 749 260 q 587 455 663 414 q 430 496 511 496 z "},"♠":{"ha":738,"x_min":0,"x_max":659,"o":"m 330 835 q 385 704 348 762 q 515 561 421 646 q 634 430 609 476 q 659 338 659 385 q 616 230 659 273 q 511 186 572 186 q 338 315 406 186 q 365 157 339 216 q 446 65 390 98 q 594 25 501 31 l 599 0 l 62 0 l 66 25 q 260 98 191 25 q 326 315 329 171 q 251 219 296 251 q 149 186 205 186 q 44 231 88 186 q 0 335 0 275 q 22 425 0 385 q 128 543 52 481 q 275 699 223 621 q 330 835 313 755 z "},"♣":{"ha":911,"x_min":37,"x_max":873,"o":"m 745 0 l 170 0 l 175 23 q 323 70 287 47 q 413 172 378 104 q 448 315 448 240 l 448 347 q 347 224 406 262 q 226 185 288 185 q 92 240 147 185 q 37 375 37 295 q 87 508 37 454 q 201 562 138 562 q 312 527 242 562 q 275 598 283 574 q 267 650 267 623 q 320 782 267 728 q 454 835 374 835 q 588 782 534 835 q 643 653 643 728 q 596 527 643 593 q 665 557 653 554 q 706 563 683 563 q 824 510 774 563 q 873 378 873 456 q 819 241 873 296 q 688 186 764 186 q 601 207 646 186 q 522 262 555 227 q 463 347 498 287 q 495 176 465 239 q 588 72 526 113 q 739 23 630 44 l 745 0 z "},"♥":{"ha":825,"x_min":0,"x_max":739,"o":"m 371 -16 q 311 134 350 64 q 160 352 272 204 q 59 490 78 460 q 14 577 28 537 q 0 657 0 616 q 50 783 0 732 q 175 834 100 834 q 304 781 249 834 q 371 664 345 742 q 448 792 395 750 q 563 835 500 835 q 688 785 637 835 q 739 665 739 734 q 710 538 739 604 q 594 363 680 472 q 437 142 483 223 q 371 -16 392 62 z "},"♦":{"ha":709,"x_min":0,"x_max":623,"o":"m 310 835 q 465 606 370 732 q 623 410 560 479 q 458 205 572 357 q 311 -16 366 81 q 190 166 281 39 q 0 410 127 254 q 176 632 68 488 q 310 835 256 739 z "},"♪":{"ha":694,"x_min":25,"x_max":669,"o":"m 330 924 l 355 924 q 509 915 472 924 q 604 863 563 901 q 652 782 634 834 q 669 661 669 730 l 669 591 l 602 591 l 602 621 q 583 699 602 667 q 526 748 564 731 q 416 770 476 770 l 397 770 l 397 203 q 375 76 397 121 q 300 2 353 30 q 185 -25 248 -25 q 68 17 111 -25 q 25 126 25 58 q 77 246 25 197 q 212 294 128 294 q 330 263 264 294 l 330 924 z "},"♫":{"ha":1042,"x_min":58,"x_max":902,"o":"m 362 862 l 902 1030 l 902 279 q 881 152 902 195 q 808 81 859 109 q 692 54 757 54 q 574 96 618 54 q 530 205 530 138 q 583 322 530 273 q 718 372 635 372 q 765 367 745 372 q 833 342 786 362 l 833 833 l 429 708 l 429 141 q 408 13 429 59 q 333 -60 386 -33 q 218 -87 280 -87 q 101 -45 144 -87 q 58 64 58 -3 q 109 183 58 135 q 244 232 161 232 q 362 201 297 232 l 362 862 z "},"Ĳ":{"ha":886,"x_min":109,"x_max":796,"o":"m 109 0 l 109 994 l 216 994 l 216 0 l 109 0 m 348 282 l 445 298 q 480 142 449 184 q 566 100 511 100 q 634 122 605 100 q 674 176 664 143 q 688 309 688 220 l 688 994 l 796 994 l 796 317 q 736 58 796 134 q 567 -17 676 -17 q 408 51 460 -17 q 348 282 348 128 z "},"ĳ":{"ha":506,"x_min":73,"x_max":425,"o":"m 73 854 l 73 994 l 173 994 l 173 854 l 73 854 m 73 0 l 73 720 l 173 720 l 173 0 l 73 0 m 325 852 l 325 994 l 425 994 l 425 852 l 325 852 m 198 -279 l 217 -176 q 264 -185 247 -185 q 310 -160 296 -185 q 325 -37 325 -135 l 325 720 l 425 720 l 425 -39 q 387 -239 425 -186 q 277 -292 349 -292 q 198 -279 236 -292 z "},"ŉ":{"ha":795,"x_min":56,"x_max":722,"o":"m 62 854 l 62 994 l 176 994 l 176 854 q 153 728 176 774 q 83 658 129 682 l 56 710 q 102 759 86 726 q 119 854 117 791 l 62 854 m 241 0 l 241 720 l 332 720 l 332 618 q 411 707 364 677 q 519 736 458 736 q 607 718 567 736 q 672 669 648 699 q 709 591 697 639 q 722 443 722 543 l 722 0 l 621 0 l 621 438 q 608 554 621 517 q 565 611 594 591 q 498 631 536 631 q 384 577 427 631 q 341 393 341 524 l 341 0 l 241 0 z "},"′":{"ha":218,"x_min":48,"x_max":162,"o":"m 74 642 l 48 828 l 48 994 l 162 994 l 162 828 l 136 642 l 74 642 z "},"″":{"ha":404,"x_min":52,"x_max":351,"o":"m 79 642 l 52 831 l 52 994 l 165 994 l 165 831 l 140 642 l 79 642 m 263 642 l 237 831 l 237 994 l 351 994 l 351 831 l 323 642 l 263 642 z "},"℅":{"ha":1053,"x_min":66,"x_max":987,"o":"m 333 686 l 412 673 q 357 533 403 584 q 243 483 311 483 q 115 551 163 483 q 66 753 66 620 q 116 945 66 878 q 246 1011 167 1011 q 406 847 379 1011 l 328 831 q 248 933 311 933 q 176 886 203 933 q 148 750 148 840 q 173 610 148 659 q 245 562 199 562 q 333 686 321 562 m 157 -39 l 770 1011 l 857 1011 l 245 -39 l 157 -39 m 616 253 q 669 450 616 383 q 802 517 721 517 q 933 452 880 517 q 987 253 987 387 q 933 54 987 119 q 802 -12 880 -12 q 670 54 724 -12 q 616 253 616 119 m 699 253 q 728 115 699 163 q 802 67 757 67 q 876 116 848 67 q 905 253 905 165 q 876 390 905 342 q 802 439 846 439 q 727 389 755 439 q 699 253 699 340 z "},"ℓ":{"ha":485,"x_min":19,"x_max":447,"o":"m 19 286 l 139 446 l 139 754 q 180 958 139 905 q 296 1011 220 1011 q 408 964 368 1011 q 447 852 447 916 q 406 696 447 787 q 254 451 364 605 l 254 170 q 262 97 254 113 q 292 80 271 80 q 427 153 327 80 l 427 43 q 274 -16 356 -16 q 174 24 208 -16 q 139 147 139 64 l 139 300 l 85 233 l 19 286 m 254 610 q 334 761 315 716 q 352 848 352 806 q 337 909 352 889 q 300 930 321 930 q 263 896 272 930 q 254 764 254 861 l 254 610 z "},"□":{"ha":839,"x_min":99,"x_max":739,"o":"m 99 640 l 739 640 l 739 0 l 99 0 l 99 640 m 151 589 l 151 52 l 688 52 l 688 589 l 151 589 z "},"▪":{"ha":492,"x_min":89,"x_max":403,"o":"m 403 616 l 403 302 l 89 302 l 89 616 l 403 616 z "},"▫":{"ha":492,"x_min":89,"x_max":403,"o":"m 403 616 l 403 302 l 89 302 l 89 616 l 403 616 m 351 565 l 140 564 l 140 353 l 351 353 l 351 565 z "},"●":{"ha":839,"x_min":121,"x_max":718,"o":"m 420 690 q 566 652 494 690 q 678 541 638 613 q 718 392 718 469 q 631 180 718 268 q 420 93 543 93 q 208 180 296 93 q 121 392 121 268 q 161 542 121 470 q 273 652 201 613 q 420 690 345 690 z "},"◦":{"ha":492,"x_min":76,"x_max":416,"o":"m 246 629 q 367 579 317 629 q 416 459 416 530 q 367 339 416 389 q 246 289 317 289 q 126 339 176 289 q 76 459 76 389 q 125 579 76 530 q 246 629 175 629 m 246 578 q 162 543 197 578 q 127 459 127 508 q 162 375 127 410 q 246 340 197 340 q 330 375 295 340 q 365 459 365 410 q 330 543 365 508 q 246 578 296 578 z "},"Ā":{"ha":760,"x_min":-1,"x_max":762,"o":"m -1 0 l 312 994 l 428 994 l 762 0 l 638 0 l 543 301 l 203 301 l 113 0 l -1 0 m 234 408 l 510 408 l 425 684 q 368 890 386 810 q 323 700 352 794 l 234 408 m 201 1063 l 201 1163 l 549 1163 l 549 1063 l 201 1063 z "},"ā":{"ha":633,"x_min":39,"x_max":583,"o":"m 458 89 q 354 10 408 37 q 241 -16 300 -16 q 94 39 149 -16 q 39 189 39 95 q 65 300 39 252 q 136 375 91 348 q 271 415 180 402 q 450 457 393 433 l 451 488 q 425 592 451 562 q 310 635 387 635 q 205 607 240 635 q 155 498 171 578 l 56 515 q 141 684 77 631 q 325 736 205 736 q 471 702 418 736 q 537 615 524 667 q 551 465 551 564 l 551 302 q 558 86 551 131 q 583 0 564 42 l 479 0 q 458 89 463 37 m 450 361 q 287 315 395 334 q 199 291 224 304 q 160 251 174 277 q 146 193 146 226 q 178 110 146 141 q 266 79 210 79 q 363 107 319 79 q 429 181 407 135 q 450 317 450 228 l 450 361 m 132 811 l 132 911 l 479 911 l 479 811 l 132 811 z "},"Ĉ":{"ha":822,"x_min":54,"x_max":775,"o":"m 667 349 l 775 315 q 649 65 739 148 q 431 -17 559 -17 q 237 38 317 -17 q 105 216 157 94 q 54 504 54 338 q 105 782 54 668 q 244 953 157 895 q 439 1011 332 1011 q 642 938 557 1011 q 761 722 727 864 l 655 691 q 437 899 601 899 q 296 857 356 899 q 201 727 237 815 q 165 504 165 639 q 237 198 165 300 q 429 96 309 96 q 581 158 517 96 q 667 349 645 221 m 436 1178 l 374 1063 l 259 1063 l 379 1253 l 486 1253 l 611 1063 l 498 1063 l 436 1178 z "},"ĉ":{"ha":570,"x_min":44,"x_max":559,"o":"m 460 264 l 559 248 q 474 52 542 119 q 310 -16 406 -16 q 119 79 194 -16 q 44 361 44 174 q 120 643 44 549 q 314 736 195 736 q 468 680 406 736 q 549 509 531 623 l 452 490 q 402 600 437 564 q 317 636 367 636 q 195 571 243 636 q 146 363 146 505 q 193 150 146 216 q 312 84 239 84 q 409 128 369 84 q 460 264 450 172 m 327 925 l 264 810 l 150 810 l 270 1000 l 377 1000 l 502 810 l 389 810 l 327 925 z "},"Ċ":{"ha":822,"x_min":54,"x_max":775,"o":"m 667 349 l 775 315 q 649 65 739 148 q 431 -17 559 -17 q 237 38 317 -17 q 105 216 157 94 q 54 504 54 338 q 105 782 54 668 q 244 953 157 895 q 439 1011 332 1011 q 642 938 557 1011 q 761 722 727 864 l 655 691 q 437 899 601 899 q 296 857 356 899 q 201 727 237 815 q 165 504 165 639 q 237 198 165 300 q 429 96 309 96 q 581 158 517 96 q 667 349 645 221 m 359 1063 l 359 1215 l 484 1215 l 484 1063 l 359 1063 z "},"ċ":{"ha":570,"x_min":44,"x_max":559,"o":"m 460 264 l 559 248 q 474 52 542 119 q 310 -16 406 -16 q 119 79 194 -16 q 44 361 44 174 q 120 643 44 549 q 314 736 195 736 q 468 680 406 736 q 549 509 531 623 l 452 490 q 402 600 437 564 q 317 636 367 636 q 195 571 243 636 q 146 363 146 505 q 193 150 146 216 q 312 84 239 84 q 409 128 369 84 q 460 264 450 172 m 245 810 l 245 962 l 370 962 l 370 810 l 245 810 z "},"Ē":{"ha":760,"x_min":90,"x_max":699,"o":"m 90 0 l 90 994 l 680 994 l 680 877 l 198 877 l 198 572 l 649 572 l 649 456 l 198 456 l 198 117 l 699 117 l 699 0 l 90 0 m 220 1063 l 220 1164 l 567 1164 l 567 1063 l 220 1063 z "},"ē":{"ha":633,"x_min":39,"x_max":584,"o":"m 477 232 l 581 216 q 487 42 555 101 q 320 -16 420 -16 q 117 79 195 -16 q 39 354 39 174 q 118 638 39 541 q 316 736 196 736 q 507 640 431 736 q 584 361 584 544 l 583 329 l 142 329 q 199 146 149 208 q 321 84 249 84 q 477 232 433 84 m 149 429 l 478 429 q 438 569 471 523 q 315 636 390 636 q 201 580 248 636 q 149 429 153 524 m 134 811 l 134 911 l 481 911 l 481 811 l 134 811 z "},"Ĕ":{"ha":760,"x_min":90,"x_max":699,"o":"m 90 0 l 90 994 l 680 994 l 680 877 l 198 877 l 198 572 l 649 572 l 649 456 l 198 456 l 198 117 l 699 117 l 699 0 l 90 0 m 478 1238 l 547 1238 q 494 1106 538 1150 q 382 1062 450 1062 q 270 1106 314 1062 q 218 1238 227 1150 l 286 1238 q 379 1146 302 1146 q 446 1168 422 1146 q 478 1238 470 1190 z "},"ĕ":{"ha":633,"x_min":39,"x_max":584,"o":"m 477 232 l 581 216 q 487 42 555 101 q 320 -16 420 -16 q 117 79 195 -16 q 39 354 39 174 q 118 638 39 541 q 316 736 196 736 q 507 640 431 736 q 584 361 584 544 l 583 329 l 142 329 q 199 146 149 208 q 321 84 249 84 q 477 232 433 84 m 149 429 l 478 429 q 438 569 471 523 q 315 636 390 636 q 201 580 248 636 q 149 429 153 524 m 396 985 l 465 985 q 412 853 456 897 q 300 809 368 809 q 188 853 232 809 q 136 985 144 897 l 204 985 q 297 893 220 893 q 364 915 340 893 q 396 985 388 937 z "},"Ė":{"ha":760,"x_min":90,"x_max":699,"o":"m 90 0 l 90 994 l 680 994 l 680 877 l 198 877 l 198 572 l 649 572 l 649 456 l 198 456 l 198 117 l 699 117 l 699 0 l 90 0 m 339 1063 l 339 1215 l 463 1215 l 463 1063 l 339 1063 z "},"ė":{"ha":633,"x_min":39,"x_max":584,"o":"m 477 232 l 581 216 q 487 42 555 101 q 320 -16 420 -16 q 117 79 195 -16 q 39 354 39 174 q 118 638 39 541 q 316 736 196 736 q 507 640 431 736 q 584 361 584 544 l 583 329 l 142 329 q 199 146 149 208 q 321 84 249 84 q 477 232 433 84 m 149 429 l 478 429 q 438 569 471 523 q 315 636 390 636 q 201 580 248 636 q 149 429 153 524 m 254 810 l 254 962 l 378 962 l 378 810 l 254 810 z "},"Ĝ":{"ha":886,"x_min":63,"x_max":817,"o":"m 472 390 l 472 507 l 817 507 l 817 138 q 653 22 738 61 q 479 -17 568 -17 q 266 43 359 -17 q 118 217 172 102 q 63 492 63 332 q 118 776 63 655 q 262 954 173 897 q 472 1011 351 1011 q 629 978 562 1011 q 739 884 696 945 q 804 716 783 823 l 707 684 q 658 809 688 768 q 579 875 628 851 q 469 899 530 899 q 316 856 380 899 q 213 722 252 812 q 174 500 174 631 q 258 201 174 300 q 475 102 341 102 q 605 132 538 102 q 711 205 672 163 l 711 390 l 472 390 m 470 1178 l 408 1063 l 293 1063 l 413 1253 l 520 1253 l 645 1063 l 532 1063 l 470 1178 z "},"ĝ":{"ha":633,"x_min":35,"x_max":555,"o":"m 54 -60 l 152 -77 q 193 -163 159 -135 q 287 -191 227 -191 q 392 -160 353 -191 q 445 -66 431 -128 q 454 94 454 -28 q 380 24 421 47 q 290 0 340 0 q 115 90 184 0 q 35 366 35 193 q 70 568 35 481 q 162 696 105 655 q 291 736 220 736 q 386 711 343 736 q 463 633 429 685 l 463 720 l 555 720 l 555 98 q 528 -139 555 -68 q 439 -251 500 -210 q 290 -292 377 -292 q 114 -231 176 -292 q 54 -60 52 -169 m 138 373 q 184 166 138 231 q 299 101 231 101 q 414 165 367 101 q 462 368 462 229 q 413 569 462 503 q 294 635 364 635 q 185 569 232 635 q 138 373 138 503 m 313 925 l 250 810 l 136 810 l 256 1000 l 363 1000 l 488 810 l 374 810 l 313 925 z "},"Ġ":{"ha":886,"x_min":63,"x_max":817,"o":"m 472 390 l 472 507 l 817 507 l 817 138 q 653 22 738 61 q 479 -17 568 -17 q 266 43 359 -17 q 118 217 172 102 q 63 492 63 332 q 118 776 63 655 q 262 954 173 897 q 472 1011 351 1011 q 629 978 562 1011 q 739 884 696 945 q 804 716 783 823 l 707 684 q 658 809 688 768 q 579 875 628 851 q 469 899 530 899 q 316 856 380 899 q 213 722 252 812 q 174 500 174 631 q 258 201 174 300 q 475 102 341 102 q 605 132 538 102 q 711 205 672 163 l 711 390 l 472 390 m 400 1063 l 400 1215 l 524 1215 l 524 1063 l 400 1063 z "},"ġ":{"ha":633,"x_min":35,"x_max":555,"o":"m 54 -60 l 152 -77 q 193 -163 159 -135 q 287 -191 227 -191 q 392 -160 353 -191 q 445 -66 431 -128 q 454 94 454 -28 q 380 24 421 47 q 290 0 340 0 q 115 90 184 0 q 35 366 35 193 q 70 568 35 481 q 162 696 105 655 q 291 736 220 736 q 386 711 343 736 q 463 633 429 685 l 463 720 l 555 720 l 555 98 q 528 -139 555 -68 q 439 -251 500 -210 q 290 -292 377 -292 q 114 -231 176 -292 q 54 -60 52 -169 m 138 373 q 184 166 138 231 q 299 101 231 101 q 414 165 367 101 q 462 368 462 229 q 413 569 462 503 q 294 635 364 635 q 185 569 232 635 q 138 373 138 503 m 239 810 l 239 962 l 363 962 l 363 810 l 239 810 z "},"Ģ":{"ha":886,"x_min":63,"x_max":817,"o":"m 472 390 l 472 507 l 817 507 l 817 138 q 653 22 738 61 q 479 -17 568 -17 q 266 43 359 -17 q 118 217 172 102 q 63 492 63 332 q 118 776 63 655 q 262 954 173 897 q 472 1011 351 1011 q 629 978 562 1011 q 739 884 696 945 q 804 716 783 823 l 707 684 q 658 809 688 768 q 579 875 628 851 q 469 899 530 899 q 316 856 380 899 q 213 722 252 812 q 174 500 174 631 q 258 201 174 300 q 475 102 341 102 q 605 132 538 102 q 711 205 672 163 l 711 390 l 472 390 m 391 -104 l 420 16 l 495 16 l 476 -57 q 547 -92 522 -64 q 572 -159 572 -119 q 529 -249 572 -212 q 414 -286 487 -286 q 331 -277 366 -286 l 337 -198 q 392 -201 373 -201 q 458 -186 437 -201 q 479 -150 479 -172 q 460 -117 479 -129 q 391 -104 441 -105 z "},"ģ":{"ha":633,"x_min":35,"x_max":555,"o":"m 54 -60 l 152 -77 q 193 -163 159 -135 q 287 -191 227 -191 q 392 -160 353 -191 q 445 -66 431 -128 q 454 94 454 -28 q 380 24 421 47 q 290 0 340 0 q 115 90 184 0 q 35 366 35 193 q 70 568 35 481 q 162 696 105 655 q 291 736 220 736 q 386 711 343 736 q 463 633 429 685 l 463 720 l 555 720 l 555 98 q 528 -139 555 -68 q 439 -251 500 -210 q 290 -292 377 -292 q 114 -231 176 -292 q 54 -60 52 -169 m 138 373 q 184 166 138 231 q 299 101 231 101 q 414 165 367 101 q 462 368 462 229 q 413 569 462 503 q 294 635 364 635 q 185 569 232 635 q 138 373 138 503 m 336 935 l 336 810 l 233 810 l 233 935 q 317 1089 233 1044 l 342 1042 q 285 935 289 1013 l 336 935 z "},"Ĥ":{"ha":822,"x_min":87,"x_max":727,"o":"m 87 0 l 87 994 l 195 994 l 195 586 l 619 586 l 619 994 l 727 994 l 727 0 l 619 0 l 619 469 l 195 469 l 195 0 l 87 0 m 406 1178 l 344 1063 l 229 1063 l 349 1253 l 456 1253 l 581 1063 l 468 1063 l 406 1178 z "},"ĥ":{"ha":633,"x_min":73,"x_max":554,"o":"m 73 0 l 73 994 l 173 994 l 173 637 q 253 712 208 687 q 351 736 297 736 q 499 676 445 736 q 554 456 554 616 l 554 0 l 454 0 l 454 456 q 421 591 454 550 q 330 631 388 631 q 219 579 264 631 q 173 394 173 527 l 173 0 l 73 0 m 327 1178 l 264 1063 l 150 1063 l 270 1253 l 377 1253 l 502 1063 l 389 1063 l 327 1178 z "},"Ħ":{"ha":822,"x_min":16,"x_max":808,"o":"m 732 764 l 732 0 l 624 0 l 624 469 l 200 469 l 200 0 l 92 0 l 92 764 l 16 764 l 16 865 l 92 865 l 92 994 l 200 994 l 200 865 l 624 865 l 624 994 l 732 994 l 732 865 l 808 865 l 808 764 l 732 764 m 624 764 l 200 764 l 200 586 l 624 586 l 624 764 z "},"ħ":{"ha":633,"x_min":-35,"x_max":554,"o":"m 73 0 l 73 805 l -35 805 l -35 905 l 73 905 l 73 994 l 173 994 l 173 905 l 312 905 l 312 805 l 173 805 l 173 637 q 253 712 208 687 q 351 736 297 736 q 499 676 445 736 q 554 456 554 616 l 554 0 l 454 0 l 454 456 q 421 591 454 550 q 330 631 388 631 q 219 579 264 631 q 173 394 173 527 l 173 0 l 73 0 z "},"Ĩ":{"ha":317,"x_min":-23,"x_max":350,"o":"m 109 0 l 109 994 l 216 994 l 216 0 l 109 0 m -22 1063 q 10 1177 -23 1136 q 90 1218 43 1218 q 184 1181 125 1218 q 237 1161 217 1161 q 264 1173 255 1161 q 277 1220 273 1185 l 350 1220 q 317 1104 348 1142 q 240 1065 286 1065 q 149 1103 206 1065 q 94 1128 111 1128 q 64 1112 76 1128 q 52 1063 52 1096 l -22 1063 z "},"ĩ":{"ha":317,"x_min":-29,"x_max":344,"o":"m 113 0 l 113 720 l 212 720 l 212 0 l 113 0 m -28 810 q 4 924 -29 883 q 84 965 37 965 q 178 928 119 965 q 231 908 211 908 q 258 920 249 908 q 271 967 267 932 l 344 967 q 311 851 342 889 q 234 812 280 812 q 142 850 200 812 q 88 875 105 875 q 58 859 70 875 q 45 810 45 843 l -28 810 z "},"Ī":{"ha":317,"x_min":-16,"x_max":331,"o":"m 109 0 l 109 994 l 216 994 l 216 0 l 109 0 m -16 1063 l -16 1164 l 331 1164 l 331 1063 l -16 1063 z "},"ī":{"ha":317,"x_min":-16,"x_max":332,"o":"m 113 0 l 113 720 l 212 720 l 212 0 l 113 0 m -16 810 l -16 911 l 332 911 l 332 810 l -16 810 z "},"Ĭ":{"ha":317,"x_min":-1,"x_max":328,"o":"m 109 0 l 109 994 l 216 994 l 216 0 l 109 0 m 259 1238 l 328 1238 q 275 1106 319 1150 q 163 1062 231 1062 q 51 1106 95 1062 q -1 1238 7 1150 l 67 1238 q 160 1146 83 1146 q 227 1168 203 1146 q 259 1238 251 1190 z "},"ĭ":{"ha":317,"x_min":-3,"x_max":326,"o":"m 113 0 l 113 720 l 212 720 l 212 0 l 113 0 m 258 993 l 326 993 q 273 861 317 905 q 161 817 229 817 q 50 861 94 817 q -3 993 6 905 l 66 993 q 159 901 81 901 q 226 923 202 901 q 258 993 250 945 z "},"Į":{"ha":317,"x_min":104,"x_max":347,"o":"m 109 0 l 109 994 l 216 994 l 216 0 l 109 0 m 127 16 l 195 16 q 174 -96 174 -44 q 197 -170 174 -142 q 254 -198 220 -198 q 347 -167 296 -198 l 347 -248 q 226 -288 282 -288 q 138 -249 172 -288 q 104 -137 104 -210 q 127 16 104 -79 z "},"į":{"ha":253,"x_min":68,"x_max":311,"o":"m 73 854 l 73 994 l 173 994 l 173 854 l 73 854 m 73 0 l 73 720 l 173 720 l 173 0 l 73 0 m 91 16 l 159 16 q 138 -96 138 -44 q 161 -170 138 -142 q 218 -198 184 -198 q 311 -167 260 -198 l 311 -248 q 190 -288 246 -288 q 102 -249 136 -288 q 68 -137 68 -210 q 91 16 68 -79 z "},"Ĵ":{"ha":570,"x_min":31,"x_max":606,"o":"m 31 282 l 127 298 q 163 142 132 184 q 249 100 194 100 q 317 122 288 100 q 357 176 347 143 q 371 309 371 220 l 371 994 l 479 994 l 479 317 q 419 58 479 134 q 250 -17 359 -17 q 91 51 143 -17 q 31 282 31 128 m 431 1178 l 368 1063 l 254 1063 l 374 1253 l 481 1253 l 606 1063 l 492 1063 l 431 1178 z "},"ĵ":{"ha":253,"x_min":-54,"x_max":303,"o":"m -54 -279 l -35 -176 q 12 -185 -5 -185 q 58 -160 43 -185 q 73 -37 73 -135 l 73 720 l 172 720 l 172 -39 q 135 -239 172 -186 q 24 -292 97 -292 q -54 -279 -16 -292 m 128 925 l 66 810 l -49 810 l 71 1000 l 178 1000 l 303 810 l 190 810 l 128 925 z "},"Ķ":{"ha":760,"x_min":84,"x_max":758,"o":"m 84 0 l 84 994 l 192 994 l 192 501 l 597 994 l 743 994 l 401 591 l 758 0 l 616 0 l 326 503 l 192 345 l 192 0 l 84 0 m 353 -104 l 361 -54 q 443 -58 414 -54 q 509 -92 484 -64 q 533 -159 533 -119 q 491 -249 533 -212 q 375 -286 448 -286 q 292 -277 327 -286 l 298 -198 q 353 -201 334 -201 q 419 -186 399 -201 q 440 -150 440 -172 q 421 -117 440 -129 q 353 -104 403 -105 z "},"ķ":{"ha":570,"x_min":73,"x_max":562,"o":"m 73 0 l 73 994 l 172 994 l 172 427 l 410 720 l 539 720 l 313 453 l 562 0 l 439 0 l 243 368 l 172 286 l 172 0 l 73 0 m 213 -104 l 221 -54 q 303 -58 275 -54 q 369 -92 345 -64 q 393 -159 393 -119 q 351 -249 393 -212 q 235 -286 309 -286 q 153 -277 187 -286 l 159 -198 q 214 -201 195 -201 q 280 -186 259 -201 q 300 -150 300 -172 q 282 -117 300 -129 q 213 -104 263 -105 z "},"ĸ":{"ha":567,"x_min":74,"x_max":568,"o":"m 74 0 l 74 720 l 174 720 l 174 437 l 412 720 l 546 720 l 281 421 l 568 0 l 440 0 l 210 339 l 174 297 l 174 0 l 74 0 z "},"Ļ":{"ha":633,"x_min":81,"x_max":591,"o":"m 81 0 l 81 994 l 189 994 l 189 117 l 591 117 l 591 0 l 81 0 m 275 -104 l 283 -54 q 366 -58 337 -54 q 431 -92 407 -64 q 456 -159 456 -119 q 413 -249 456 -212 q 298 -286 371 -286 q 215 -277 250 -286 l 221 -198 q 276 -201 257 -201 q 342 -186 321 -201 q 363 -150 363 -172 q 344 -117 363 -129 q 275 -104 326 -105 z "},"ļ":{"ha":253,"x_min":-57,"x_max":184,"o":"m 6 0 l 6 994 l 106 994 l 106 0 l 6 0 m 3 -104 l 12 -54 q 94 -58 65 -54 q 159 -92 135 -64 q 184 -159 184 -119 q 141 -249 184 -212 q 26 -286 99 -286 q -57 -277 -22 -286 l -51 -198 q 4 -201 -15 -201 q 70 -186 50 -201 q 91 -150 91 -172 q 72 -117 91 -129 q 3 -104 54 -105 z "},"Ņ":{"ha":822,"x_min":85,"x_max":727,"o":"m 85 0 l 85 994 l 195 994 l 624 214 l 624 994 l 727 994 l 727 0 l 616 0 l 189 781 l 189 0 l 85 0 m 352 -104 l 360 -54 q 442 -58 414 -54 q 508 -92 484 -64 q 532 -159 532 -119 q 490 -249 532 -212 q 374 -286 448 -286 q 292 -277 326 -286 l 298 -198 q 353 -201 334 -201 q 419 -186 398 -201 q 439 -150 439 -172 q 421 -117 439 -129 q 352 -104 402 -105 z "},"ņ":{"ha":633,"x_min":73,"x_max":553,"o":"m 73 0 l 73 720 l 163 720 l 163 618 q 243 707 196 677 q 351 736 290 736 q 439 718 399 736 q 504 669 479 699 q 541 591 529 639 q 553 443 553 543 l 553 0 l 453 0 l 453 438 q 439 554 453 517 q 397 611 426 591 q 330 631 368 631 q 216 577 258 631 q 173 393 173 524 l 173 0 l 73 0 m 254 -104 l 262 -54 q 344 -58 315 -54 q 410 -92 385 -64 q 434 -159 434 -119 q 392 -249 434 -212 q 276 -286 349 -286 q 193 -277 228 -286 l 199 -198 q 254 -201 235 -201 q 320 -186 300 -201 q 341 -150 341 -172 q 322 -117 341 -129 q 254 -104 304 -105 z "},"Ŋ":{"ha":822,"x_min":90,"x_max":764,"o":"m 90 0 l 90 994 l 199 994 l 199 935 q 371 994 260 994 q 667 877 570 994 q 764 504 764 760 q 677 125 764 260 q 439 -10 591 -10 q 330 5 410 -10 l 330 118 q 435 102 376 113 q 602 204 551 113 q 653 505 653 296 q 583 797 653 715 q 370 878 513 878 q 199 810 264 878 l 199 0 l 90 0 z "},"ŋ":{"ha":633,"x_min":78,"x_max":559,"o":"m 334 -279 l 353 -175 q 401 -184 388 -184 q 446 -160 432 -184 q 458 -62 459 -136 l 458 355 q 448 540 458 496 q 409 607 437 583 q 334 631 381 631 q 228 585 277 631 q 178 393 178 538 l 178 0 l 78 0 l 78 720 l 168 720 l 168 618 q 355 736 234 736 q 479 696 428 736 q 544 600 530 656 q 558 443 558 543 l 558 -37 q 525 -233 559 -176 q 415 -290 491 -290 q 334 -279 364 -290 z "},"Ō":{"ha":886,"x_min":58,"x_max":838,"o":"m 58 484 q 170 875 58 739 q 448 1012 281 1012 q 645 951 556 1012 q 786 773 734 890 q 838 496 838 657 q 737 136 838 275 q 448 -17 627 -17 q 157 140 267 -17 q 58 484 58 283 m 169 482 q 250 197 169 298 q 447 96 331 96 q 646 198 566 96 q 726 499 726 300 q 685 728 726 627 q 589 852 653 806 q 449 899 525 899 q 248 797 327 899 q 169 482 169 695 m 264 1063 l 264 1164 l 612 1164 l 612 1063 l 264 1063 z "},"ō":{"ha":633,"x_min":36,"x_max":589,"o":"m 36 360 q 114 642 36 547 q 313 736 193 736 q 510 642 431 736 q 589 368 589 547 q 511 79 589 174 q 313 -16 433 -16 q 115 79 194 -16 q 36 360 36 174 m 138 360 q 189 152 138 220 q 315 84 240 84 q 436 153 386 84 q 487 360 487 222 q 436 567 487 499 q 310 635 385 635 q 189 567 239 635 q 138 360 138 498 m 140 810 l 140 911 l 488 911 l 488 810 l 140 810 z "},"Ŏ":{"ha":886,"x_min":58,"x_max":838,"o":"m 58 484 q 170 875 58 739 q 448 1012 281 1012 q 645 951 556 1012 q 786 773 734 890 q 838 496 838 657 q 737 136 838 275 q 448 -17 627 -17 q 157 140 267 -17 q 58 484 58 283 m 169 482 q 250 197 169 298 q 447 96 331 96 q 646 198 566 96 q 726 499 726 300 q 685 728 726 627 q 589 852 653 806 q 449 899 525 899 q 248 797 327 899 q 169 482 169 695 m 532 1238 l 600 1238 q 547 1106 591 1150 q 435 1062 503 1062 q 324 1106 368 1062 q 271 1238 280 1150 l 340 1238 q 433 1146 355 1146 q 500 1168 476 1146 q 532 1238 524 1190 z "},"ŏ":{"ha":633,"x_min":36,"x_max":589,"o":"m 36 360 q 114 642 36 547 q 313 736 193 736 q 510 642 431 736 q 589 368 589 547 q 511 79 589 174 q 313 -16 433 -16 q 115 79 194 -16 q 36 360 36 174 m 138 360 q 189 152 138 220 q 315 84 240 84 q 436 153 386 84 q 487 360 487 222 q 436 567 487 499 q 310 635 385 635 q 189 567 239 635 q 138 360 138 498 m 411 985 l 479 985 q 427 853 471 897 q 315 809 382 809 q 203 853 247 809 q 151 985 159 897 l 219 985 q 312 893 235 893 q 379 915 355 893 q 411 985 403 937 z "},"Ŗ":{"ha":822,"x_min":87,"x_max":806,"o":"m 87 0 l 87 994 l 449 994 q 616 966 562 994 q 705 874 670 939 q 739 724 739 809 q 681 541 739 611 q 510 452 622 471 q 579 397 555 425 q 664 271 627 340 l 806 0 l 671 0 l 562 207 q 467 370 499 328 q 405 427 435 412 q 320 441 374 441 l 195 441 l 195 0 l 87 0 m 195 555 l 427 555 q 543 574 503 555 q 605 631 582 592 q 628 723 628 671 q 584 841 628 798 q 453 884 540 884 l 195 884 l 195 555 m 313 -104 l 321 -54 q 404 -58 375 -54 q 469 -92 445 -64 q 494 -159 494 -119 q 451 -249 494 -212 q 336 -286 409 -286 q 253 -277 288 -286 l 259 -198 q 314 -201 295 -201 q 380 -186 359 -201 q 401 -150 401 -172 q 382 -117 401 -129 q 313 -104 363 -105 z "},"ŗ":{"ha":379,"x_min":73,"x_max":394,"o":"m 73 0 l 73 720 l 163 720 l 163 611 q 227 712 198 687 q 292 736 256 736 q 394 697 342 736 l 360 584 q 288 610 323 610 q 229 588 256 610 q 192 526 203 566 q 173 377 173 456 l 173 0 l 73 0 m 178 -104 l 186 -54 q 268 -58 239 -54 q 334 -92 309 -64 q 358 -159 358 -119 q 316 -249 358 -212 q 200 -286 273 -286 q 117 -277 152 -286 l 123 -198 q 178 -201 159 -201 q 244 -186 224 -201 q 265 -150 265 -172 q 247 -117 265 -129 q 178 -104 228 -105 z "},"Ŝ":{"ha":760,"x_min":52,"x_max":701,"o":"m 52 319 l 153 330 q 190 202 161 248 q 273 129 219 157 q 393 101 326 101 q 543 148 490 101 q 596 271 596 195 q 577 348 596 315 q 518 401 557 380 q 350 460 479 422 q 186 529 235 494 q 110 617 137 564 q 83 737 83 670 q 161 935 83 858 q 371 1011 239 1011 q 530 975 462 1011 q 636 872 598 939 q 676 714 673 805 l 572 705 q 514 848 564 802 q 374 895 465 895 q 235 854 283 895 q 186 748 186 813 q 222 654 186 688 q 380 587 257 621 q 550 530 501 554 q 663 430 625 492 q 701 281 701 368 q 661 126 701 196 q 552 19 621 56 q 386 -18 483 -18 q 145 73 235 -18 q 52 319 55 164 m 382 1178 l 319 1063 l 205 1063 l 325 1253 l 432 1253 l 557 1063 l 444 1063 l 382 1178 z "},"ŝ":{"ha":570,"x_min":35,"x_max":526,"o":"m 35 215 l 134 234 q 182 121 143 158 q 287 84 222 84 q 388 116 352 84 q 423 198 423 149 q 393 264 423 241 q 291 305 372 281 q 135 366 174 341 q 74 433 96 391 q 52 529 52 475 q 111 679 52 621 q 275 736 170 736 q 390 713 340 736 q 467 649 440 689 q 503 534 493 609 l 406 518 q 277 636 392 636 q 180 610 212 636 q 149 543 149 584 q 179 480 149 503 q 288 437 197 467 q 448 373 412 397 q 505 310 485 350 q 526 214 526 269 q 460 47 526 111 q 281 -17 395 -17 q 35 215 69 -17 m 293 925 l 231 810 l 116 810 l 236 1000 l 343 1000 l 468 810 l 355 810 l 293 925 z "},"Ŧ":{"ha":696,"x_min":28,"x_max":675,"o":"m 297 0 l 297 545 l 176 545 l 176 645 l 297 645 l 297 877 l 28 877 l 28 994 l 675 994 l 675 877 l 405 877 l 405 645 l 524 645 l 524 545 l 405 545 l 405 0 l 297 0 z "},"ŧ":{"ha":317,"x_min":-11,"x_max":336,"o":"m 33 720 l 106 720 l 106 899 l 205 972 l 205 720 l 307 720 l 307 625 l 205 625 l 205 509 l 336 509 l 336 409 l 205 409 l 205 204 q 214 129 205 146 q 262 104 227 104 q 307 109 279 104 l 320 1 q 245 -9 279 -9 q 161 11 193 -9 q 118 68 130 32 q 106 211 106 104 l 106 409 l -11 409 l -11 509 l 106 509 l 106 625 l 33 625 l 33 720 z "},"Ũ":{"ha":822,"x_min":87,"x_max":729,"o":"m 621 994 l 729 994 l 729 420 q 701 183 729 275 q 598 37 673 90 q 410 -17 524 -17 q 168 79 248 -17 q 87 420 87 176 l 87 994 l 195 994 l 195 420 q 216 225 195 286 q 285 133 237 165 q 401 102 333 102 q 569 167 517 102 q 621 420 621 232 l 621 994 m 219 1063 q 252 1177 218 1136 q 332 1218 284 1218 q 426 1181 367 1218 q 478 1161 458 1161 q 506 1173 496 1161 q 519 1220 515 1185 l 591 1220 q 558 1104 589 1142 q 481 1065 528 1065 q 390 1103 448 1065 q 336 1128 353 1128 q 305 1112 317 1128 q 293 1063 293 1096 l 219 1063 z "},"ũ":{"ha":633,"x_min":71,"x_max":550,"o":"m 460 0 l 460 106 q 379 14 426 45 q 273 -16 332 -16 q 154 21 203 -16 q 88 117 104 59 q 71 274 71 174 l 71 720 l 171 720 l 171 321 q 182 172 171 210 q 223 112 193 134 q 292 89 254 89 q 410 148 364 89 q 450 334 450 199 l 450 720 l 550 720 l 550 0 l 460 0 m 127 810 q 159 924 126 883 q 239 965 192 965 q 334 928 275 965 q 386 908 366 908 q 413 920 404 908 q 427 967 422 932 l 499 967 q 466 851 497 889 q 389 812 435 812 q 298 850 355 812 q 243 875 260 875 q 213 859 225 875 q 201 810 201 843 l 127 810 z "},"Ū":{"ha":822,"x_min":87,"x_max":729,"o":"m 621 994 l 729 994 l 729 420 q 701 183 729 275 q 598 37 673 90 q 410 -17 524 -17 q 168 79 248 -17 q 87 420 87 176 l 87 994 l 195 994 l 195 420 q 216 225 195 286 q 285 133 237 165 q 401 102 333 102 q 569 167 517 102 q 621 420 621 232 l 621 994 m 236 1061 l 236 1161 l 583 1161 l 583 1061 l 236 1061 z "},"ū":{"ha":633,"x_min":71,"x_max":550,"o":"m 460 0 l 460 106 q 379 14 426 45 q 273 -16 332 -16 q 154 21 203 -16 q 88 117 104 59 q 71 274 71 174 l 71 720 l 171 720 l 171 321 q 182 172 171 210 q 223 112 193 134 q 292 89 254 89 q 410 148 364 89 q 450 334 450 199 l 450 720 l 550 720 l 550 0 l 460 0 m 135 810 l 135 911 l 482 911 l 482 810 l 135 810 z "},"Ŭ":{"ha":822,"x_min":87,"x_max":729,"o":"m 621 994 l 729 994 l 729 420 q 701 183 729 275 q 598 37 673 90 q 410 -17 524 -17 q 168 79 248 -17 q 87 420 87 176 l 87 994 l 195 994 l 195 420 q 216 225 195 286 q 285 133 237 165 q 401 102 333 102 q 569 167 517 102 q 621 420 621 232 l 621 994 m 504 1238 l 572 1238 q 519 1106 564 1150 q 408 1062 475 1062 q 296 1106 340 1062 q 243 1238 252 1150 l 312 1238 q 405 1146 328 1146 q 472 1168 448 1146 q 504 1238 496 1190 z "},"ŭ":{"ha":633,"x_min":71,"x_max":550,"o":"m 460 0 l 460 106 q 379 14 426 45 q 273 -16 332 -16 q 154 21 203 -16 q 88 117 104 59 q 71 274 71 174 l 71 720 l 171 720 l 171 321 q 182 172 171 210 q 223 112 193 134 q 292 89 254 89 q 410 148 364 89 q 450 334 450 199 l 450 720 l 550 720 l 550 0 l 460 0 m 410 985 l 478 985 q 425 853 469 897 q 313 809 381 809 q 202 853 245 809 q 149 985 158 897 l 218 985 q 311 893 233 893 q 378 915 354 893 q 410 985 401 937 z "},"Ų":{"ha":822,"x_min":87,"x_max":729,"o":"m 621 994 l 729 994 l 729 420 q 701 183 729 275 q 598 37 673 90 q 410 -17 524 -17 q 168 79 248 -17 q 87 420 87 176 l 87 994 l 195 994 l 195 420 q 216 225 195 286 q 285 133 237 165 q 401 102 333 102 q 569 167 517 102 q 621 420 621 232 l 621 994 m 387 16 l 456 16 q 435 -96 435 -44 q 458 -170 435 -142 q 515 -198 481 -198 q 608 -167 557 -198 l 608 -248 q 486 -288 543 -288 q 398 -249 433 -288 q 364 -137 364 -210 q 387 16 364 -79 z "},"ų":{"ha":633,"x_min":71,"x_max":698,"o":"m 460 0 l 460 106 q 379 14 426 45 q 273 -16 332 -16 q 154 21 203 -16 q 88 117 104 59 q 71 274 71 174 l 71 720 l 171 720 l 171 321 q 182 172 171 210 q 223 112 193 134 q 292 89 254 89 q 410 148 364 89 q 450 334 450 199 l 450 720 l 550 720 l 550 0 l 460 0 m 477 16 l 546 16 q 525 -96 525 -44 q 548 -170 525 -142 q 605 -198 571 -198 q 698 -167 647 -198 l 698 -248 q 576 -288 633 -288 q 489 -249 523 -288 q 454 -137 454 -210 q 477 16 454 -79 z "},"Ŵ":{"ha":1075,"x_min":16,"x_max":1064,"o":"m 232 0 l 16 994 l 126 994 l 250 342 q 285 139 270 242 l 321 323 l 477 994 l 607 994 l 724 491 q 787 139 766 307 q 827 355 803 236 l 956 994 l 1064 994 l 840 0 l 736 0 l 564 758 l 538 874 q 515 758 527 809 l 342 0 l 232 0 m 543 1178 l 480 1063 l 366 1063 l 486 1253 l 593 1253 l 718 1063 l 604 1063 l 543 1178 z "},"ŵ":{"ha":822,"x_min":1,"x_max":812,"o":"m 182 0 l 1 720 l 105 720 l 199 304 l 233 150 l 264 298 l 358 720 l 461 720 l 549 302 l 579 165 l 613 304 l 714 720 l 812 720 l 627 0 l 523 0 l 429 431 l 406 554 l 287 0 l 182 0 m 422 925 l 360 810 l 245 810 l 366 1000 l 473 1000 l 597 810 l 484 810 l 422 925 z "},"Ŷ":{"ha":760,"x_min":3,"x_max":751,"o":"m 317 0 l 317 421 l 3 994 l 135 994 l 295 694 q 378 526 342 606 q 467 702 414 604 l 625 994 l 751 994 l 425 421 l 425 0 l 317 0 m 371 1178 l 309 1063 l 194 1063 l 314 1253 l 421 1253 l 546 1063 l 433 1063 l 371 1178 z "},"ŷ":{"ha":570,"x_min":18,"x_max":559,"o":"m 71 -277 l 60 -163 q 117 -174 93 -174 q 169 -161 149 -174 q 203 -121 190 -148 q 243 -1 208 -111 l 18 720 l 126 720 l 250 303 q 292 136 273 225 q 333 300 309 220 l 459 720 l 559 720 l 335 -12 q 266 -202 291 -155 q 208 -271 240 -250 q 135 -292 176 -292 q 71 -277 106 -292 m 300 925 l 237 810 l 123 810 l 243 1000 l 350 1000 l 475 810 l 361 810 l 300 925 z "},"ſ":{"ha":253,"x_min":76,"x_max":332,"o":"m 76 0 l 76 797 q 121 967 76 924 q 241 1011 166 1011 q 332 999 283 1011 l 317 892 q 260 899 290 899 q 195 875 214 899 q 175 787 175 851 l 175 0 l 76 0 z "},"Ǻ":{"ha":760,"x_min":-1,"x_max":762,"o":"m -1 0 l 312 994 l 428 994 l 762 0 l 638 0 l 543 301 l 203 301 l 113 0 l -1 0 m 234 408 l 510 408 l 425 684 q 368 890 386 810 q 323 700 352 794 l 234 408 m 281 1159 q 311 1245 281 1210 q 381 1280 341 1280 q 451 1245 420 1280 q 481 1156 481 1210 q 451 1067 481 1102 q 381 1032 421 1032 q 311 1067 341 1032 q 281 1159 281 1103 m 323 1158 q 341 1104 323 1125 q 382 1083 359 1083 q 423 1104 405 1083 q 441 1157 441 1125 q 423 1210 441 1189 q 382 1231 406 1231 q 341 1210 359 1231 q 323 1158 323 1189 m 324 1318 l 398 1508 l 529 1508 l 407 1318 l 324 1318 z "},"ǻ":{"ha":633,"x_min":39,"x_max":583,"o":"m 458 89 q 354 10 408 37 q 241 -16 300 -16 q 94 39 149 -16 q 39 189 39 95 q 65 300 39 252 q 136 375 91 348 q 271 415 180 402 q 450 457 393 433 l 451 488 q 425 592 451 562 q 310 635 387 635 q 205 607 240 635 q 155 498 171 578 l 56 515 q 141 684 77 631 q 325 736 205 736 q 471 702 418 736 q 537 615 524 667 q 551 465 551 564 l 551 302 q 558 86 551 131 q 583 0 564 42 l 479 0 q 458 89 463 37 m 450 361 q 287 315 395 334 q 199 291 224 304 q 160 251 174 277 q 146 193 146 226 q 178 110 146 141 q 266 79 210 79 q 363 107 319 79 q 429 181 407 135 q 450 317 450 228 l 450 361 m 207 937 q 237 1023 207 988 q 307 1059 267 1059 q 377 1023 347 1059 q 407 935 407 988 q 377 845 407 880 q 307 810 347 810 q 237 846 267 810 q 207 937 207 881 m 250 937 q 267 882 250 903 q 308 861 285 861 q 349 882 331 861 q 367 935 367 903 q 349 988 367 967 q 309 1009 332 1009 q 267 988 285 1009 q 250 937 250 967 m 259 1114 l 333 1303 l 464 1303 l 342 1114 l 259 1114 z "},"Ǽ":{"ha":1139,"x_min":1,"x_max":1077,"o":"m 1 0 l 393 994 l 1062 994 l 1062 877 l 652 877 l 652 571 l 1033 571 l 1033 454 l 652 454 l 652 117 l 1077 117 l 1077 0 l 544 0 l 544 287 l 229 287 l 117 0 l 1 0 m 275 404 l 544 404 l 544 877 l 463 877 l 275 404 m 612 1063 l 686 1253 l 817 1253 l 694 1063 l 612 1063 z "},"ǽ":{"ha":1013,"x_min":36,"x_max":964,"o":"m 962 220 q 866 43 934 103 q 702 -16 799 -16 q 580 16 633 -16 q 482 118 526 47 q 237 -16 371 -16 q 91 41 146 -16 q 36 189 36 99 q 64 300 36 250 q 139 376 92 350 q 297 420 186 403 q 437 454 380 434 l 438 481 q 408 602 438 569 q 307 635 378 635 q 199 607 233 635 q 149 497 165 578 l 52 511 q 137 684 75 632 q 310 736 199 736 q 440 712 392 736 q 512 640 488 688 q 701 736 585 736 q 834 696 777 736 q 928 569 891 656 q 964 370 964 481 l 964 329 l 537 329 q 557 184 538 229 q 618 112 576 140 q 708 84 660 84 q 803 123 762 84 q 858 237 843 163 l 962 220 m 537 429 l 862 429 q 810 587 854 538 q 703 635 767 635 q 588 583 633 635 q 537 429 543 530 m 439 361 q 260 312 395 338 q 176 278 199 300 q 142 194 142 245 q 173 112 142 143 q 256 80 203 80 q 369 119 321 80 q 431 218 417 157 q 439 361 439 252 m 374 810 l 448 1000 l 579 1000 l 457 810 l 374 810 z "},"Ǿ":{"ha":886,"x_min":49,"x_max":846,"o":"m 698 903 l 791 1031 l 846 974 l 748 840 q 817 674 798 749 q 836 498 836 600 q 783 219 836 335 q 641 43 730 102 q 444 -17 551 -17 q 318 6 375 -17 q 197 87 262 28 l 104 -40 l 49 17 l 146 151 q 74 325 92 254 q 56 493 56 395 q 109 776 56 658 q 250 952 162 894 q 448 1011 337 1011 q 575 988 517 1011 q 698 903 632 964 m 631 812 q 539 881 578 863 q 448 899 499 899 q 247 797 326 899 q 167 495 167 696 q 177 367 167 420 q 216 245 187 315 l 631 812 m 677 742 l 263 178 q 350 114 307 133 q 444 96 393 96 q 643 198 563 96 q 724 494 724 300 q 677 742 724 634 m 353 1063 l 427 1253 l 558 1253 l 436 1063 l 353 1063 z "},"ǿ":{"ha":696,"x_min":77,"x_max":630,"o":"m 516 677 l 571 764 l 625 717 l 565 623 q 614 513 601 563 q 630 360 630 447 q 551 78 630 172 q 349 -16 473 -16 q 196 38 264 -16 l 138 -54 l 85 -5 l 146 90 q 97 191 110 140 q 77 350 77 266 q 155 640 77 544 q 351 736 233 736 q 432 723 394 736 q 516 677 470 710 m 460 588 q 353 635 409 635 q 230 567 281 635 q 179 363 179 498 q 208 190 179 259 l 460 588 m 501 522 l 252 127 q 350 84 295 84 q 477 152 426 84 q 528 362 528 220 q 522 445 528 412 q 501 522 517 478 m 267 810 l 340 1000 l 471 1000 l 349 810 l 267 810 z "},"·":{"ha":463,"x_min":236,"x_max":350,"o":"m 236 432 l 236 571 l 350 571 l 350 432 l 236 432 z "},"Ẁ":{"ha":1075,"x_min":16,"x_max":1064,"o":"m 232 0 l 16 994 l 126 994 l 250 342 q 285 139 270 242 l 321 323 l 477 994 l 607 994 l 724 491 q 787 139 766 307 q 827 355 803 236 l 956 994 l 1064 994 l 840 0 l 736 0 l 564 758 l 538 874 q 515 758 527 809 l 342 0 l 232 0 m 631 1063 l 550 1063 l 422 1253 l 556 1253 l 631 1063 z "},"ẁ":{"ha":822,"x_min":1,"x_max":812,"o":"m 182 0 l 1 720 l 105 720 l 199 304 l 233 150 l 264 298 l 358 720 l 461 720 l 549 302 l 579 165 l 613 304 l 714 720 l 812 720 l 627 0 l 523 0 l 429 431 l 406 554 l 287 0 l 182 0 m 480 810 l 399 810 l 271 1000 l 406 1000 l 480 810 z "},"Ẃ":{"ha":1075,"x_min":16,"x_max":1064,"o":"m 232 0 l 16 994 l 126 994 l 250 342 q 285 139 270 242 l 321 323 l 477 994 l 607 994 l 724 491 q 787 139 766 307 q 827 355 803 236 l 956 994 l 1064 994 l 840 0 l 736 0 l 564 758 l 538 874 q 515 758 527 809 l 342 0 l 232 0 m 454 1063 l 528 1253 l 659 1253 l 536 1063 l 454 1063 z "},"ẃ":{"ha":822,"x_min":1,"x_max":812,"o":"m 182 0 l 1 720 l 105 720 l 199 304 l 233 150 l 264 298 l 358 720 l 461 720 l 549 302 l 579 165 l 613 304 l 714 720 l 812 720 l 627 0 l 523 0 l 429 431 l 406 554 l 287 0 l 182 0 m 353 810 l 427 1000 l 558 1000 l 436 810 l 353 810 z "},"Ẅ":{"ha":1075,"x_min":16,"x_max":1064,"o":"m 232 0 l 16 994 l 126 994 l 250 342 q 285 139 270 242 l 321 323 l 477 994 l 607 994 l 724 491 q 787 139 766 307 q 827 355 803 236 l 956 994 l 1064 994 l 840 0 l 736 0 l 564 758 l 538 874 q 515 758 527 809 l 342 0 l 232 0 m 378 1114 l 378 1253 l 483 1253 l 483 1114 l 378 1114 m 586 1114 l 586 1253 l 690 1253 l 690 1114 l 586 1114 z "},"ẅ":{"ha":822,"x_min":1,"x_max":812,"o":"m 182 0 l 1 720 l 105 720 l 199 304 l 233 150 l 264 298 l 358 720 l 461 720 l 549 302 l 579 165 l 613 304 l 714 720 l 812 720 l 627 0 l 523 0 l 429 431 l 406 554 l 287 0 l 182 0 m 247 861 l 247 1000 l 351 1000 l 351 861 l 247 861 m 454 861 l 454 1000 l 559 1000 l 559 861 l 454 861 z "},"Ỳ":{"ha":760,"x_min":3,"x_max":751,"o":"m 317 0 l 317 421 l 3 994 l 135 994 l 295 694 q 378 526 342 606 q 467 702 414 604 l 625 994 l 751 994 l 425 421 l 425 0 l 317 0 m 465 1063 l 385 1063 l 256 1253 l 391 1253 l 465 1063 z "},"ỳ":{"ha":570,"x_min":18,"x_max":559,"o":"m 71 -277 l 60 -163 q 117 -174 93 -174 q 169 -161 149 -174 q 203 -121 190 -148 q 243 -1 208 -111 l 18 720 l 126 720 l 250 303 q 292 136 273 225 q 333 300 309 220 l 459 720 l 559 720 l 335 -12 q 266 -202 291 -155 q 208 -271 240 -250 q 135 -292 176 -292 q 71 -277 106 -292 m 370 810 l 290 810 l 161 1000 l 296 1000 l 370 810 z "},"‛":{"ha":253,"x_min":69,"x_max":186,"o":"m 176 852 l 124 852 q 142 761 126 790 q 186 717 157 731 l 161 669 q 92 741 115 694 q 69 882 69 787 l 69 994 l 176 994 l 176 852 z "},"‾":{"ha":633,"x_min":-28,"x_max":662,"o":"m -28 1267 l 662 1267 l 662 1217 l -28 1217 l -28 1267 z "},"₤":{"ha":633,"x_min":-1,"x_max":600,"o":"m 141 351 l -1 351 l -1 451 l 130 451 l 111 542 l -1 542 l -1 642 l 90 642 q 80 728 80 691 q 152 934 80 857 q 332 1011 224 1011 q 497 945 430 1011 q 579 754 564 880 l 479 736 q 428 865 471 819 q 331 911 386 911 q 229 864 271 911 q 187 745 187 817 q 197 642 187 698 l 346 642 l 346 542 l 216 542 l 235 451 l 346 451 l 346 351 l 247 351 q 223 263 247 330 q 148 130 200 197 q 228 144 192 144 q 332 127 274 144 q 461 100 427 100 q 568 138 502 100 l 600 26 q 467 -18 517 -18 q 419 -12 444 -18 q 347 13 403 -8 q 270 39 288 35 q 222 45 245 45 q 52 -19 132 45 l 14 98 q 106 205 72 137 q 141 351 141 273 z "},"℮":{"ha":833,"x_min":61,"x_max":779,"o":"m 218 360 l 218 109 q 420 26 299 26 q 688 193 592 26 l 736 164 q 580 14 657 50 q 420 -23 503 -23 q 162 84 262 -23 q 61 360 61 192 q 162 636 61 529 q 420 743 262 743 q 668 647 565 743 q 779 360 771 550 l 218 360 m 622 410 l 622 612 q 418 694 538 694 q 218 611 300 694 l 218 410 l 622 410 z "},"⅛":{"ha":950,"x_min":58,"x_max":931,"o":"m 183 497 l 183 873 q 58 796 126 818 l 58 880 q 135 929 93 893 q 203 1006 178 966 l 264 1006 l 264 497 l 183 497 m 138 -39 l 750 1011 l 837 1011 l 225 -39 l 138 -39 m 699 254 q 630 363 630 286 q 663 456 630 417 q 770 494 696 494 q 879 458 841 494 q 918 362 918 421 q 842 254 918 286 q 931 129 931 227 q 887 16 931 59 q 773 -28 844 -28 q 656 16 699 -28 q 614 126 614 60 q 699 254 614 227 m 771 422 q 725 402 741 422 q 709 357 709 382 q 727 306 709 322 q 773 289 745 289 q 819 306 800 289 q 838 354 838 322 q 819 405 838 387 q 771 422 800 422 m 771 216 q 714 193 734 216 q 694 134 694 169 q 773 48 694 48 q 833 74 812 48 q 853 130 853 99 q 830 193 853 170 q 771 216 806 216 z "},"⅜":{"ha":950,"x_min":58,"x_max":923,"o":"m 58 630 l 140 640 q 172 581 151 598 q 225 564 193 564 q 287 590 262 564 q 312 654 312 615 q 291 710 312 690 q 224 729 270 729 l 206 728 l 194 727 l 206 802 q 270 820 248 801 q 293 871 293 839 q 275 915 293 898 q 227 931 257 931 q 178 917 196 931 q 147 862 160 902 l 68 878 q 126 979 92 951 q 228 1006 161 1006 q 341 972 302 1006 q 380 880 380 938 q 359 812 380 840 q 303 771 339 783 q 399 642 399 742 q 353 530 399 574 q 232 485 307 485 q 58 630 83 485 m 138 -39 l 750 1011 l 837 1011 l 225 -39 l 138 -39 m 691 254 q 622 363 622 286 q 655 456 622 417 q 762 494 688 494 q 871 458 833 494 q 909 362 909 421 q 834 254 909 286 q 923 129 923 227 q 879 16 923 59 q 765 -28 836 -28 q 648 16 690 -28 q 606 126 606 60 q 691 254 606 227 m 763 422 q 717 402 733 422 q 701 357 701 382 q 719 306 701 322 q 765 289 737 289 q 811 306 791 289 q 830 354 830 322 q 811 405 830 387 q 763 422 792 422 m 763 216 q 706 193 726 216 q 686 134 686 169 q 765 48 686 48 q 825 74 804 48 q 845 130 845 99 q 822 193 845 170 q 763 216 798 216 z "},"⅝":{"ha":950,"x_min":50,"x_max":915,"o":"m 50 628 l 126 640 q 203 570 140 570 q 269 598 245 570 q 292 668 292 627 q 270 736 292 707 q 214 765 248 765 q 140 722 178 765 l 65 739 l 106 994 l 355 994 l 355 913 l 158 913 l 140 806 q 229 840 180 840 q 331 790 291 840 q 372 668 372 740 q 323 536 372 587 q 205 485 274 485 q 101 524 142 485 q 50 628 61 563 m 138 -39 l 750 1011 l 837 1011 l 225 -39 l 138 -39 m 683 252 q 614 361 614 283 q 647 453 614 414 q 753 492 680 492 q 863 455 825 492 q 901 359 901 418 q 826 252 901 283 q 915 126 915 224 q 871 13 915 56 q 757 -31 827 -31 q 640 14 682 -31 q 598 123 598 58 q 683 252 598 224 m 755 419 q 709 399 725 419 q 692 354 692 380 q 711 303 692 319 q 757 286 729 286 q 803 303 783 286 q 822 351 822 319 q 803 402 822 385 q 755 419 784 419 m 755 214 q 698 190 718 214 q 677 132 677 166 q 757 45 677 45 q 817 71 796 45 q 837 127 837 96 q 813 190 837 167 q 755 214 790 214 z "},"⅞":{"ha":950,"x_min":64,"x_max":915,"o":"m 127 497 q 267 913 140 712 l 64 913 l 64 994 l 354 994 l 354 940 q 207 497 223 744 l 127 497 m 138 -39 l 750 1011 l 837 1011 l 225 -39 l 138 -39 m 683 254 q 614 363 614 286 q 647 456 614 417 q 753 494 680 494 q 863 458 825 494 q 901 362 901 421 q 826 254 901 286 q 915 129 915 227 q 871 16 915 59 q 757 -28 827 -28 q 640 16 682 -28 q 598 126 598 60 q 683 254 598 227 m 755 422 q 709 402 725 422 q 692 357 692 382 q 711 306 692 322 q 757 289 729 289 q 803 306 783 289 q 822 354 822 322 q 803 405 822 387 q 755 422 784 422 m 755 216 q 698 193 718 216 q 677 134 677 169 q 757 48 677 48 q 817 74 796 48 q 837 130 837 99 q 813 193 837 170 q 755 216 790 216 z "},"΄":{"ha":379,"x_min":123,"x_max":328,"o":"m 123 810 l 197 1000 l 328 1000 l 206 810 l 123 810 z "},"΅":{"ha":379,"x_min":-12,"x_max":392,"o":"m 119 812 l 193 1000 l 296 1000 l 184 812 l 119 812 m 296 812 l 296 942 l 392 942 l 392 812 l 296 812 m -12 812 l -12 942 l 83 942 l 83 812 l -12 812 z "},"Ά":{"ha":760,"x_min":-1,"x_max":762,"o":"m -1 0 l 312 994 l 428 994 l 762 0 l 638 0 l 543 301 l 203 301 l 113 0 l -1 0 m 234 408 l 510 408 l 425 684 q 368 890 386 810 q 323 700 352 794 l 234 408 m 9 810 l 83 1000 l 214 1000 l 92 810 l 9 810 z "},"Έ":{"ha":926,"x_min":20,"x_max":864,"o":"m 256 0 l 256 994 l 845 994 l 845 877 l 363 877 l 363 572 l 814 572 l 814 456 l 363 456 l 363 117 l 864 117 l 864 0 l 256 0 m 20 810 l 94 1000 l 225 1000 l 103 810 l 20 810 z "},"Ή":{"ha":996,"x_min":23,"x_max":909,"o":"m 269 0 l 269 994 l 377 994 l 377 586 l 801 586 l 801 994 l 909 994 l 909 0 l 801 0 l 801 469 l 377 469 l 377 0 l 269 0 m 23 810 l 97 1000 l 228 1000 l 106 810 l 23 810 z "},"Ί":{"ha":482,"x_min":23,"x_max":374,"o":"m 266 0 l 266 994 l 374 994 l 374 0 l 266 0 m 23 810 l 97 1000 l 228 1000 l 106 810 l 23 810 z "},"Ό":{"ha":975,"x_min":20,"x_max":916,"o":"m 136 484 q 248 875 136 739 q 527 1012 360 1012 q 724 951 635 1012 q 864 773 812 890 q 916 496 916 657 q 816 136 916 275 q 526 -17 705 -17 q 236 140 346 -17 q 136 484 136 283 m 248 482 q 329 197 248 298 q 526 96 410 96 q 725 198 644 96 q 805 499 805 300 q 764 728 805 627 q 668 852 732 806 q 528 899 604 899 q 327 797 406 899 q 248 482 248 695 m 20 810 l 94 1000 l 225 1000 l 103 810 l 20 810 z "},"Ύ":{"ha":1004,"x_min":23,"x_max":1000,"o":"m 567 0 l 567 421 l 253 994 l 385 994 l 545 694 q 628 526 592 606 q 717 702 664 604 l 875 994 l 1000 994 l 675 421 l 675 0 l 567 0 m 23 810 l 97 1000 l 228 1000 l 106 810 l 23 810 z "},"Ώ":{"ha":944,"x_min":18,"x_max":883,"o":"m 138 0 l 138 117 l 316 117 q 148 538 148 289 q 249 880 148 748 q 512 1011 349 1011 q 779 872 683 1011 q 875 538 875 734 q 705 117 875 290 l 883 117 l 883 0 l 565 0 l 565 110 q 764 517 764 223 q 692 792 764 686 q 512 899 621 899 q 330 794 401 899 q 259 524 259 690 q 455 110 259 227 l 455 0 l 138 0 m 18 810 l 92 1000 l 222 1000 l 100 810 l 18 810 z "},"ΐ":{"ha":317,"x_min":-45,"x_max":359,"o":"m 113 0 l 113 720 l 212 720 l 212 0 l 113 0 m 87 812 l 161 1000 l 263 1000 l 152 812 l 87 812 m 263 812 l 263 942 l 359 942 l 359 812 l 263 812 m -45 812 l -45 942 l 51 942 l 51 812 l -45 812 z "},"Α":{"ha":760,"x_min":-1,"x_max":762,"o":"m -1 0 l 312 994 l 428 994 l 762 0 l 638 0 l 543 301 l 203 301 l 113 0 l -1 0 m 234 408 l 510 408 l 425 684 q 368 890 386 810 q 323 700 352 794 l 234 408 z "},"Β":{"ha":760,"x_min":84,"x_max":700,"o":"m 84 0 l 84 994 l 390 994 q 537 965 483 994 q 626 876 591 937 q 661 741 661 814 q 631 617 661 672 q 547 529 601 562 q 659 441 618 503 q 700 288 700 379 q 663 130 700 198 q 564 31 626 62 q 395 0 503 0 l 84 0 m 192 576 l 368 576 q 467 586 437 576 q 531 634 509 600 q 554 725 554 667 q 533 814 554 779 q 478 863 513 850 q 355 877 444 877 l 192 877 l 192 576 m 192 117 l 395 117 q 494 130 462 117 q 564 188 540 147 q 588 289 588 228 q 565 384 588 345 q 503 441 542 423 q 380 459 464 459 l 192 459 l 192 117 z "},"Δ":{"ha":777,"x_min":7,"x_max":770,"o":"m 770 0 l 7 0 l 321 994 l 436 994 l 770 0 m 332 700 l 157 117 l 610 117 l 433 684 q 376 890 397 804 q 332 700 362 800 z "},"Ε":{"ha":760,"x_min":90,"x_max":699,"o":"m 90 0 l 90 994 l 680 994 l 680 877 l 198 877 l 198 572 l 649 572 l 649 456 l 198 456 l 198 117 l 699 117 l 699 0 l 90 0 z "},"Ζ":{"ha":696,"x_min":24,"x_max":669,"o":"m 24 0 l 24 122 l 442 759 q 527 877 486 825 l 71 877 l 71 994 l 655 994 l 655 877 l 198 187 l 149 117 l 669 117 l 669 0 l 24 0 z "},"Η":{"ha":822,"x_min":87,"x_max":727,"o":"m 87 0 l 87 994 l 195 994 l 195 586 l 619 586 l 619 994 l 727 994 l 727 0 l 619 0 l 619 469 l 195 469 l 195 0 l 87 0 z "},"Ι":{"ha":317,"x_min":109,"x_max":216,"o":"m 109 0 l 109 994 l 216 994 l 216 0 l 109 0 z "},"Κ":{"ha":760,"x_min":84,"x_max":758,"o":"m 84 0 l 84 994 l 192 994 l 192 501 l 597 994 l 743 994 l 401 591 l 758 0 l 616 0 l 326 503 l 192 345 l 192 0 l 84 0 z "},"Λ":{"ha":760,"x_min":7,"x_max":753,"o":"m 326 994 l 436 994 l 753 0 l 636 0 l 424 722 q 380 885 400 798 q 338 722 360 797 l 117 0 l 7 0 l 326 994 z "},"Μ":{"ha":949,"x_min":85,"x_max":863,"o":"m 85 0 l 85 994 l 247 994 l 440 290 l 479 143 q 522 302 493 198 l 718 994 l 863 994 l 863 0 l 759 0 l 759 832 l 522 0 l 425 0 l 189 846 l 189 0 l 85 0 z "},"Ν":{"ha":822,"x_min":85,"x_max":727,"o":"m 85 0 l 85 994 l 195 994 l 624 214 l 624 994 l 727 994 l 727 0 l 616 0 l 189 781 l 189 0 l 85 0 z "},"Ξ":{"ha":741,"x_min":61,"x_max":681,"o":"m 77 878 l 77 994 l 665 994 l 665 878 l 77 878 m 127 439 l 127 555 l 612 555 l 612 439 l 127 439 m 61 0 l 61 117 l 681 117 l 681 0 l 61 0 z "},"Ο":{"ha":886,"x_min":58,"x_max":838,"o":"m 58 484 q 170 875 58 739 q 448 1012 281 1012 q 645 951 556 1012 q 786 773 734 890 q 838 496 838 657 q 737 136 838 275 q 448 -17 627 -17 q 157 140 267 -17 q 58 484 58 283 m 169 482 q 250 197 169 298 q 447 96 331 96 q 646 198 566 96 q 726 499 726 300 q 685 728 726 627 q 589 852 653 806 q 449 899 525 899 q 248 797 327 899 q 169 482 169 695 z "},"Π":{"ha":822,"x_min":92,"x_max":732,"o":"m 200 0 l 92 0 l 92 994 l 732 994 l 732 0 l 624 0 l 624 878 l 200 878 l 200 0 z "},"Ρ":{"ha":760,"x_min":88,"x_max":710,"o":"m 88 0 l 88 994 l 395 994 q 555 975 504 994 q 668 880 626 949 q 710 708 710 810 q 642 489 710 574 q 405 404 573 404 l 196 404 l 196 0 l 88 0 m 196 522 l 407 522 q 553 567 507 522 q 599 703 599 612 q 576 804 599 762 q 521 861 553 846 q 405 877 489 877 l 196 877 l 196 522 z "},"Σ":{"ha":686,"x_min":54,"x_max":632,"o":"m 54 994 l 608 994 l 608 878 l 171 878 l 449 517 l 171 117 l 632 117 l 632 0 l 54 0 l 54 136 l 321 517 l 54 863 l 54 994 z "},"Τ":{"ha":696,"x_min":28,"x_max":675,"o":"m 297 0 l 297 877 l 28 877 l 28 994 l 675 994 l 675 877 l 405 877 l 405 0 l 297 0 z "},"Υ":{"ha":760,"x_min":3,"x_max":751,"o":"m 317 0 l 317 421 l 3 994 l 135 994 l 295 694 q 378 526 342 606 q 467 702 414 604 l 625 994 l 751 994 l 425 421 l 425 0 l 317 0 z "},"Χ":{"ha":760,"x_min":5,"x_max":753,"o":"m 5 0 l 321 518 l 43 994 l 171 994 l 319 739 q 385 617 365 661 q 449 730 411 670 l 614 994 l 730 994 l 444 526 l 753 0 l 620 0 l 414 355 q 379 421 397 385 q 340 347 351 367 l 135 0 l 5 0 z "},"Ψ":{"ha":917,"x_min":53,"x_max":863,"o":"m 53 689 l 53 994 l 161 994 l 161 714 q 229 498 161 575 q 404 421 297 421 l 404 994 l 513 994 l 513 421 q 754 728 754 421 l 754 994 l 863 994 l 863 700 q 773 410 863 513 q 513 307 684 307 l 513 0 l 404 0 l 404 307 q 149 413 245 307 q 53 689 53 518 z "},"Ω":{"ha":864,"x_min":60,"x_max":804,"o":"m 60 0 l 60 117 l 237 117 q 69 538 69 289 q 170 880 69 748 q 433 1011 271 1011 q 700 872 604 1011 q 796 538 796 734 q 627 117 796 290 l 804 117 l 804 0 l 486 0 l 486 110 q 685 517 685 223 q 614 792 685 686 q 433 899 543 899 q 251 794 322 899 q 180 524 180 690 q 376 110 180 227 l 376 0 l 60 0 z "},"Ϊ":{"ha":317,"x_min":1,"x_max":313,"o":"m 109 0 l 109 994 l 216 994 l 216 0 l 109 0 m 1 1114 l 1 1253 l 106 1253 l 106 1114 l 1 1114 m 209 1114 l 209 1253 l 313 1253 l 313 1114 l 209 1114 z "},"Ϋ":{"ha":760,"x_min":3,"x_max":751,"o":"m 317 0 l 317 421 l 3 994 l 135 994 l 295 694 q 378 526 342 606 q 467 702 414 604 l 625 994 l 751 994 l 425 421 l 425 0 l 317 0 m 216 1114 l 216 1253 l 321 1253 l 321 1114 l 216 1114 m 424 1114 l 424 1253 l 528 1253 l 528 1114 l 424 1114 z "},"ά":{"ha":687,"x_min":38,"x_max":647,"o":"m 509 130 q 302 -19 433 -19 q 156 32 218 -19 q 66 168 94 83 q 38 346 38 254 q 110 627 38 522 q 306 732 182 732 q 507 599 442 732 l 531 721 l 640 721 q 600 372 600 546 q 647 0 600 168 l 535 0 q 509 130 517 76 m 325 639 q 197 562 239 639 q 155 360 155 485 q 199 151 155 227 q 325 75 243 75 q 496 361 496 75 q 450 569 496 498 q 325 639 404 639 m 247 810 l 321 1000 l 452 1000 l 330 810 l 247 810 z "},"έ":{"ha":494,"x_min":35,"x_max":461,"o":"m 285 419 l 306 419 l 306 321 l 288 321 q 138 201 138 321 q 169 118 138 151 q 244 85 199 85 q 389 174 319 85 l 461 98 q 361 11 412 38 q 235 -16 311 -16 q 89 45 144 -16 q 35 196 35 105 q 132 372 35 322 q 50 532 50 427 q 103 677 50 618 q 245 736 155 736 q 440 639 359 736 l 368 568 q 240 631 299 631 q 171 602 197 631 q 146 532 146 573 q 285 419 146 419 m 166 810 l 240 1000 l 371 1000 l 249 810 l 166 810 z "},"ή":{"ha":633,"x_min":78,"x_max":558,"o":"m 168 720 l 168 618 q 355 736 234 736 q 479 696 429 736 q 544 600 530 656 q 558 443 558 543 l 558 -277 l 458 -277 l 458 437 q 419 596 458 562 q 334 631 380 631 q 228 585 277 631 q 178 393 178 538 l 178 0 l 78 0 l 78 720 l 168 720 m 243 810 l 317 1000 l 448 1000 l 326 810 l 243 810 z "},"ί":{"ha":317,"x_min":87,"x_max":292,"o":"m 113 0 l 113 720 l 212 720 l 212 0 l 113 0 m 87 810 l 161 1000 l 292 1000 l 170 810 l 87 810 z "},"ΰ":{"ha":633,"x_min":77,"x_max":557,"o":"m 77 281 l 77 720 l 176 720 l 176 275 q 216 137 176 190 q 315 85 255 85 q 417 139 378 85 q 457 288 457 193 l 457 720 l 557 720 l 557 278 q 491 64 557 143 q 314 -16 425 -16 q 140 62 203 -16 q 77 281 77 140 m 249 812 l 323 1000 l 425 1000 l 314 812 l 249 812 m 425 812 l 425 942 l 522 942 l 522 812 l 425 812 m 117 812 l 117 942 l 213 942 l 213 812 l 117 812 z "},"β":{"ha":640,"x_min":75,"x_max":602,"o":"m 399 546 q 549 461 496 531 q 602 285 602 392 q 536 70 602 156 q 367 -17 470 -17 q 175 92 239 -17 l 175 -277 l 75 -277 l 75 700 q 143 929 75 848 q 325 1011 212 1011 q 489 938 426 1011 q 553 766 553 865 q 512 624 553 684 q 399 546 471 564 m 290 497 l 262 497 l 262 586 q 457 754 457 586 q 418 866 457 822 q 319 911 378 911 q 238 884 275 911 q 188 818 201 857 q 175 677 175 779 l 175 371 q 189 215 175 271 q 247 117 202 159 q 346 74 291 74 q 455 130 412 74 q 498 278 498 186 q 444 437 498 377 q 290 497 389 497 z "},"γ":{"ha":570,"x_min":14,"x_max":555,"o":"m 235 0 l 14 720 l 119 720 l 285 153 l 453 720 l 555 720 l 335 0 l 335 -277 l 235 -277 l 235 0 z "},"ζ":{"ha":500,"x_min":39,"x_max":493,"o":"m 131 896 l 131 994 l 493 994 l 493 911 q 235 605 328 781 q 142 279 142 430 q 163 173 142 208 q 217 126 185 137 q 306 109 249 115 q 398 87 363 103 q 458 28 433 71 q 482 -68 482 -15 q 429 -221 482 -150 q 265 -292 376 -292 l 292 -179 q 386 -85 386 -163 q 363 -25 386 -48 q 259 1 341 -3 q 134 36 178 5 q 64 131 90 66 q 39 285 39 195 q 126 604 39 435 q 361 896 214 773 l 131 896 z "},"η":{"ha":633,"x_min":78,"x_max":558,"o":"m 168 720 l 168 618 q 355 736 234 736 q 479 696 429 736 q 544 600 530 656 q 558 443 558 543 l 558 -277 l 458 -277 l 458 437 q 419 596 458 562 q 334 631 380 631 q 228 585 277 631 q 178 393 178 538 l 178 0 l 78 0 l 78 720 l 168 720 z "},"θ":{"ha":633,"x_min":52,"x_max":583,"o":"m 317 -16 q 52 497 52 -16 q 317 1011 52 1011 q 583 497 583 1011 q 317 -16 583 -16 m 154 547 l 479 547 q 436 823 474 735 q 317 911 397 911 q 198 822 237 911 q 154 547 159 734 m 479 449 l 154 449 q 208 155 161 224 q 317 85 255 85 q 479 449 471 85 z "},"ι":{"ha":317,"x_min":113,"x_max":212,"o":"m 113 0 l 113 720 l 212 720 l 212 0 l 113 0 z "},"κ":{"ha":567,"x_min":74,"x_max":568,"o":"m 74 0 l 74 720 l 174 720 l 174 437 l 412 720 l 546 720 l 281 421 l 568 0 l 440 0 l 210 339 l 174 297 l 174 0 l 74 0 z "},"λ":{"ha":570,"x_min":14,"x_max":555,"o":"m 450 0 l 285 539 l 119 0 l 14 0 l 233 707 l 146 994 l 252 994 l 555 0 l 450 0 z "},"μ":{"ha":633,"x_min":77,"x_max":557,"o":"m 465 0 l 465 85 q 315 -18 414 -18 q 176 72 233 -18 l 176 -277 l 77 -277 l 77 720 l 176 720 l 176 415 q 182 273 176 349 q 204 165 187 197 q 249 114 221 134 q 311 94 277 94 q 391 122 355 94 q 442 199 427 150 q 457 367 457 249 l 457 720 l 557 720 l 557 0 l 465 0 z "},"ν":{"ha":570,"x_min":14,"x_max":556,"o":"m 239 0 l 14 720 l 120 720 l 247 289 q 285 144 269 216 q 321 281 298 201 l 453 720 l 556 720 l 332 0 l 239 0 z "},"ξ":{"ha":436,"x_min":40,"x_max":478,"o":"m 317 667 l 412 667 l 412 566 q 212 481 281 566 q 143 289 143 396 q 254 123 143 155 q 435 51 391 84 q 478 -77 478 17 q 420 -226 478 -161 q 254 -292 361 -292 l 281 -179 q 382 -86 382 -167 q 355 -27 382 -43 q 268 3 329 -11 q 83 111 125 34 q 40 285 40 188 q 87 466 40 384 q 221 596 134 548 q 108 664 146 611 q 69 787 69 717 q 138 947 69 885 q 309 1010 206 1010 l 418 1010 l 418 911 l 321 911 q 206 877 246 911 q 165 786 165 843 q 317 667 165 667 z "},"ο":{"ha":633,"x_min":36,"x_max":589,"o":"m 36 360 q 114 642 36 547 q 313 736 193 736 q 510 642 431 736 q 589 368 589 547 q 511 79 589 174 q 313 -16 433 -16 q 115 79 194 -16 q 36 360 36 174 m 138 360 q 189 152 138 220 q 315 84 240 84 q 436 153 386 84 q 487 360 487 222 q 436 567 487 499 q 310 635 385 635 q 189 567 239 635 q 138 360 138 498 z "},"ρ":{"ha":650,"x_min":75,"x_max":610,"o":"m 175 -277 l 75 -277 l 75 357 q 143 639 75 542 q 336 736 210 736 q 534 633 458 736 q 610 361 610 531 q 537 87 610 190 q 349 -16 465 -16 q 175 68 239 -16 l 175 -277 m 507 354 q 461 563 507 489 q 338 636 415 636 q 176 351 176 636 q 218 154 176 223 q 334 85 260 85 q 461 155 415 85 q 507 354 507 226 z "},"ς":{"ha":538,"x_min":41,"x_max":530,"o":"m 203 -283 l 228 -171 q 283 -179 259 -179 q 367 -152 334 -179 q 400 -83 400 -125 q 383 -38 400 -58 q 296 3 366 -18 q 41 332 41 82 q 140 619 41 502 q 385 736 239 736 q 530 714 468 736 l 505 611 q 382 636 441 636 q 206 554 275 636 q 138 343 138 473 q 323 114 138 178 q 469 29 435 75 q 503 -75 503 -17 q 443 -231 503 -170 q 288 -292 384 -292 q 203 -283 243 -292 z "},"υ":{"ha":633,"x_min":77,"x_max":557,"o":"m 77 281 l 77 720 l 176 720 l 176 275 q 216 137 176 190 q 315 85 255 85 q 417 139 378 85 q 457 288 457 193 l 457 720 l 557 720 l 557 278 q 491 64 557 143 q 314 -16 425 -16 q 140 62 203 -16 q 77 281 77 140 z "},"χ":{"ha":595,"x_min":8,"x_max":586,"o":"m 236 225 l 25 720 l 135 720 l 297 321 l 465 720 l 575 720 l 358 229 l 586 -277 l 472 -277 l 297 139 l 119 -277 l 8 -277 l 236 225 z "},"ψ":{"ha":829,"x_min":77,"x_max":753,"o":"m 77 353 l 77 720 l 176 720 l 176 347 q 223 147 176 203 q 364 86 270 91 l 364 720 l 464 720 l 464 86 q 606 149 559 92 q 653 349 653 206 l 653 720 l 753 720 l 753 353 q 727 149 753 224 q 631 30 701 73 q 464 -17 562 -13 l 464 -277 l 364 -277 l 364 -17 q 195 33 264 -13 q 101 152 125 78 q 77 353 77 225 z "},"ω":{"ha":872,"x_min":40,"x_max":833,"o":"m 387 314 l 387 539 l 488 539 l 488 314 q 520 140 488 201 q 607 79 553 79 q 694 150 659 79 q 730 330 730 220 q 648 720 730 500 l 745 720 q 833 350 833 532 q 774 80 833 177 q 616 -17 715 -17 q 436 146 491 -17 q 257 -17 380 -17 q 99 80 159 -17 q 40 350 40 177 q 127 720 40 532 l 225 720 q 143 330 143 496 q 179 150 143 220 q 267 79 215 79 q 354 140 321 79 q 387 314 387 201 z "},"ϊ":{"ha":317,"x_min":3,"x_max":315,"o":"m 113 0 l 113 720 l 212 720 l 212 0 l 113 0 m 3 861 l 3 1000 l 107 1000 l 107 861 l 3 861 m 210 861 l 210 1000 l 315 1000 l 315 861 l 210 861 z "},"ϋ":{"ha":633,"x_min":77,"x_max":557,"o":"m 77 281 l 77 720 l 176 720 l 176 275 q 216 137 176 190 q 315 85 255 85 q 417 139 378 85 q 457 288 457 193 l 457 720 l 557 720 l 557 278 q 491 64 557 143 q 314 -16 425 -16 q 140 62 203 -16 q 77 281 77 140 m 159 861 l 159 1000 l 264 1000 l 264 861 l 159 861 m 367 861 l 367 1000 l 471 1000 l 471 861 l 367 861 z "},"ό":{"ha":633,"x_min":36,"x_max":589,"o":"m 36 360 q 114 642 36 547 q 313 736 193 736 q 510 642 431 736 q 589 368 589 547 q 511 79 589 174 q 313 -16 433 -16 q 115 79 194 -16 q 36 360 36 174 m 138 360 q 189 152 138 220 q 315 84 240 84 q 436 153 386 84 q 487 360 487 222 q 436 567 487 499 q 310 635 385 635 q 189 567 239 635 q 138 360 138 498 m 239 810 l 313 1000 l 444 1000 l 322 810 l 239 810 z "},"ύ":{"ha":633,"x_min":77,"x_max":557,"o":"m 77 281 l 77 720 l 176 720 l 176 275 q 216 137 176 190 q 315 85 255 85 q 417 139 378 85 q 457 288 457 193 l 457 720 l 557 720 l 557 278 q 491 64 557 143 q 314 -16 425 -16 q 140 62 203 -16 q 77 281 77 140 m 231 810 l 304 1000 l 435 1000 l 313 810 l 231 810 z "},"ώ":{"ha":872,"x_min":40,"x_max":833,"o":"m 387 314 l 387 539 l 488 539 l 488 314 q 520 140 488 201 q 607 79 553 79 q 694 150 659 79 q 730 330 730 220 q 648 720 730 500 l 745 720 q 833 350 833 532 q 774 80 833 177 q 616 -17 715 -17 q 436 146 491 -17 q 257 -17 380 -17 q 99 80 159 -17 q 40 350 40 177 q 127 720 40 532 l 225 720 q 143 330 143 496 q 179 150 143 220 q 267 79 215 79 q 354 140 321 79 q 387 314 387 201 m 353 810 l 427 1000 l 557 1000 l 435 810 l 353 810 z "},"Ё":{"ha":760,"x_min":90,"x_max":699,"o":"m 90 0 l 90 994 l 680 994 l 680 877 l 198 877 l 198 572 l 649 572 l 649 456 l 198 456 l 198 117 l 699 117 l 699 0 l 90 0 m 229 1114 l 229 1253 l 334 1253 l 334 1114 l 229 1114 m 437 1114 l 437 1253 l 541 1253 l 541 1114 l 437 1114 z "},"Ђ":{"ha":985,"x_min":28,"x_max":940,"o":"m 28 994 l 680 994 l 680 877 l 408 877 l 408 568 q 652 635 549 635 q 861 539 782 635 q 940 306 940 443 q 872 81 940 178 q 686 -17 805 -17 q 554 5 625 -17 l 572 117 q 660 92 614 92 q 780 143 730 92 q 830 302 830 194 q 778 464 830 402 q 626 525 726 525 q 408 461 533 525 l 408 0 l 300 0 l 300 877 l 28 877 l 28 994 z "},"Ѓ":{"ha":608,"x_min":90,"x_max":584,"o":"m 90 995 l 584 995 l 584 877 l 197 877 l 197 0 l 90 0 l 90 995 m 250 1063 l 323 1253 l 454 1253 l 332 1063 l 250 1063 z "},"Є":{"ha":819,"x_min":56,"x_max":771,"o":"m 470 572 l 470 454 l 168 454 q 244 190 174 286 q 423 94 314 94 q 667 346 617 94 l 771 313 q 431 -17 705 -17 q 150 135 244 -17 q 56 508 56 286 q 100 761 56 648 q 230 943 144 874 q 433 1011 316 1011 q 644 936 559 1011 q 761 722 730 860 l 655 688 q 433 896 608 896 q 256 813 326 896 q 172 572 187 730 l 470 572 z "},"Ѕ":{"ha":760,"x_min":52,"x_max":701,"o":"m 52 319 l 153 330 q 190 202 161 248 q 273 129 219 157 q 393 101 326 101 q 543 148 490 101 q 596 271 596 195 q 577 348 596 315 q 518 401 557 380 q 350 460 479 422 q 186 529 235 494 q 110 617 137 564 q 83 737 83 670 q 161 935 83 858 q 371 1011 239 1011 q 530 975 462 1011 q 636 872 598 939 q 676 714 673 805 l 572 705 q 514 848 564 802 q 374 895 465 895 q 235 854 283 895 q 186 748 186 813 q 222 654 186 688 q 380 587 257 621 q 550 530 501 554 q 663 430 625 492 q 701 281 701 368 q 661 126 701 196 q 552 19 621 56 q 386 -18 483 -18 q 145 73 235 -18 q 52 319 55 164 z "},"І":{"ha":317,"x_min":109,"x_max":216,"o":"m 109 0 l 109 994 l 216 994 l 216 0 l 109 0 z "},"Ї":{"ha":317,"x_min":1,"x_max":313,"o":"m 109 0 l 109 994 l 216 994 l 216 0 l 109 0 m 1 1114 l 1 1253 l 106 1253 l 106 1114 l 1 1114 m 209 1114 l 209 1253 l 313 1253 l 313 1114 l 209 1114 z "},"Ј":{"ha":570,"x_min":31,"x_max":479,"o":"m 31 282 l 127 298 q 163 142 132 184 q 249 100 194 100 q 317 122 288 100 q 357 176 347 143 q 371 309 371 220 l 371 994 l 479 994 l 479 317 q 419 58 479 134 q 250 -17 359 -17 q 91 51 143 -17 q 31 282 31 128 z "},"Љ":{"ha":1204,"x_min":7,"x_max":1162,"o":"m 655 994 l 655 570 l 850 570 q 1089 498 1016 570 q 1162 290 1162 427 q 1124 128 1162 201 q 1030 28 1087 56 q 865 0 972 0 l 547 0 l 547 877 l 252 877 l 252 365 q 240 139 252 212 q 190 24 229 65 q 94 -17 151 -17 q 7 0 56 -17 l 25 116 q 71 102 52 102 q 125 135 106 102 q 144 294 144 168 l 144 994 l 655 994 m 655 112 l 870 112 q 966 127 932 112 q 1022 182 999 142 q 1045 286 1045 222 q 1019 391 1045 350 q 949 444 992 431 q 800 456 907 456 l 655 456 l 655 112 z "},"Њ":{"ha":1150,"x_min":91,"x_max":1108,"o":"m 602 994 l 602 570 l 783 570 q 964 546 900 570 q 1068 453 1027 523 q 1108 290 1108 384 q 1071 128 1108 199 q 978 28 1034 57 q 806 0 922 0 l 494 0 l 494 456 l 199 456 l 199 0 l 91 0 l 91 994 l 199 994 l 199 570 l 494 570 l 494 994 l 602 994 m 602 112 l 804 112 q 906 124 873 112 q 966 177 940 136 q 992 283 992 218 q 968 387 992 347 q 898 442 943 428 q 732 456 852 456 l 602 456 l 602 112 z "},"Ћ":{"ha":972,"x_min":28,"x_max":922,"o":"m 28 994 l 680 994 l 680 877 l 408 877 l 408 571 q 652 635 560 635 q 813 586 749 635 q 900 461 878 536 q 922 262 922 386 l 922 0 l 814 0 l 814 257 q 775 460 814 397 q 645 524 736 524 q 408 461 551 524 l 408 0 l 300 0 l 300 877 l 28 877 l 28 994 z "},"Ќ":{"ha":663,"x_min":90,"x_max":659,"o":"m 90 994 l 197 994 l 197 559 q 301 593 272 559 q 378 762 331 628 q 438 907 414 865 q 503 973 463 949 q 612 996 543 996 q 652 994 631 996 l 652 880 l 630 880 l 606 881 q 536 856 562 881 q 473 720 510 830 q 405 563 433 597 q 336 509 377 529 q 492 331 415 482 l 659 0 l 526 0 l 389 270 q 286 432 325 398 q 208 466 248 466 q 197 465 203 466 l 197 0 l 90 0 l 90 994 m 267 1062 l 340 1252 l 471 1252 l 349 1062 l 267 1062 z "},"Ў":{"ha":723,"x_min":5,"x_max":720,"o":"m 5 994 l 114 994 l 380 385 l 612 994 l 720 994 l 414 221 q 318 30 355 73 q 217 -14 281 -14 q 113 10 173 -14 l 113 123 q 204 92 156 92 q 273 123 244 92 q 336 264 301 153 l 5 994 m 467 1237 l 536 1237 q 483 1105 527 1149 q 371 1061 439 1061 q 259 1105 303 1061 q 207 1237 216 1149 l 275 1237 q 368 1145 291 1145 q 435 1167 412 1145 q 467 1237 459 1189 z "},"Џ":{"ha":819,"x_min":89,"x_max":730,"o":"m 457 0 l 457 -276 l 361 -276 l 361 0 l 89 0 l 89 994 l 197 994 l 197 117 l 622 117 l 622 994 l 730 994 l 730 0 l 457 0 z "},"А":{"ha":760,"x_min":-1,"x_max":762,"o":"m -1 0 l 312 994 l 428 994 l 762 0 l 638 0 l 543 301 l 203 301 l 113 0 l -1 0 m 234 408 l 510 408 l 425 684 q 368 890 386 810 q 323 700 352 794 l 234 408 z "},"Б":{"ha":747,"x_min":93,"x_max":707,"o":"m 93 994 l 622 994 l 622 877 l 201 877 l 201 570 l 395 570 q 567 545 504 570 q 669 451 630 520 q 707 289 707 382 q 671 130 707 201 q 578 30 635 59 q 412 0 520 0 l 93 0 l 93 994 m 201 112 l 416 112 q 546 152 500 112 q 591 286 591 191 q 565 390 591 349 q 495 444 539 431 q 345 457 452 457 l 201 457 l 201 112 z "},"В":{"ha":760,"x_min":84,"x_max":700,"o":"m 84 0 l 84 994 l 390 994 q 537 965 483 994 q 626 876 591 937 q 661 741 661 814 q 631 617 661 672 q 547 529 601 562 q 659 441 618 503 q 700 288 700 379 q 663 130 700 198 q 564 31 626 62 q 395 0 503 0 l 84 0 m 192 576 l 368 576 q 467 586 437 576 q 531 634 509 600 q 554 725 554 667 q 533 814 554 779 q 478 863 513 850 q 355 877 444 877 l 192 877 l 192 576 m 192 117 l 395 117 q 494 130 462 117 q 564 188 540 147 q 588 289 588 228 q 565 384 588 345 q 503 441 542 423 q 380 459 464 459 l 192 459 l 192 117 z "},"Г":{"ha":608,"x_min":90,"x_max":584,"o":"m 90 995 l 584 995 l 584 877 l 197 877 l 197 0 l 90 0 l 90 995 z "},"Д":{"ha":771,"x_min":0,"x_max":731,"o":"m 162 994 l 658 994 l 658 117 l 731 117 l 731 -232 l 635 -232 l 635 0 l 96 0 l 96 -232 l 0 -232 l 0 117 l 63 117 q 162 849 162 298 l 162 994 m 550 877 l 266 877 l 266 826 q 248 482 266 701 q 174 117 230 263 l 550 117 l 550 877 z "},"Е":{"ha":760,"x_min":90,"x_max":699,"o":"m 90 0 l 90 994 l 680 994 l 680 877 l 198 877 l 198 572 l 649 572 l 649 456 l 198 456 l 198 117 l 699 117 l 699 0 l 90 0 z "},"Ж":{"ha":1051,"x_min":4,"x_max":1048,"o":"m 581 994 l 581 559 q 690 593 661 560 q 766 762 719 627 q 834 918 806 875 q 899 978 862 961 q 1025 994 936 994 l 1040 994 l 1040 880 l 1019 880 l 994 881 q 919 849 944 881 q 862 720 894 818 q 792 562 821 596 q 724 509 764 528 q 880 331 804 481 l 1048 0 l 913 0 l 777 270 q 677 429 715 393 q 581 465 638 465 l 581 0 l 471 0 l 471 465 q 365 420 402 465 q 274 270 328 376 l 138 0 l 4 0 l 172 331 q 328 509 249 482 q 256 566 284 530 q 190 720 229 602 q 130 853 155 826 q 55 881 105 881 l 12 880 l 12 994 l 26 994 q 153 978 117 994 q 218 917 189 961 q 286 762 246 873 q 362 594 333 627 q 471 559 391 560 l 471 994 l 581 994 z "},"З":{"ha":688,"x_min":43,"x_max":642,"o":"m 43 281 l 146 313 q 208 169 157 242 q 344 96 259 96 q 477 148 426 96 q 528 279 528 200 q 476 410 528 361 q 334 458 423 458 l 282 458 l 282 572 q 395 583 357 572 q 465 635 433 593 q 496 734 496 677 q 457 846 496 795 q 342 896 417 896 q 241 862 283 896 q 179 767 199 827 q 160 666 160 707 l 57 694 q 344 1011 95 1011 q 533 930 464 1011 q 603 741 603 848 q 496 525 603 604 q 600 439 558 504 q 642 284 642 375 q 559 69 642 155 q 345 -17 477 -17 q 43 281 113 -17 z "},"И":{"ha":819,"x_min":90,"x_max":730,"o":"m 90 994 l 187 994 l 187 207 l 621 994 l 730 994 l 730 0 l 632 0 l 632 785 l 197 0 l 90 0 l 90 994 z "},"Й":{"ha":819,"x_min":90,"x_max":730,"o":"m 90 994 l 187 994 l 187 207 l 621 994 l 730 994 l 730 0 l 632 0 l 632 785 l 197 0 l 90 0 l 90 994 m 522 1237 l 590 1237 q 537 1105 581 1149 q 425 1061 493 1061 q 314 1105 357 1061 q 261 1237 270 1149 l 330 1237 q 422 1145 345 1145 q 490 1167 466 1145 q 522 1237 513 1189 z "},"К":{"ha":663,"x_min":90,"x_max":659,"o":"m 90 994 l 197 994 l 197 559 q 301 593 272 559 q 378 762 331 628 q 438 907 414 865 q 503 973 463 949 q 612 996 543 996 q 652 994 631 996 l 652 880 l 630 880 l 606 881 q 536 856 562 881 q 473 720 510 830 q 405 563 433 597 q 336 509 377 529 q 492 331 415 482 l 659 0 l 526 0 l 389 270 q 286 432 325 398 q 208 466 248 466 q 197 465 203 466 l 197 0 l 90 0 l 90 994 z "},"Л":{"ha":747,"x_min":9,"x_max":658,"o":"m 147 994 l 658 994 l 658 0 l 549 0 l 549 877 l 255 877 l 255 365 q 243 139 255 212 q 192 24 231 65 q 96 -17 153 -17 q 9 0 59 -17 l 28 116 q 73 102 54 102 q 128 135 109 102 q 147 294 147 168 l 147 994 z "},"М":{"ha":949,"x_min":85,"x_max":863,"o":"m 85 0 l 85 994 l 247 994 l 440 290 l 479 143 q 522 302 493 198 l 718 994 l 863 994 l 863 0 l 759 0 l 759 832 l 522 0 l 425 0 l 189 846 l 189 0 l 85 0 z "},"Н":{"ha":822,"x_min":87,"x_max":727,"o":"m 87 0 l 87 994 l 195 994 l 195 586 l 619 586 l 619 994 l 727 994 l 727 0 l 619 0 l 619 469 l 195 469 l 195 0 l 87 0 z "},"О":{"ha":886,"x_min":58,"x_max":838,"o":"m 58 484 q 170 875 58 739 q 448 1012 281 1012 q 645 951 556 1012 q 786 773 734 890 q 838 496 838 657 q 737 136 838 275 q 448 -17 627 -17 q 157 140 267 -17 q 58 484 58 283 m 169 482 q 250 197 169 298 q 447 96 331 96 q 646 198 566 96 q 726 499 726 300 q 685 728 726 627 q 589 852 653 806 q 449 899 525 899 q 248 797 327 899 q 169 482 169 695 z "},"П":{"ha":822,"x_min":92,"x_max":732,"o":"m 200 0 l 92 0 l 92 994 l 732 994 l 732 0 l 624 0 l 624 878 l 200 878 l 200 0 z "}}}
